{"glyphs":{"0":{"ha":450,"x_min":60,"x_max":436,"o":"m 436 699 q 435 553 436 688 q 429 156 433 419 q 240 -119 425 -119 q 103 -49 146 -119 q 60 165 60 22 q 63 334 60 200 q 68 703 65 468 q 258 954 69 954 q 333 935 300 954 q 390 883 367 917 q 424 801 413 849 q 436 699 436 754 m 329 731 q 308 797 329 768 q 253 826 286 826 q 196 799 215 826 q 176 733 176 772 l 167 117 q 187 40 165 74 q 244 6 208 6 q 299 38 281 6 q 319 115 318 71 l 329 731 z "},"1":{"ha":242,"x_min":-19,"x_max":215,"o":"m 215 40 l 104 36 l 85 851 l -18 847 l -19 936 q 115 1064 71 981 l 189 1067 l 215 40 z "},"2":{"ha":425,"x_min":40,"x_max":400,"o":"m 400 72 l 43 64 l 40 201 q 91 297 65 246 q 142 402 117 349 q 189 510 167 456 q 229 617 211 564 q 278 774 261 708 q 294 899 294 839 q 221 999 294 999 q 160 953 178 999 q 142 806 142 908 l 142 781 l 40 781 l 40 790 q 84 1035 40 954 q 224 1117 128 1117 q 350 1054 306 1117 q 394 876 394 992 q 311 528 394 736 q 154 197 269 421 l 397 201 l 400 72 z "},"3":{"ha":424,"x_min":24,"x_max":389,"o":"m 389 175 q 221 -106 389 -106 q 35 219 49 -106 l 139 224 q 217 19 144 19 q 289 156 289 19 q 281 268 289 224 q 258 338 274 313 q 217 374 243 364 q 157 383 192 383 l 154 510 q 260 672 260 519 q 190 847 260 847 q 124 710 124 847 q 124 686 124 697 q 128 661 125 675 l 24 658 l 24 701 q 69 902 24 828 q 192 976 114 976 q 356 663 356 976 q 281 451 356 511 q 331 413 310 435 q 364 359 351 392 q 383 282 376 326 q 389 175 389 238 z "},"4":{"ha":451,"x_min":21,"x_max":440,"o":"m 440 357 l 346 354 l 354 97 l 251 94 l 242 350 l 26 342 l 21 468 l 211 1122 l 319 1125 l 342 469 l 435 472 l 440 357 m 238 467 l 224 882 l 113 461 l 238 467 z "},"5":{"ha":415,"x_min":61,"x_max":407,"o":"m 407 456 q 406 385 407 454 q 403 182 406 317 q 353 2 400 64 q 224 -60 306 -60 q 149 -41 179 -60 q 99 20 118 -22 q 70 131 79 63 q 61 296 61 199 l 160 294 q 158 276 158 285 q 158 261 158 268 l 158 235 q 229 58 158 58 q 280 90 257 58 q 303 175 303 122 q 307 447 307 418 q 244 542 307 542 q 165 458 190 542 l 83 464 l 83 1018 l 399 1018 l 399 893 l 168 893 l 164 576 q 290 660 232 660 q 407 456 407 660 z "},"6":{"ha":447,"x_min":61,"x_max":435,"o":"m 435 397 q 428 218 435 294 q 402 91 422 142 q 344 15 382 40 q 244 -11 307 -11 q 61 269 61 -11 l 63 778 q 110 962 63 892 q 251 1032 158 1032 q 432 722 431 1032 l 322 722 l 324 751 q 249 904 324 904 q 192 876 211 904 q 172 810 172 847 l 172 554 q 299 636 235 636 q 435 397 435 636 m 322 428 q 258 521 322 521 q 172 444 207 521 l 171 225 q 192 147 171 181 q 246 113 213 113 q 301 147 279 113 q 322 225 322 181 l 322 428 z "},"7":{"ha":357,"x_min":50,"x_max":390,"o":"m 390 972 q 389 927 390 953 q 385 871 388 901 l 192 -78 l 86 -75 l 278 846 l 50 856 l 56 985 l 390 972 z "},"8":{"ha":417,"x_min":40,"x_max":397,"o":"m 397 331 q 221 43 397 43 q 40 357 40 43 q 129 611 40 539 q 50 856 50 679 q 214 1114 50 1114 q 379 844 379 1114 q 304 611 379 682 q 397 331 397 551 m 281 840 q 214 1010 281 1010 q 147 853 147 1010 q 218 681 147 681 q 281 840 281 681 m 293 351 q 219 538 293 538 q 144 368 144 538 q 224 168 144 168 q 293 351 293 168 z "},"9":{"ha":444,"x_min":11,"x_max":411,"o":"m 410 236 q 411 208 411 221 q 411 185 411 196 q 363 10 411 72 q 226 -53 315 -53 q 90 17 140 -53 q 40 249 40 88 l 149 253 q 154 164 150 199 q 168 109 158 129 q 192 82 178 89 q 228 75 207 75 q 284 102 264 75 q 304 167 304 129 l 289 488 q 175 407 233 407 q 11 758 11 407 q 199 1050 11 1050 q 385 776 372 1050 l 410 236 m 275 817 q 194 921 271 921 q 124 811 124 921 q 124 756 124 779 q 126 715 125 733 q 128 683 126 697 q 131 653 129 668 q 155 553 138 585 q 206 521 172 521 q 251 542 233 521 q 285 599 269 563 l 275 817 z "}," ":{"ha":278,"x_min":0,"x_max":0,"o":""},"!":{"ha":282,"x_min":-24,"x_max":278,"o":"m 181 254 l 67 251 l 40 1033 l 154 1038 l 181 254 m 278 156 l 132 0 l -24 144 l 69 147 l 68 192 l 182 194 l 183 151 l 278 156 z "},"\"":{"ha":383,"x_min":32,"x_max":340,"o":"m 340 1122 q 318 1037 329 1081 q 294 946 307 993 l 256 946 l 229 1058 q 224 1081 226 1067 q 218 1114 221 1094 l 217 1272 l 340 1268 l 340 1122 m 156 1117 l 110 939 l 69 939 l 44 1051 q 39 1074 42 1060 q 33 1108 36 1089 l 32 1268 l 156 1268 l 156 1117 z "},"#":{"ha":863,"x_min":53,"x_max":863,"o":"m 863 688 l 833 585 l 664 585 l 606 381 l 785 381 l 756 278 l 576 278 l 486 -37 l 394 -37 l 485 278 l 319 278 l 228 -37 l 138 -37 l 226 278 l 53 278 l 83 381 l 254 381 l 314 585 l 131 585 l 160 688 l 344 688 l 433 1006 l 525 1006 l 436 688 l 600 688 l 690 1006 l 782 1006 l 693 688 l 863 688 m 574 585 l 406 585 l 347 379 l 514 379 l 574 585 z "},"$":{"ha":440,"x_min":36,"x_max":429,"o":"m 429 260 q 385 80 429 153 q 264 -7 342 7 l 268 -131 l 215 -132 l 214 -8 q 46 132 90 17 l 117 217 q 210 114 143 150 l 200 486 q 36 807 36 625 q 76 974 36 903 q 185 1067 117 1044 l 182 1192 l 235 1193 l 238 1068 q 382 964 324 1053 l 321 882 q 242 949 293 932 l 250 610 q 334 524 300 565 q 389 442 368 483 q 419 356 410 400 q 429 260 429 311 m 189 947 q 132 824 132 901 q 197 653 132 735 l 189 947 m 329 264 q 253 446 329 369 l 261 115 q 329 264 329 146 z "},"%":{"ha":576,"x_min":21,"x_max":575,"o":"m 261 651 q 142 472 261 472 q 21 654 21 472 l 21 843 q 55 963 21 914 q 144 1011 89 1011 q 230 963 199 1011 q 261 842 261 915 l 261 651 m 531 1017 l 160 -11 l 78 -11 l 447 1017 l 531 1017 m 575 132 q 454 -49 575 -49 q 336 136 336 -49 l 336 324 q 460 488 336 488 q 575 321 575 488 l 575 132 m 186 867 q 142 932 186 932 q 94 867 94 932 l 94 654 q 144 575 94 575 q 186 654 186 575 l 186 867 m 506 344 q 460 411 506 411 q 414 346 414 411 l 414 104 q 426 48 414 72 q 460 24 438 24 q 492 48 479 24 q 506 104 506 72 l 506 344 z "},"&":{"ha":493,"x_min":33,"x_max":481,"o":"m 481 -1 q 351 88 415 4 q 206 -10 289 -10 q 136 9 168 -10 q 81 60 104 28 q 46 136 58 93 q 33 228 33 179 q 129 524 33 367 q 64 829 64 699 q 75 924 64 881 q 106 1000 86 968 q 152 1050 125 1032 q 211 1068 179 1068 q 270 1051 243 1068 q 316 1004 297 1033 q 345 935 335 975 q 356 850 356 896 q 351 781 356 811 q 335 715 347 750 q 300 635 322 681 q 242 522 278 590 q 285 417 260 471 q 344 303 311 363 q 374 413 363 351 q 390 550 386 475 l 481 522 q 411 203 472 346 q 479 136 443 154 l 481 -1 m 268 864 q 249 946 268 915 q 210 976 231 976 q 149 844 149 976 q 199 628 149 749 q 268 864 268 764 m 286 190 q 175 407 239 257 q 133 249 133 317 q 156 167 133 201 q 214 133 178 133 q 286 190 258 133 z "},"'":{"ha":164,"x_min":24,"x_max":147,"o":"m 147 1107 q 117 1022 132 1067 q 85 931 101 978 l 44 931 l 69 1099 l 24 1099 l 24 1260 l 146 1260 l 147 1107 z "},"(":{"ha":299,"x_min":50,"x_max":303,"o":"m 236 -112 q 50 563 50 211 q 164 1089 50 835 l 254 1093 q 150 571 150 844 q 303 -58 150 232 l 236 -112 z "},")":{"ha":260,"x_min":28,"x_max":260,"o":"m 260 496 q 94 -142 260 164 l 28 -90 q 158 494 158 181 q 35 1060 158 792 l 128 1060 q 260 496 260 789 z "},"*":{"ha":721,"x_min":46,"x_max":675,"o":"m 675 650 l 414 633 l 615 467 l 456 350 l 360 593 l 263 350 l 106 467 l 306 633 l 46 650 l 106 835 l 328 696 l 263 949 l 456 949 l 393 696 l 615 835 l 675 650 z "},"+":{"ha":342,"x_min":21,"x_max":342,"o":"m 342 372 l 224 372 l 224 197 l 142 197 l 142 372 l 21 372 l 21 471 l 142 471 l 142 644 l 224 644 l 224 471 l 342 471 l 342 372 z "},",":{"ha":190,"x_min":58,"x_max":182,"o":"m 182 3 q 151 -81 167 -37 q 119 -174 136 -125 l 81 -174 l 104 -6 l 58 -6 l 58 154 l 181 156 q 181 88 181 117 q 182 42 182 60 l 182 3 z "},"-":{"ha":314,"x_min":51,"x_max":311,"o":"m 311 344 l 51 344 l 51 433 l 311 433 l 311 344 z "},".":{"ha":192,"x_min":75,"x_max":182,"o":"m 182 14 l 75 11 l 75 156 l 182 156 l 182 14 z "},"/":{"ha":379,"x_min":-29,"x_max":379,"o":"m 379 1082 l 44 -104 l -29 -104 l 304 1082 l 379 1082 z "},":":{"ha":182,"x_min":60,"x_max":182,"o":"m 171 314 l 64 311 l 60 453 l 165 456 l 171 314 m 182 18 l 76 14 l 71 157 l 176 160 l 182 18 z "},";":{"ha":182,"x_min":72,"x_max":189,"o":"m 189 400 l 189 258 l 86 261 l 86 403 l 189 400 m 185 104 l 181 -46 q 149 -128 167 -85 q 113 -224 132 -172 l 72 -221 l 121 -36 l 75 -35 l 79 107 l 185 104 z "},"<":{"ha":667,"x_min":-14,"x_max":664,"o":"m 664 89 l -10 415 l -14 515 l 644 876 l 647 765 l 97 468 l 661 199 l 664 89 z "},"=":{"ha":299,"x_min":42,"x_max":306,"o":"m 306 594 l 306 499 l 46 499 l 46 599 l 306 594 m 303 294 l 303 200 l 42 200 l 42 294 l 303 294 z "},">":{"ha":667,"x_min":-32,"x_max":651,"o":"m 651 468 l -3 103 l -7 211 l 540 514 l -26 778 l -32 889 l 647 568 l 651 468 z "},"?":{"ha":350,"x_min":-37,"x_max":304,"o":"m 289 869 q 258 721 289 804 q 192 354 192 538 q 192 300 192 329 q 194 243 192 271 l 99 238 q 97 266 97 246 q 96 313 96 286 q 101 489 96 410 q 124 629 107 568 q 140 682 129 650 q 163 749 151 714 q 182 815 174 783 q 190 868 190 847 q 174 924 190 897 q 131 950 158 950 q 50 836 81 950 l -37 876 q 129 1069 -3 1069 q 245 1016 201 1069 q 289 869 289 963 m 304 142 l 164 -18 l 6 124 l 97 129 l 94 172 l 208 179 l 211 136 l 304 142 z "},"@":{"ha":646,"x_min":8,"x_max":668,"o":"m 668 628 q 652 513 668 569 q 609 412 636 456 q 544 341 582 368 q 464 314 507 314 q 379 363 394 314 q 285 315 344 315 q 164 486 164 315 q 177 583 164 535 q 214 671 190 632 q 269 734 238 710 q 340 758 301 758 q 421 714 393 758 l 433 738 l 514 738 l 460 451 q 458 432 458 447 q 476 406 458 406 q 521 427 501 406 q 554 482 540 449 q 575 554 568 515 q 582 626 582 593 q 567 729 582 682 q 524 810 551 776 q 457 862 496 843 q 371 881 418 881 q 256 851 307 881 q 169 770 206 821 q 114 653 133 719 q 94 515 94 588 q 112 396 94 451 q 160 299 129 340 q 236 233 192 257 q 336 210 281 210 q 551 307 446 210 l 589 235 q 332 114 469 114 q 199 149 258 114 q 97 240 140 183 q 31 369 54 296 q 8 519 8 442 q 39 710 8 625 q 121 853 69 794 q 237 944 172 913 q 371 975 301 975 q 490 948 435 975 q 584 874 544 921 q 646 763 624 826 q 668 628 668 700 m 394 599 q 350 672 394 672 q 314 657 331 672 q 285 617 297 642 q 265 560 272 592 q 258 494 258 528 q 301 393 258 393 q 335 414 318 393 q 365 465 351 435 q 386 532 378 496 q 394 599 394 568 z "},"A":{"ha":456,"x_min":19,"x_max":458,"o":"m 458 46 l 342 46 l 310 304 l 163 310 l 129 85 l 19 85 l 182 1106 l 336 1106 l 458 46 m 299 432 l 256 894 l 181 435 l 299 432 z "},"B":{"ha":510,"x_min":75,"x_max":464,"o":"m 464 738 q 360 481 464 572 q 463 238 463 403 q 264 -40 463 -40 q 215 -39 261 -40 q 75 -35 168 -37 l 103 992 q 360 963 304 989 q 464 738 464 914 m 350 717 q 342 797 350 768 q 316 838 333 825 q 272 854 299 851 q 208 860 244 857 l 201 551 l 211 551 q 226 550 221 551 l 251 550 q 350 717 350 550 m 347 269 q 340 343 347 314 q 317 390 333 372 q 271 415 300 408 q 197 424 242 422 l 189 90 l 208 90 q 278 96 251 90 q 321 120 306 101 q 342 174 336 139 q 347 269 347 210 z "},"C":{"ha":450,"x_min":40,"x_max":432,"o":"m 432 346 q 243 17 432 17 q 104 85 153 17 q 53 293 56 154 l 40 844 q 89 1024 40 958 q 233 1089 138 1089 q 301 1076 269 1089 q 358 1033 333 1064 q 396 953 382 1003 q 410 829 410 904 q 410 764 410 789 q 407 717 410 739 l 293 714 q 296 759 294 732 q 297 821 297 786 q 226 967 297 967 q 151 853 151 967 l 169 258 q 193 165 172 192 q 246 139 214 139 q 322 301 322 139 q 322 382 322 357 q 318 424 321 407 l 429 426 q 431 397 431 413 q 432 346 432 381 z "},"D":{"ha":475,"x_min":68,"x_max":450,"o":"m 450 243 q 437 108 450 161 q 394 22 424 54 q 317 -22 365 -10 q 199 -35 269 -35 l 174 -35 q 158 -35 167 -35 q 138 -33 149 -35 l 68 -33 l 68 994 l 243 997 q 446 721 444 997 q 449 373 447 492 q 450 243 450 254 m 331 729 q 323 794 331 768 q 299 836 315 821 q 256 858 283 851 q 189 864 229 864 l 185 864 l 185 101 l 235 101 q 315 126 292 101 q 336 224 338 151 l 331 729 z "},"E":{"ha":383,"x_min":38,"x_max":379,"o":"m 379 46 l 75 36 l 38 1063 l 329 1075 l 332 943 l 156 938 l 165 642 l 315 646 l 319 515 l 171 511 l 182 175 l 375 182 l 379 46 z "},"F":{"ha":365,"x_min":54,"x_max":347,"o":"m 347 869 l 168 869 l 175 574 l 325 574 l 329 442 l 179 442 l 189 -29 l 76 -32 l 54 994 l 347 1001 l 347 869 z "},"G":{"ha":447,"x_min":60,"x_max":433,"o":"m 433 10 l 346 10 l 340 83 q 214 -8 296 -8 q 147 12 176 -8 q 99 69 118 32 q 69 157 79 106 q 60 269 60 208 l 60 808 q 110 992 60 924 q 254 1061 161 1061 q 380 1004 338 1061 q 422 826 422 947 q 421 747 422 778 q 417 688 419 717 l 313 688 q 317 736 315 706 q 319 815 319 767 q 250 938 319 938 q 174 818 174 938 l 174 232 q 250 111 174 111 q 325 232 325 111 l 325 407 l 249 407 l 249 519 l 433 519 l 433 10 z "},"H":{"ha":469,"x_min":76,"x_max":471,"o":"m 471 997 l 446 0 l 333 0 l 346 472 l 199 476 l 186 36 l 76 40 l 103 1035 l 214 1035 l 201 606 l 350 601 l 360 1000 l 471 997 z "},"I":{"ha":293,"x_min":17,"x_max":317,"o":"m 317 999 l 225 999 l 225 957 l 111 957 l 111 1001 l 17 1001 l 168 1149 l 317 999 m 224 896 l 221 778 l 107 778 l 110 897 l 224 896 m 219 717 l 219 600 l 107 600 l 107 719 l 219 717 m 217 539 l 217 421 l 104 421 l 104 540 l 217 539 m 215 360 l 215 243 l 103 243 l 103 363 l 215 360 m 214 172 l 211 85 l 99 85 l 99 172 l 214 172 z "},"J":{"ha":481,"x_min":-42,"x_max":438,"o":"m 438 258 q 392 63 438 128 q 249 -3 347 -3 q 160 14 196 -3 q 103 70 125 31 q 69 175 81 110 q 54 336 58 240 l 168 340 l 168 276 q 253 119 168 119 q 324 221 324 119 l 297 1064 l 410 1054 q 422 733 417 924 q 436 285 428 543 l 438 258 m 258 438 l 165 435 l 167 392 l 53 386 l 51 432 l -42 428 l 103 583 l 258 438 z "},"K":{"ha":476,"x_min":40,"x_max":476,"o":"m 360 1 q 303 122 321 51 q 275 268 285 193 q 257 416 265 343 q 228 546 249 489 l 174 394 l 186 25 l 75 21 l 40 1047 l 150 1053 l 167 613 l 313 1028 l 421 1032 l 294 681 q 340 526 325 615 q 368 344 354 438 q 405 160 382 250 q 476 6 428 71 l 360 1 z "},"L":{"ha":386,"x_min":81,"x_max":389,"o":"m 389 190 l 389 63 l 81 63 l 81 1090 l 188 1096 l 186 190 l 389 190 z "},"M":{"ha":618,"x_min":78,"x_max":593,"o":"m 593 1061 l 593 33 l 490 33 l 490 750 l 357 33 l 307 33 l 179 751 l 179 63 l 78 63 l 78 1061 l 233 1061 l 333 407 l 436 1061 l 593 1061 z "},"N":{"ha":494,"x_min":75,"x_max":496,"o":"m 496 951 l 469 -46 l 364 -43 l 197 603 l 193 601 l 176 -53 l 75 -50 l 103 990 l 203 990 l 372 299 l 392 956 l 496 951 z "},"O":{"ha":463,"x_min":68,"x_max":463,"o":"m 450 306 q 397 102 447 169 q 256 35 347 35 q 113 101 157 35 q 68 301 68 167 l 83 858 q 137 1042 86 976 q 278 1107 188 1107 q 355 1090 321 1107 q 413 1041 389 1072 q 450 967 438 1010 q 463 874 463 925 l 463 843 l 450 306 m 349 868 q 328 955 349 919 q 275 990 307 990 q 221 957 243 990 q 197 864 199 924 l 182 263 q 202 185 182 219 q 254 150 222 150 q 310 185 288 150 q 332 275 332 219 l 349 868 z "},"P":{"ha":450,"x_min":38,"x_max":424,"o":"m 424 765 q 297 476 424 507 q 171 467 281 471 l 185 40 l 74 33 l 38 1063 q 179 1068 133 1067 q 228 1069 225 1069 q 424 765 424 1069 m 310 742 q 303 847 310 808 q 283 906 297 886 q 244 933 268 926 q 183 939 219 939 l 168 939 q 154 938 160 939 l 165 594 q 171 594 168 594 q 178 593 174 593 q 233 598 208 593 q 274 618 257 603 q 301 663 292 633 q 310 742 310 693 z "},"Q":{"ha":463,"x_min":43,"x_max":435,"o":"m 435 261 q 333 15 435 71 q 414 -68 363 -33 l 347 -129 q 238 -7 272 -99 q 54 271 61 -1 q 46 681 49 546 q 43 819 43 817 q 94 1000 43 933 q 236 1067 144 1067 q 370 1000 322 1067 q 424 811 418 933 q 432 401 429 538 q 435 261 435 264 m 321 238 l 310 825 q 283 916 304 883 q 232 949 261 949 q 176 912 196 949 q 157 826 157 875 l 168 235 q 194 142 174 174 q 246 110 214 110 q 301 147 282 110 q 321 233 321 185 l 321 238 z "},"R":{"ha":481,"x_min":38,"x_max":479,"o":"m 364 40 q 325 85 336 60 q 307 150 314 110 q 303 185 304 163 q 302 237 303 208 q 299 297 301 265 q 293 360 297 329 q 276 435 288 400 q 246 490 265 471 l 168 489 l 185 60 l 72 53 l 38 1071 q 163 1076 121 1074 q 203 1078 204 1078 q 301 1063 260 1078 q 369 1010 343 1047 q 408 910 396 972 q 421 757 421 849 q 401 622 421 681 q 338 538 381 564 q 378 466 364 510 q 397 371 392 422 q 404 279 401 326 q 413 188 407 232 q 435 106 419 144 q 479 43 450 68 l 364 40 m 307 763 q 301 860 307 824 q 282 915 296 896 q 244 940 268 935 q 186 946 221 946 l 154 946 l 165 618 q 222 621 196 618 q 267 638 249 624 q 297 681 286 651 q 307 763 307 710 z "},"S":{"ha":435,"x_min":35,"x_max":433,"o":"m 433 238 q 419 138 433 185 q 378 58 404 92 q 317 4 353 24 q 240 -15 282 -15 q 156 8 194 -15 q 91 70 118 31 q 49 163 64 110 q 35 276 35 215 l 142 278 q 170 158 144 196 q 236 121 196 121 q 278 131 261 121 q 306 157 296 140 q 321 194 317 174 q 325 235 325 214 q 324 265 325 251 q 317 295 322 279 q 301 331 311 311 q 274 381 290 351 q 199 483 242 432 q 121 585 156 535 q 67 694 85 638 q 49 806 49 751 q 97 988 49 924 q 224 1053 144 1053 q 288 1042 257 1053 q 344 1008 319 1032 q 383 944 368 983 q 399 847 399 906 q 398 819 399 833 q 396 790 397 806 l 283 799 q 286 828 286 814 q 286 853 286 842 q 236 928 286 928 q 158 819 158 928 q 172 740 158 779 q 229 640 185 700 q 296 553 261 596 q 363 467 331 511 q 417 355 400 413 q 433 238 433 297 z "},"T":{"ha":428,"x_min":32,"x_max":422,"o":"m 422 983 l 278 983 l 278 301 l 165 301 l 165 983 l 32 983 l 32 1114 l 419 1114 l 422 983 m 372 197 l 221 49 l 71 197 l 164 197 l 164 242 l 278 242 l 278 197 l 372 197 z "},"U":{"ha":471,"x_min":71,"x_max":472,"o":"m 472 982 l 453 208 q 261 -62 446 -62 q 117 4 163 -62 q 71 206 71 71 l 93 990 l 206 985 l 185 182 q 202 102 183 133 q 261 71 221 71 q 338 183 333 71 l 365 988 l 472 982 z "},"V":{"ha":436,"x_min":28,"x_max":442,"o":"m 442 1054 l 290 33 l 171 33 l 28 1061 l 136 1065 l 235 271 l 332 1063 l 442 1054 z "},"W":{"ha":638,"x_min":8,"x_max":626,"o":"m 626 1097 l 507 67 l 414 67 l 324 783 l 240 67 l 143 64 l 8 1107 l 118 1114 l 197 360 l 269 1064 l 365 1064 l 460 363 l 522 1097 l 626 1097 z "},"X":{"ha":436,"x_min":3,"x_max":435,"o":"m 435 -8 l 319 -8 l 225 332 l 124 -11 l 10 -11 l 156 513 l 3 1018 l 119 1018 l 214 710 l 314 1050 l 428 1050 l 275 528 l 435 -8 z "},"Y":{"ha":410,"x_min":-14,"x_max":383,"o":"m 383 1050 l 250 444 l 261 18 l 149 15 l 139 421 l -14 1026 l 94 1033 l 194 625 l 269 1046 l 383 1050 z "},"Z":{"ha":410,"x_min":49,"x_max":414,"o":"m 414 1033 l 414 894 l 164 146 l 401 146 l 401 10 l 49 10 l 49 158 l 294 897 l 107 897 l 94 1033 l 414 1033 z "},"[":{"ha":285,"x_min":90,"x_max":279,"o":"m 279 -168 l 90 -168 l 90 1015 l 279 1015 l 279 904 l 190 904 l 190 -56 l 279 -56 l 279 -168 z "},"\\":{"ha":367,"x_min":-79,"x_max":371,"o":"m 371 -114 l 294 -117 l -79 1058 l -3 1061 l 371 -114 z "},"]":{"ha":261,"x_min":14,"x_max":240,"o":"m 240 -115 l 54 -122 l 50 -10 l 139 -7 l 106 951 l 17 949 l 14 1061 l 199 1068 l 240 -115 z "},"^":{"ha":668,"x_min":-35,"x_max":626,"o":"m 626 703 l 501 696 l 279 975 l 90 671 l -35 663 l 214 1064 l 332 1071 l 626 703 z "},"_":{"ha":579,"x_min":0,"x_max":579,"o":"m 579 -340 l 0 -340 l 0 -236 l 579 -236 l 579 -340 z "},"`":{"ha":250,"x_min":40,"x_max":208,"o":"m 40 1247 l 150 1247 l 208 1107 l 129 1107 l 40 1247 z "},"a":{"ha":456,"x_min":21,"x_max":458,"o":"m 458 38 l 344 42 l 313 301 l 167 306 l 131 81 l 21 85 l 197 1106 l 350 1101 l 458 38 m 304 428 l 268 890 l 185 433 l 304 428 z "},"b":{"ha":471,"x_min":42,"x_max":449,"o":"m 418 778 q 419 762 418 769 q 419 747 419 754 q 331 517 419 606 q 449 239 449 433 q 267 -10 449 1 q 218 -12 264 -10 q 76 -17 172 -14 l 42 1011 q 126 1014 94 1013 q 168 1015 157 1015 q 282 1002 236 1015 q 357 961 328 989 q 400 888 386 933 q 418 778 414 842 m 306 751 q 276 860 301 832 q 203 888 251 888 q 183 887 194 888 q 156 886 171 886 l 167 579 l 218 579 q 307 721 307 586 q 306 735 307 728 q 306 751 306 743 m 331 304 q 318 381 326 353 q 292 424 310 410 q 245 443 274 439 q 171 447 217 447 l 182 117 l 201 117 q 306 151 279 122 q 332 243 332 179 l 332 269 q 332 285 332 276 q 331 304 332 294 z "},"c":{"ha":450,"x_min":32,"x_max":428,"o":"m 428 350 q 243 19 428 19 q 103 87 151 19 q 50 294 54 154 l 32 844 q 42 942 32 897 q 76 1020 53 988 q 135 1072 99 1053 q 224 1093 172 1090 q 291 1081 258 1093 q 348 1038 324 1068 q 387 958 372 1008 q 401 835 401 908 l 401 721 l 286 715 q 288 761 289 735 q 289 824 286 788 q 217 968 286 968 q 163 939 179 968 q 146 853 146 910 l 146 850 q 150 721 146 835 l 165 260 q 242 142 169 142 q 300 179 281 142 q 319 296 319 217 q 317 349 319 317 q 311 426 314 381 l 426 429 q 428 415 428 422 q 428 397 428 407 l 428 350 z "},"d":{"ha":475,"x_min":43,"x_max":444,"o":"m 444 218 l 444 194 q 432 69 444 118 q 390 -10 419 19 q 315 -51 361 -39 q 200 -67 268 -64 l 149 -67 q 116 -67 133 -67 q 78 -68 99 -67 l 43 958 l 218 965 q 371 901 319 965 q 428 694 422 836 l 444 218 m 314 699 q 304 765 313 739 q 278 806 296 790 q 234 826 261 821 q 168 832 207 832 l 158 832 l 183 68 l 233 69 q 311 96 292 71 q 331 182 331 121 l 331 194 l 314 699 z "},"e":{"ha":383,"x_min":68,"x_max":382,"o":"m 382 79 l 68 79 l 68 1108 l 358 1108 l 358 978 l 183 978 l 183 682 l 333 682 l 333 550 l 186 550 l 186 217 l 382 217 l 382 79 z "},"f":{"ha":365,"x_min":56,"x_max":349,"o":"m 349 947 l 176 943 l 176 647 l 325 647 l 329 519 l 179 515 l 189 43 l 78 43 l 56 1069 l 346 1076 l 349 947 z "},"g":{"ha":447,"x_min":65,"x_max":444,"o":"m 432 -60 l 346 -60 l 340 15 q 218 -72 296 -72 q 106 -8 147 -72 q 65 179 65 56 q 66 194 65 186 q 67 208 67 201 l 79 747 q 94 845 81 800 q 131 924 107 890 q 190 976 156 957 q 271 994 225 994 q 398 935 356 994 q 440 751 440 876 q 438 703 440 735 q 435 618 436 671 l 328 619 q 333 673 331 642 q 339 747 336 704 q 324 840 339 808 q 272 871 308 871 q 214 844 233 871 q 193 754 194 817 l 179 167 q 196 76 179 107 q 251 44 213 44 q 310 73 290 44 q 331 164 329 101 l 333 340 l 256 340 l 260 453 l 444 447 l 432 -60 z "},"h":{"ha":469,"x_min":38,"x_max":442,"o":"m 408 1076 l 442 78 l 331 75 l 314 544 l 167 539 l 182 99 l 71 96 l 38 1093 l 147 1097 l 163 668 l 310 672 l 296 1072 l 408 1076 z "},"i":{"ha":293,"x_min":-17,"x_max":285,"o":"m -17 111 l 76 111 l 76 154 l 190 157 l 190 115 l 285 115 l 138 -37 l -17 111 m 75 215 l 71 332 l 185 336 l 189 217 l 75 215 m 71 393 l 68 511 l 182 514 l 185 394 l 71 393 m 67 572 l 64 689 l 181 693 l 181 574 l 67 572 m 61 750 l 61 868 l 176 871 l 176 751 l 61 750 m 58 939 l 58 1026 l 174 1029 l 174 939 l 58 939 z "},"j":{"ha":472,"x_min":-17,"x_max":463,"o":"m 463 161 q 272 -85 463 -85 q 188 -68 222 -85 q 130 -12 153 -51 q 95 92 107 28 q 79 254 83 157 l 194 258 l 194 226 q 193 216 193 221 q 193 207 193 211 l 193 194 q 279 38 193 38 q 350 139 350 38 l 350 163 q 339 503 346 301 q 324 983 332 706 l 435 972 q 448 652 442 842 q 463 203 454 463 l 463 161 m 285 357 l 192 354 l 193 311 l 79 306 l 78 349 l -17 346 l 129 501 l 285 357 z "},"k":{"ha":476,"x_min":56,"x_max":478,"o":"m 360 49 q 305 174 321 103 q 281 319 289 244 q 265 467 272 394 q 236 593 257 539 l 181 444 l 189 75 l 76 72 l 56 1099 l 167 1103 l 176 663 l 329 1078 l 436 1078 l 304 729 q 334 636 322 690 q 354 521 346 582 q 371 394 363 460 q 392 267 379 329 q 426 148 406 204 q 478 50 446 92 l 360 49 z "},"l":{"ha":386,"x_min":81,"x_max":386,"o":"m 386 146 l 386 18 l 81 18 l 81 1046 l 186 1047 l 186 146 l 386 146 z "},"m":{"ha":618,"x_min":90,"x_max":593,"o":"m 593 1024 l 593 -6 l 501 -3 l 501 714 l 357 -1 l 307 -1 l 179 719 l 179 33 l 90 33 l 90 1028 l 249 1028 l 340 372 l 450 1024 l 593 1024 z "},"n":{"ha":494,"x_min":69,"x_max":472,"o":"m 472 910 l 472 -89 l 367 -89 l 181 544 l 181 -107 l 69 -107 l 69 938 l 171 938 l 360 251 l 360 910 l 472 910 z "},"o":{"ha":463,"x_min":63,"x_max":446,"o":"m 446 801 l 443 263 q 258 -14 442 -7 q 63 250 64 -14 l 67 807 q 116 990 68 925 q 254 1060 164 1056 q 392 997 342 1060 q 446 813 443 933 l 446 801 m 331 824 q 308 910 331 876 q 254 943 286 943 q 200 906 219 943 q 181 817 181 868 l 176 224 q 199 137 176 171 q 253 103 222 103 q 306 140 289 103 q 329 229 324 176 l 331 824 z "},"p":{"ha":450,"x_min":38,"x_max":425,"o":"m 425 728 q 393 526 425 597 q 299 438 361 456 q 172 429 281 432 l 186 6 l 74 0 l 38 1026 q 180 1031 133 1029 q 229 1033 226 1033 q 425 728 425 1033 m 311 706 q 290 861 311 817 q 215 906 269 906 q 156 901 194 906 l 167 557 q 226 560 200 557 q 272 579 253 564 q 301 624 290 594 q 311 706 311 653 z "},"q":{"ha":463,"x_min":60,"x_max":443,"o":"m 440 206 q 332 -37 433 14 q 410 -122 356 -83 l 340 -182 q 235 -56 264 -147 q 60 213 60 -46 q 60 444 60 304 q 63 774 60 583 q 117 951 64 886 q 257 1015 169 1015 q 361 984 324 1015 q 417 897 399 953 q 439 765 435 842 q 443 596 443 688 q 443 420 443 517 q 440 206 443 324 m 325 185 l 328 781 q 322 823 328 801 q 308 861 317 844 q 285 888 299 878 q 254 899 271 899 q 199 867 222 899 q 176 778 176 835 l 174 186 q 178 140 174 163 q 193 99 183 117 q 217 69 203 81 q 249 58 231 58 q 301 92 279 58 q 325 181 322 125 l 325 185 z "},"r":{"ha":432,"x_min":10,"x_max":478,"o":"m 363 93 q 324 139 339 118 q 301 189 310 160 q 290 262 293 218 q 286 376 288 306 q 233 542 283 492 l 156 538 l 181 108 l 69 104 l 10 1115 q 81 1124 36 1119 q 183 1128 125 1128 q 277 1113 238 1128 q 343 1060 317 1097 q 384 963 369 1024 q 401 813 399 903 q 332 589 401 658 q 389 442 378 546 l 399 258 q 478 99 415 151 l 363 93 m 288 813 q 279 911 286 875 q 258 966 272 947 q 219 990 243 985 q 163 994 196 994 q 142 994 150 994 q 129 993 133 993 l 149 667 q 206 670 181 667 q 250 688 232 674 q 278 732 268 703 q 288 813 288 761 z "},"s":{"ha":435,"x_min":4,"x_max":421,"o":"m 421 308 q 372 114 421 182 q 232 46 324 46 q 150 67 188 46 q 85 126 113 89 q 40 215 57 164 q 21 325 24 267 l 128 333 q 160 218 135 254 q 224 182 186 182 q 294 215 275 182 q 313 289 313 247 q 310 322 313 307 q 302 354 308 338 q 284 392 296 371 q 253 443 272 414 q 172 540 219 492 q 89 638 125 589 q 24 758 44 696 q 4 881 4 819 q 51 1052 4 993 q 181 1111 99 1111 q 242 1101 211 1111 q 297 1067 272 1090 q 338 1007 322 1044 q 353 915 353 969 q 353 888 353 901 q 351 858 353 875 l 240 861 q 231 956 240 925 q 189 988 222 988 q 114 890 114 988 q 117 846 114 867 q 128 803 119 825 q 152 756 136 781 q 194 700 168 731 q 267 617 229 657 q 338 533 304 576 q 421 308 421 426 z "},"t":{"ha":399,"x_min":-6,"x_max":386,"o":"m 386 956 l 244 950 l 268 267 l 157 261 l 133 943 l -1 940 l -6 1069 l 381 1081 l 386 956 m 365 165 l 221 10 l 67 156 l 158 158 l 157 201 l 269 206 l 272 163 l 365 165 z "},"u":{"ha":471,"x_min":68,"x_max":453,"o":"m 453 1081 l 447 307 q 400 101 446 171 q 263 32 354 32 q 117 96 165 32 q 68 294 68 160 l 71 1082 l 186 1082 l 182 275 q 203 199 182 232 q 257 165 224 165 q 333 279 333 165 l 339 1083 l 453 1081 z "},"v":{"ha":436,"x_min":6,"x_max":418,"o":"m 418 1018 l 293 -15 l 172 -15 l 6 1011 l 111 1018 l 229 225 l 311 1015 l 418 1018 z "},"w":{"ha":638,"x_min":8,"x_max":626,"o":"m 626 1036 l 507 7 l 414 7 l 324 732 l 240 6 l 147 6 l 8 1047 l 113 1047 l 197 296 l 269 1006 l 365 1006 l 460 299 l 522 1036 l 626 1036 z "},"x":{"ha":436,"x_min":-7,"x_max":436,"o":"m 436 69 l 321 69 l 221 410 l 125 67 l 11 63 l 151 589 l -7 1090 l 110 1093 l 207 785 l 304 1129 l 417 1129 l 269 606 l 436 69 z "},"y":{"ha":410,"x_min":-14,"x_max":383,"o":"m 383 1101 l 250 496 l 261 72 l 149 68 l 139 475 l -14 1076 l 97 1083 l 194 676 l 269 1097 l 383 1101 z "},"z":{"ha":410,"x_min":43,"x_max":401,"o":"m 382 1010 l 382 871 l 158 117 l 401 122 l 401 -25 l 43 -25 l 43 124 l 264 868 l 76 864 l 58 1003 l 382 1010 z "},"{":{"ha":499,"x_min":79,"x_max":517,"o":"m 517 -304 q 478 -306 494 -306 q 450 -307 461 -307 q 371 -298 403 -307 q 317 -264 339 -289 q 285 -194 296 -239 q 268 -76 274 -149 l 256 103 q 242 197 251 160 q 215 256 232 233 q 170 286 197 278 q 106 294 143 294 l 86 294 l 79 400 q 196 442 164 403 q 228 568 228 481 q 225 631 228 590 q 219 717 222 672 q 214 801 217 761 q 211 860 211 840 q 220 943 211 910 q 254 997 229 976 q 323 1029 279 1018 q 436 1044 367 1040 l 443 938 q 379 928 404 935 q 340 906 354 922 q 322 860 326 890 q 317 783 317 831 q 319 733 317 767 q 324 661 321 699 q 328 590 326 624 q 331 539 331 556 q 300 422 331 463 q 194 351 269 381 q 292 308 258 336 q 340 235 325 281 q 358 126 356 190 q 364 -26 361 61 q 378 -121 369 -86 q 399 -174 386 -156 q 431 -197 413 -192 q 475 -201 450 -201 q 492 -201 482 -201 q 513 -199 501 -200 l 517 -304 z "},"|":{"ha":301,"x_min":81,"x_max":215,"o":"m 215 -336 l 132 -339 l 81 1125 l 165 1129 l 215 -336 z "},"}":{"ha":493,"x_min":97,"x_max":493,"o":"m 493 288 q 418 278 449 288 q 368 247 388 269 q 340 185 349 224 q 332 88 332 147 l 332 -93 q 322 -220 332 -172 q 286 -293 311 -268 q 220 -326 261 -318 q 117 -333 179 -333 l 97 -333 l 97 -229 l 119 -229 q 169 -224 149 -229 q 205 -199 190 -219 q 226 -140 219 -179 q 233 -33 233 -101 l 233 -6 q 234 6 233 0 q 235 21 235 13 q 233 56 235 35 q 232 89 232 76 l 232 113 q 240 206 232 168 q 265 270 247 244 q 310 312 282 296 q 381 340 339 328 q 309 369 338 353 q 263 410 281 385 q 239 473 246 435 q 232 568 232 511 l 232 593 q 232 608 232 600 q 233 626 232 617 l 233 686 q 227 813 233 768 q 206 880 221 858 q 164 906 190 901 q 97 910 138 910 l 97 1017 l 119 1017 q 219 1008 179 1017 q 285 974 260 1000 q 321 901 310 949 q 332 774 332 853 l 332 593 q 340 496 332 535 q 367 435 349 457 q 417 403 386 413 q 493 394 449 394 l 493 288 z "},"~":{"ha":524,"x_min":33,"x_max":482,"o":"m 33 464 q 115 500 65 500 q 171 490 136 500 q 242 469 206 481 q 314 449 279 458 q 369 439 349 439 q 482 519 435 439 l 482 396 q 383 347 442 347 q 326 357 360 347 q 256 379 292 367 q 188 401 221 392 q 132 411 154 411 q 33 344 72 411 l 33 464 z "}," ":{"ha":278,"x_min":0,"x_max":0,"o":"z "},"¡":{"ha":282,"x_min":-24,"x_max":278,"o":"m 75 783 l 189 786 l 215 6 l 101 0 l 75 783 m -24 882 l 122 1038 l 278 894 l 185 890 l 186 846 l 72 843 l 71 886 l -24 882 z "},"¢":{"ha":450,"x_min":29,"x_max":415,"o":"m 246 969 q 304 950 276 965 q 353 905 332 935 q 386 828 374 875 q 399 714 399 781 l 399 600 l 293 596 q 292 667 293 626 q 285 747 290 708 q 272 813 281 785 q 250 849 264 842 l 271 199 q 315 346 315 231 q 314 400 315 368 q 308 481 313 432 l 414 486 q 415 478 414 483 q 415 465 415 474 q 415 443 415 457 q 415 407 415 429 q 275 82 415 119 l 283 -114 l 200 -117 l 192 79 q 38 351 43 107 l 29 724 q 60 876 29 813 q 161 963 90 940 l 157 1083 l 242 1088 l 246 969 m 146 308 q 188 196 147 222 l 165 843 q 135 738 135 817 q 135 697 135 729 q 136 603 135 665 l 146 308 z "},"£":{"ha":450,"x_min":18,"x_max":417,"o":"m 347 496 l 157 496 l 157 183 l 411 183 l 417 56 l 18 56 l 18 186 l 44 186 l 40 844 q 88 1024 39 958 q 233 1089 138 1089 q 301 1076 269 1089 q 358 1033 333 1064 q 396 953 382 1003 q 410 829 410 904 l 410 808 q 410 793 410 801 q 408 774 410 785 l 408 717 l 293 714 q 294 736 293 722 q 295 766 294 750 q 297 797 296 782 q 297 821 297 811 q 226 967 297 967 q 151 853 150 967 l 154 585 l 347 585 l 347 496 z "},"¥":{"ha":410,"x_min":-14,"x_max":383,"o":"m 371 410 l 371 322 l 254 319 l 254 244 l 365 249 l 365 164 l 256 160 l 261 18 l 146 15 l 146 156 l 36 156 l 36 242 l 140 242 l 140 315 l 43 315 l 43 400 l 139 403 l 139 421 l -14 1026 l 99 1026 l 194 625 l 269 1046 l 383 1050 l 250 444 l 250 407 l 371 410 z "},"¦":{"ha":313,"x_min":86,"x_max":221,"o":"m 118 206 l 201 213 l 221 -336 l 138 -339 l 118 206 m 189 590 l 104 582 l 86 1125 l 171 1129 l 189 590 z "},"¨":{"ha":407,"x_min":51,"x_max":367,"o":"m 367 1106 l 260 1103 l 256 1244 l 361 1247 l 367 1106 m 163 1096 l 56 1093 l 51 1235 l 157 1238 l 163 1096 z "},"©":{"ha":890,"x_min":49,"x_max":833,"o":"m 442 835 q 268 822 329 835 q 178 770 207 810 q 145 657 150 731 q 140 463 140 583 q 145 272 140 344 q 178 160 150 200 q 268 108 207 121 q 442 94 329 94 q 612 108 551 94 q 701 160 672 121 q 736 271 731 199 q 742 463 742 343 q 737 649 742 576 q 703 763 732 721 q 614 819 675 804 q 442 835 553 835 m 442 932 q 589 927 526 932 q 694 906 651 922 q 765 860 738 890 q 807 778 792 829 q 828 651 822 726 q 833 468 833 575 q 828 284 833 361 q 807 154 822 207 q 764 70 792 101 q 692 22 736 39 q 583 -1 647 4 q 432 -7 519 -7 q 238 9 313 -7 q 121 75 163 25 q 64 218 79 125 q 49 464 49 311 q 64 711 49 618 q 122 853 79 804 q 242 917 165 901 q 442 932 318 932 m 522 567 q 488 578 503 575 q 456 581 472 581 q 441 577 447 581 q 431 562 435 574 q 424 526 426 550 q 421 463 421 503 q 424 400 421 422 q 431 366 426 378 q 442 351 436 354 q 456 349 449 349 q 491 350 475 349 q 522 360 507 351 l 522 264 q 489 256 507 260 q 451 253 471 253 q 406 258 428 253 q 367 283 383 263 q 340 347 350 304 q 329 463 329 389 q 338 574 329 532 q 361 637 346 615 q 397 665 376 658 q 442 671 418 671 q 522 660 500 671 l 522 567 z "},"ª":{"ha":292,"x_min":24,"x_max":279,"o":"m 279 289 l 199 289 l 182 426 l 115 429 l 99 310 l 24 310 l 114 874 l 210 874 l 279 289 m 174 513 l 157 685 l 129 514 l 174 513 z "},"«":{"ha":564,"x_min":38,"x_max":531,"o":"m 157 503 l 282 421 l 282 285 l 38 451 l 38 551 l 282 725 l 282 583 l 157 503 m 406 503 l 531 421 l 531 285 l 286 451 l 286 551 l 531 725 l 531 583 l 406 503 z "},"®":{"ha":636,"x_min":49,"x_max":583,"o":"m 315 867 q 199 858 240 867 q 140 824 158 850 q 117 747 121 797 q 114 613 114 697 q 118 478 114 528 q 142 402 122 428 q 203 369 163 376 q 315 363 243 363 q 428 372 388 363 q 488 407 468 381 q 511 483 507 433 q 515 613 515 532 q 511 739 515 689 q 488 817 507 789 q 428 856 468 844 q 315 867 388 867 m 315 932 q 458 922 404 932 q 539 880 511 913 q 575 785 567 847 q 583 617 583 722 q 575 447 583 510 q 539 349 567 383 q 458 303 511 314 q 317 293 406 293 q 181 303 233 293 q 99 346 129 313 q 59 443 69 379 q 49 615 49 507 q 60 785 49 722 q 100 880 71 847 q 181 922 129 913 q 315 932 233 932 m 281 661 l 324 661 q 356 703 356 661 q 324 742 356 742 l 281 742 l 281 661 m 281 433 l 214 433 l 214 810 l 324 810 q 395 782 374 810 q 417 703 417 754 q 403 631 417 653 q 364 600 389 610 q 376 569 371 593 q 388 519 382 546 q 402 467 394 492 q 418 433 410 442 l 349 433 q 335 465 340 442 q 324 513 329 488 q 312 562 318 539 q 296 593 306 585 l 281 593 l 281 433 z "},"¯":{"ha":332,"x_min":43,"x_max":288,"o":"m 43 1236 l 288 1236 l 288 1175 l 43 1175 l 43 1236 z "},"°":{"ha":443,"x_min":43,"x_max":399,"o":"m 224 844 q 197 836 211 844 q 173 813 183 828 q 156 780 163 799 q 149 740 149 761 q 173 666 149 697 q 224 635 197 635 q 270 666 250 635 q 290 740 290 697 q 285 780 290 761 q 270 813 279 799 q 249 836 261 828 q 224 844 236 844 m 218 524 q 151 540 182 524 q 95 586 119 557 q 57 653 71 615 q 43 736 43 692 q 57 817 43 779 q 95 884 71 856 q 151 929 119 913 q 218 946 182 946 q 294 930 260 946 q 351 886 328 914 q 386 820 374 858 q 399 736 399 782 q 384 653 399 692 q 345 586 369 615 q 288 540 321 557 q 218 524 256 524 z "},"±":{"ha":342,"x_min":13,"x_max":342,"o":"m 342 372 l 224 372 l 224 197 l 142 197 l 142 372 l 21 372 l 21 471 l 142 471 l 142 644 l 224 644 l 224 471 l 342 471 l 342 372 m 333 33 l 13 33 l 13 132 l 333 132 l 333 33 z "},"²":{"ha":275,"x_min":36,"x_max":244,"o":"m 244 539 l 38 533 l 36 618 q 81 709 57 658 q 126 811 106 760 q 159 910 146 863 q 172 992 172 958 q 140 1036 172 1036 q 114 1014 121 1036 q 107 940 107 992 l 107 919 l 36 919 l 36 933 q 61 1070 36 1025 q 143 1115 86 1115 q 216 1081 190 1115 q 242 979 242 1046 q 197 789 242 901 q 169 724 188 765 q 118 622 150 683 l 244 625 l 244 539 z "},"³":{"ha":275,"x_min":26,"x_max":239,"o":"m 239 601 q 140 443 239 443 q 33 635 43 443 l 106 638 q 139 528 107 528 q 168 592 168 528 q 165 656 168 632 q 153 692 161 679 q 133 708 146 704 q 101 711 121 711 l 97 781 q 140 800 125 783 q 154 869 154 817 q 124 954 154 954 q 97 899 97 954 q 97 876 97 885 q 100 856 97 867 l 29 851 q 27 869 28 858 q 26 897 26 881 q 53 1001 26 960 q 125 1042 79 1042 q 222 864 222 1042 q 188 753 222 790 q 226 699 214 733 q 239 601 239 665 z "},"´":{"ha":225,"x_min":29,"x_max":201,"o":"m 114 1111 l 29 1111 l 89 1253 l 201 1253 l 114 1111 z "},"·":{"ha":261,"x_min":36,"x_max":225,"o":"m 36 499 q 65 565 36 538 q 131 593 93 593 q 197 565 168 593 q 225 499 225 538 q 197 433 225 461 q 131 406 168 406 q 65 433 93 406 q 36 499 36 461 z "},"¸":{"ha":243,"x_min":58,"x_max":165,"o":"m 165 -106 l 111 -233 l 78 -233 l 97 -112 l 58 -112 l 58 -12 l 164 -11 l 165 -106 z "},"¹":{"ha":175,"x_min":3,"x_max":144,"o":"m 144 522 l 69 519 l 60 957 l 4 954 l 3 1015 q 79 1088 54 1039 l 132 1089 l 144 522 z "},"º":{"ha":296,"x_min":51,"x_max":279,"o":"m 272 436 q 160 283 269 283 q 77 321 103 283 q 51 433 51 358 l 60 733 q 91 837 63 800 q 172 874 119 874 q 251 837 222 874 q 279 742 279 800 l 279 725 l 272 436 m 201 739 q 192 783 201 771 q 171 796 183 796 q 147 782 157 796 q 136 736 138 768 l 128 413 q 137 374 126 388 q 160 360 147 360 q 192 419 190 360 l 201 739 z "},"»":{"ha":575,"x_min":46,"x_max":539,"o":"m 419 506 l 294 586 l 294 724 l 539 557 l 539 456 l 294 282 l 294 425 l 419 506 m 172 506 l 46 586 l 46 724 l 290 557 l 290 456 l 46 282 l 46 425 l 172 506 z "},"¼":{"ha":671,"x_min":68,"x_max":671,"o":"m 210 522 l 135 519 l 125 957 l 69 954 l 68 1015 q 144 1088 119 1039 l 197 1089 l 210 522 m 564 1017 l 193 -11 l 111 -11 l 481 1017 l 564 1017 m 671 185 l 621 183 l 625 49 l 554 43 l 549 182 l 432 176 l 429 254 l 533 611 l 607 614 l 618 261 l 668 263 l 671 185 m 546 260 l 540 414 l 499 257 l 546 260 z "},"½":{"ha":653,"x_min":68,"x_max":653,"o":"m 210 522 l 135 519 l 125 957 l 69 954 l 68 1015 q 144 1088 119 1039 l 197 1089 l 210 522 m 564 1017 l 193 -11 l 111 -11 l 481 1017 l 564 1017 m 653 18 l 446 13 l 444 97 q 490 188 465 138 q 534 290 514 239 q 567 390 554 342 q 581 471 581 438 q 549 515 581 515 q 522 493 529 515 q 515 419 515 471 l 515 399 l 444 399 l 444 413 q 469 549 444 504 q 551 594 494 594 q 624 560 599 594 q 650 458 650 525 q 606 268 650 381 q 577 203 596 244 q 526 101 558 163 l 653 104 l 653 18 z "},"¾":{"ha":699,"x_min":68,"x_max":699,"o":"m 281 585 q 182 426 281 426 q 75 618 85 426 l 147 621 q 181 511 149 511 q 210 575 210 511 q 206 639 210 615 q 195 675 203 663 q 175 691 188 688 q 143 694 163 694 l 139 764 q 181 783 167 767 q 196 853 196 800 q 165 938 196 938 q 139 882 139 938 q 139 859 139 868 q 142 839 139 850 l 71 835 q 69 853 69 842 q 68 881 68 864 q 94 984 68 943 q 167 1025 121 1025 q 264 847 264 1025 q 229 736 264 774 q 268 683 256 717 q 281 585 281 649 m 606 1017 l 235 -11 l 153 -11 l 522 1017 l 606 1017 m 699 182 l 649 181 l 653 46 l 582 40 l 576 179 l 460 174 l 457 251 l 561 608 l 635 611 l 646 258 l 696 260 l 699 182 m 574 257 l 568 411 l 526 254 l 574 257 z "},"¿":{"ha":350,"x_min":-7,"x_max":336,"o":"m 8 182 q 40 331 8 243 q 106 697 106 515 q 105 749 106 722 q 103 808 104 776 l 200 813 q 201 797 201 806 q 201 778 201 788 l 201 739 q 174 421 201 547 q 169 409 174 422 q 157 374 164 396 q 141 324 150 351 q 124 270 132 297 q 112 220 117 243 q 107 183 107 197 q 123 128 107 154 q 167 101 139 101 q 249 215 215 101 l 336 175 q 168 -18 297 -18 q 52 35 96 -18 q 8 182 8 89 m -7 910 l 133 1069 l 293 928 l 200 922 l 203 879 l 89 872 l 86 915 l -7 910 z "},"À":{"ha":456,"x_min":19,"x_max":458,"o":"m 458 46 l 342 46 l 310 304 l 163 310 l 129 85 l 19 85 l 182 1106 l 336 1106 l 458 46 m 299 432 l 256 894 l 181 435 l 299 432 m 143 1283 l 253 1283 l 311 1143 l 232 1143 l 143 1283 z "},"Á":{"ha":456,"x_min":19,"x_max":458,"o":"m 458 46 l 342 46 l 310 304 l 163 310 l 129 85 l 19 85 l 182 1106 l 336 1106 l 458 46 m 299 432 l 256 894 l 181 435 l 299 432 m 289 1154 l 204 1154 l 264 1296 l 376 1296 l 289 1154 z "},"Â":{"ha":456,"x_min":19,"x_max":458,"o":"m 458 46 l 342 46 l 310 304 l 163 310 l 129 85 l 19 85 l 182 1106 l 336 1106 l 458 46 m 299 432 l 256 894 l 181 435 l 299 432 m 264 1268 l 192 1142 l 86 1138 l 213 1319 l 306 1324 l 440 1154 l 339 1149 l 264 1268 z "},"Ã":{"ha":456,"x_min":19,"x_max":458,"o":"m 458 46 l 342 46 l 310 304 l 163 310 l 129 85 l 19 85 l 182 1106 l 336 1106 l 458 46 m 299 432 l 256 894 l 181 435 l 299 432 m 150 1243 q 192 1272 164 1272 q 219 1265 201 1272 q 255 1247 236 1257 q 291 1230 274 1238 q 319 1222 308 1222 q 376 1288 353 1222 l 376 1188 q 326 1149 358 1149 q 298 1157 315 1149 q 263 1174 281 1165 q 228 1192 244 1183 q 200 1200 211 1200 q 150 1146 168 1200 l 150 1243 z "},"Ä":{"ha":456,"x_min":19,"x_max":458,"o":"m 458 46 l 342 46 l 310 304 l 163 310 l 129 85 l 19 85 l 182 1106 l 336 1106 l 458 46 m 299 432 l 256 894 l 181 435 l 299 432 m 438 1142 l 331 1139 l 326 1281 l 432 1283 l 438 1142 m 233 1132 l 126 1129 l 122 1271 l 228 1274 l 233 1132 z "},"Å":{"ha":456,"x_min":19,"x_max":458,"o":"m 458 46 l 342 46 l 310 304 l 163 310 l 129 85 l 19 85 l 182 1106 l 336 1106 l 458 46 m 299 432 l 256 894 l 181 435 l 299 432 m 225 1214 q 238 1179 225 1193 q 268 1165 250 1165 q 297 1179 286 1165 q 308 1214 308 1193 q 297 1248 308 1233 q 268 1263 286 1263 q 238 1248 250 1263 q 225 1214 225 1233 m 268 1122 q 207 1148 231 1122 q 183 1211 183 1174 q 207 1282 183 1254 q 268 1310 231 1310 q 329 1281 304 1310 q 354 1211 354 1251 q 329 1148 354 1174 q 268 1122 304 1122 z "},"Æ":{"ha":661,"x_min":21,"x_max":658,"o":"m 658 81 l 342 81 l 333 426 l 199 426 l 131 81 l 21 85 l 197 1108 l 635 1108 l 635 978 l 458 978 l 458 565 l 608 565 l 608 433 l 463 433 l 463 217 l 656 217 l 658 81 m 332 556 l 332 976 l 289 975 l 219 556 l 332 556 z "},"Ç":{"ha":450,"x_min":40,"x_max":432,"o":"m 432 346 q 243 17 432 17 q 104 85 153 17 q 53 293 56 154 l 40 844 q 89 1024 40 958 q 233 1089 138 1089 q 301 1076 269 1089 q 358 1033 333 1064 q 396 953 382 1003 q 410 829 410 904 q 410 764 410 789 q 407 717 410 739 l 293 714 q 296 759 294 732 q 297 821 297 786 q 226 967 297 967 q 151 853 151 967 l 169 258 q 193 165 172 192 q 246 139 214 139 q 322 301 322 139 q 322 382 322 357 q 318 424 321 407 l 429 426 q 431 397 431 413 q 432 346 432 381 m 308 -106 l 254 -233 l 221 -233 l 240 -112 l 201 -112 l 201 -12 l 307 -11 l 308 -106 z "},"È":{"ha":383,"x_min":38,"x_max":379,"o":"m 379 46 l 75 36 l 38 1063 l 329 1075 l 332 943 l 156 938 l 165 642 l 315 646 l 319 515 l 171 511 l 182 175 l 375 182 l 379 46 m 76 1247 l 186 1247 l 244 1107 l 165 1107 l 76 1247 z "},"É":{"ha":383,"x_min":38,"x_max":379,"o":"m 379 46 l 75 36 l 38 1063 l 329 1075 l 332 943 l 156 938 l 165 642 l 315 646 l 319 515 l 171 511 l 182 175 l 375 182 l 379 46 m 217 1111 l 132 1111 l 192 1253 l 304 1253 l 217 1111 z "},"Ê":{"ha":383,"x_min":6,"x_max":379,"o":"m 379 46 l 75 36 l 38 1063 l 329 1075 l 332 943 l 156 938 l 165 642 l 315 646 l 319 515 l 171 511 l 182 175 l 375 182 l 379 46 m 183 1251 l 111 1125 l 6 1121 l 132 1303 l 225 1307 l 360 1138 l 258 1132 l 183 1251 z "},"Ë":{"ha":383,"x_min":38,"x_max":379,"o":"m 379 46 l 75 36 l 38 1063 l 329 1075 l 332 943 l 156 938 l 165 642 l 315 646 l 319 515 l 171 511 l 182 175 l 375 182 l 379 46 m 354 1126 l 247 1124 l 243 1265 l 349 1268 l 354 1126 m 150 1117 l 43 1114 l 39 1256 l 144 1258 l 150 1117 z "},"Ì":{"ha":293,"x_min":-17,"x_max":285,"o":"m -17 111 l 76 111 l 76 154 l 190 157 l 190 115 l 285 115 l 138 -37 l -17 111 m 75 215 l 71 332 l 185 336 l 189 217 l 75 215 m 71 393 l 68 511 l 182 514 l 185 394 l 71 393 m 67 572 l 64 689 l 181 693 l 181 574 l 67 572 m 61 750 l 61 868 l 176 871 l 176 751 l 61 750 m 58 939 l 58 1026 l 174 1029 l 174 939 l 58 939 m -11 1254 l 99 1254 l 157 1114 l 78 1114 l -11 1254 z "},"Í":{"ha":293,"x_min":-17,"x_max":285,"o":"m -17 111 l 76 111 l 76 154 l 190 157 l 190 115 l 285 115 l 138 -37 l -17 111 m 75 215 l 71 332 l 185 336 l 189 217 l 75 215 m 71 393 l 68 511 l 182 514 l 185 394 l 71 393 m 67 572 l 64 689 l 181 693 l 181 574 l 67 572 m 61 750 l 61 868 l 176 871 l 176 751 l 61 750 m 58 939 l 58 1026 l 174 1029 l 174 939 l 58 939 m 156 1121 l 71 1121 l 131 1263 l 243 1263 l 156 1121 z "},"Î":{"ha":293,"x_min":-49,"x_max":306,"o":"m -17 111 l 76 111 l 76 154 l 190 157 l 190 115 l 285 115 l 138 -37 l -17 111 m 75 215 l 71 332 l 185 336 l 189 217 l 75 215 m 71 393 l 68 511 l 182 514 l 185 394 l 71 393 m 67 572 l 64 689 l 181 693 l 181 574 l 67 572 m 61 750 l 61 868 l 176 871 l 176 751 l 61 750 m 58 939 l 58 1026 l 174 1029 l 174 939 l 58 939 m 129 1242 l 57 1115 l -49 1111 l 78 1293 l 171 1297 l 306 1128 l 204 1122 l 129 1242 z "},"Ï":{"ha":293,"x_min":-24,"x_max":292,"o":"m -17 111 l 76 111 l 76 154 l 190 157 l 190 115 l 285 115 l 138 -37 l -17 111 m 75 215 l 71 332 l 185 336 l 189 217 l 75 215 m 71 393 l 68 511 l 182 514 l 185 394 l 71 393 m 67 572 l 64 689 l 181 693 l 181 574 l 67 572 m 61 750 l 61 868 l 176 871 l 176 751 l 61 750 m 58 939 l 58 1026 l 174 1029 l 174 939 l 58 939 m 292 1106 l 185 1103 l 181 1244 l 286 1247 l 292 1106 m 88 1096 l -19 1093 l -24 1235 l 82 1238 l 88 1096 z "},"Ð":{"ha":475,"x_min":-7,"x_max":450,"o":"m -7 510 l 68 510 l 68 994 l 243 997 q 446 721 444 997 q 449 373 447 492 q 450 243 450 254 q 437 108 450 161 q 394 22 424 54 q 317 -22 365 -10 q 199 -35 269 -35 l 174 -35 q 158 -35 167 -35 q 138 -33 149 -35 l 72 -33 l 72 433 l -7 433 l -7 510 m 331 729 q 323 794 331 768 q 299 836 315 821 q 256 858 283 851 q 189 864 229 864 l 182 864 l 182 510 l 297 510 l 297 433 l 185 433 l 185 101 l 235 101 q 315 126 292 101 q 336 224 338 151 l 331 729 z "},"Ñ":{"ha":494,"x_min":75,"x_max":496,"o":"m 496 951 l 469 -46 l 364 -43 l 197 603 l 193 601 l 176 -53 l 75 -50 l 103 990 l 203 990 l 372 299 l 392 956 l 496 951 m 199 1151 q 240 1181 213 1181 q 267 1173 250 1181 q 303 1156 285 1165 q 340 1138 322 1146 q 368 1131 357 1131 q 425 1196 401 1131 l 425 1096 q 375 1057 407 1057 q 347 1065 364 1057 q 311 1083 329 1074 q 276 1100 293 1092 q 249 1108 260 1108 q 199 1054 217 1108 l 199 1151 z "},"Ò":{"ha":463,"x_min":68,"x_max":463,"o":"m 450 306 q 397 102 447 169 q 256 35 347 35 q 113 101 157 35 q 68 301 68 167 l 83 858 q 137 1042 86 976 q 278 1107 188 1107 q 355 1090 321 1107 q 413 1041 389 1072 q 450 967 438 1010 q 463 874 463 925 l 463 843 l 450 306 m 349 868 q 328 955 349 919 q 275 990 307 990 q 221 957 243 990 q 197 864 199 924 l 182 263 q 202 185 182 219 q 254 150 222 150 q 310 185 288 150 q 332 275 332 219 l 349 868 m 160 1276 l 269 1276 l 328 1136 l 249 1136 l 160 1276 z "},"Ó":{"ha":463,"x_min":68,"x_max":463,"o":"m 450 306 q 397 102 447 169 q 256 35 347 35 q 113 101 157 35 q 68 301 68 167 l 83 858 q 137 1042 86 976 q 278 1107 188 1107 q 355 1090 321 1107 q 413 1041 389 1072 q 450 967 438 1010 q 463 874 463 925 l 463 843 l 450 306 m 349 868 q 328 955 349 919 q 275 990 307 990 q 221 957 243 990 q 197 864 199 924 l 182 263 q 202 185 182 219 q 254 150 222 150 q 310 185 288 150 q 332 275 332 219 l 349 868 m 300 1140 l 215 1140 l 275 1282 l 388 1282 l 300 1140 z "},"Ô":{"ha":463,"x_min":68,"x_max":464,"o":"m 450 306 q 397 102 447 169 q 256 35 347 35 q 113 101 157 35 q 68 301 68 167 l 83 858 q 137 1042 86 976 q 278 1107 188 1107 q 355 1090 321 1107 q 413 1041 389 1072 q 450 967 438 1010 q 463 874 463 925 l 463 843 l 450 306 m 349 868 q 328 955 349 919 q 275 990 307 990 q 221 957 243 990 q 197 864 199 924 l 182 263 q 202 185 182 219 q 254 150 222 150 q 310 185 288 150 q 332 275 332 219 l 349 868 m 288 1264 l 215 1138 l 110 1133 l 236 1315 l 329 1319 l 464 1150 l 363 1144 l 288 1264 z "},"Õ":{"ha":463,"x_min":68,"x_max":463,"o":"m 450 306 q 397 102 447 169 q 256 35 347 35 q 113 101 157 35 q 68 301 68 167 l 83 858 q 137 1042 86 976 q 278 1107 188 1107 q 355 1090 321 1107 q 413 1041 389 1072 q 450 967 438 1010 q 463 874 463 925 l 463 843 l 450 306 m 349 868 q 328 955 349 919 q 275 990 307 990 q 221 957 243 990 q 197 864 199 924 l 182 263 q 202 185 182 219 q 254 150 222 150 q 310 185 288 150 q 332 275 332 219 l 349 868 m 169 1229 q 211 1258 183 1258 q 238 1251 221 1258 q 274 1233 256 1243 q 310 1216 293 1224 q 339 1208 328 1208 q 396 1274 372 1208 l 396 1174 q 346 1135 378 1135 q 317 1143 335 1135 q 282 1160 300 1151 q 247 1178 264 1169 q 219 1186 231 1186 q 169 1132 188 1186 l 169 1229 z "},"Ö":{"ha":463,"x_min":68,"x_max":463,"o":"m 450 306 q 397 102 447 169 q 256 35 347 35 q 113 101 157 35 q 68 301 68 167 l 83 858 q 137 1042 86 976 q 278 1107 188 1107 q 355 1090 321 1107 q 413 1041 389 1072 q 450 967 438 1010 q 463 874 463 925 l 463 843 l 450 306 m 349 868 q 328 955 349 919 q 275 990 307 990 q 221 957 243 990 q 197 864 199 924 l 182 263 q 202 185 182 219 q 254 150 222 150 q 310 185 288 150 q 332 275 332 219 l 349 868 m 442 1126 l 335 1124 l 331 1265 l 436 1268 l 442 1126 m 238 1117 l 131 1114 l 126 1256 l 232 1258 l 238 1117 z "},"×":{"ha":371,"x_min":32,"x_max":360,"o":"m 339 558 l 251 456 l 360 328 l 304 264 l 196 390 l 108 288 l 51 356 l 139 458 l 32 583 l 86 649 l 194 524 l 281 626 l 339 558 z "},"Ø":{"ha":463,"x_min":26,"x_max":499,"o":"m 499 1110 l 444 981 q 458 920 453 950 q 463 856 464 890 l 450 306 q 256 35 442 35 q 139 71 183 35 l 100 -28 l 26 8 l 88 149 q 67 275 67 200 q 67 288 67 282 q 68 301 68 294 l 83 858 q 137 1042 86 976 q 278 1107 188 1107 q 393 1063 349 1107 l 422 1147 l 499 1110 m 350 925 q 327 976 347 963 q 275 990 307 990 q 222 957 244 990 q 197 864 200 924 l 185 442 l 350 925 m 189 215 q 212 165 193 181 q 254 150 231 150 q 310 185 288 150 q 332 275 332 219 l 344 678 l 189 215 z "},"Ù":{"ha":471,"x_min":71,"x_max":472,"o":"m 472 982 l 453 208 q 261 -62 446 -62 q 117 4 163 -62 q 71 206 71 71 l 93 990 l 206 985 l 185 182 q 202 102 183 133 q 261 71 221 71 q 338 183 333 71 l 365 988 l 472 982 m 172 1200 l 282 1200 l 340 1060 l 261 1060 l 172 1200 z "},"Ú":{"ha":471,"x_min":71,"x_max":472,"o":"m 472 982 l 453 208 q 261 -62 446 -62 q 117 4 163 -62 q 71 206 71 71 l 93 990 l 206 985 l 185 182 q 202 102 183 133 q 261 71 221 71 q 338 183 333 71 l 365 988 l 472 982 m 296 1064 l 211 1064 l 271 1206 l 383 1206 l 296 1064 z "},"Û":{"ha":471,"x_min":71,"x_max":472,"o":"m 472 982 l 453 208 q 261 -62 446 -62 q 117 4 163 -62 q 71 206 71 71 l 93 990 l 206 985 l 185 182 q 202 102 183 133 q 261 71 221 71 q 338 183 333 71 l 365 988 l 472 982 m 286 1201 l 214 1075 l 108 1071 l 235 1253 l 328 1257 l 463 1088 l 361 1082 l 286 1201 z "},"Ü":{"ha":471,"x_min":71,"x_max":472,"o":"m 472 982 l 453 208 q 261 -62 446 -62 q 117 4 163 -62 q 71 206 71 71 l 93 990 l 206 985 l 185 182 q 202 102 183 133 q 261 71 221 71 q 338 183 333 71 l 365 988 l 472 982 m 447 1067 l 340 1064 l 336 1206 l 442 1208 l 447 1067 m 243 1057 l 136 1054 l 132 1196 l 238 1199 l 243 1057 z "},"Ý":{"ha":410,"x_min":-14,"x_max":383,"o":"m 383 1050 l 250 444 l 261 18 l 149 15 l 139 421 l -14 1026 l 94 1033 l 194 625 l 269 1046 l 383 1050 m 204 1104 l 119 1104 l 179 1246 l 292 1246 l 204 1104 z "},"Þ":{"ha":450,"x_min":38,"x_max":432,"o":"m 432 579 q 306 289 432 319 q 179 279 290 286 l 185 40 l 75 21 l 38 1063 l 147 1067 l 154 882 l 236 882 q 432 579 432 882 m 317 556 q 310 660 315 621 q 291 719 304 699 q 254 745 278 739 q 192 751 231 751 l 176 751 q 163 750 168 751 l 174 408 q 180 408 176 408 q 186 407 183 407 q 241 412 217 407 q 282 432 265 417 q 308 476 299 447 q 317 556 317 506 z "},"ß":{"ha":869,"x_min":35,"x_max":856,"o":"m 433 233 q 419 134 433 181 q 378 53 404 88 q 317 0 353 19 q 240 -19 282 -19 q 156 3 194 -19 q 91 66 118 26 q 49 158 64 106 q 35 272 35 211 l 142 274 q 170 154 144 192 q 236 117 196 117 q 278 126 261 117 q 306 153 296 136 q 321 190 317 169 q 325 231 325 210 q 324 261 325 247 q 317 291 322 275 q 301 327 311 307 q 274 376 290 347 q 199 479 242 428 q 121 581 156 531 q 67 690 85 633 q 49 801 49 747 q 97 984 49 919 q 224 1049 144 1049 q 288 1038 257 1049 q 344 1003 319 1028 q 383 940 368 979 q 399 843 399 901 q 398 815 399 829 q 396 786 397 801 l 283 794 q 286 824 286 810 q 286 849 286 838 q 236 924 286 924 q 158 815 158 924 q 172 735 158 775 q 229 636 185 696 q 296 549 261 592 q 363 463 331 507 q 417 351 400 408 q 433 233 433 293 m 856 293 q 807 99 856 167 q 667 31 758 31 q 585 52 622 31 q 519 111 547 74 q 475 200 492 149 q 456 310 458 251 l 563 318 q 595 203 569 239 q 658 167 621 167 q 728 199 710 167 q 747 274 747 232 q 745 307 747 292 q 737 339 743 322 q 719 377 731 356 q 688 428 707 399 q 607 525 654 476 q 524 622 560 574 q 459 742 479 681 q 439 865 439 804 q 486 1037 439 978 q 615 1096 533 1096 q 676 1085 646 1096 q 732 1052 707 1075 q 772 992 757 1029 q 788 900 788 954 q 788 873 788 886 q 786 843 788 860 l 675 846 q 666 941 675 910 q 624 972 657 972 q 549 875 549 972 q 551 831 549 851 q 563 788 554 810 q 587 740 571 765 q 629 685 603 715 q 701 601 664 642 q 772 518 739 561 q 856 293 856 411 z "},"à":{"ha":456,"x_min":21,"x_max":458,"o":"m 458 38 l 344 42 l 313 301 l 167 306 l 131 81 l 21 85 l 197 1106 l 350 1101 l 458 38 m 304 428 l 268 890 l 185 433 l 304 428 m 142 1267 l 251 1267 l 310 1126 l 231 1126 l 142 1267 z "},"á":{"ha":456,"x_min":21,"x_max":458,"o":"m 458 38 l 344 42 l 313 301 l 167 306 l 131 81 l 21 85 l 197 1106 l 350 1101 l 458 38 m 304 428 l 268 890 l 185 433 l 304 428 m 294 1139 l 210 1139 l 269 1281 l 382 1281 l 294 1139 z "},"â":{"ha":456,"x_min":21,"x_max":458,"o":"m 458 38 l 344 42 l 313 301 l 167 306 l 131 81 l 21 85 l 197 1106 l 350 1101 l 458 38 m 304 428 l 268 890 l 185 433 l 304 428 m 271 1263 l 199 1136 l 93 1132 l 219 1314 l 313 1318 l 447 1149 l 346 1143 l 271 1263 z "},"ã":{"ha":456,"x_min":21,"x_max":458,"o":"m 458 38 l 344 42 l 313 301 l 167 306 l 131 81 l 21 85 l 197 1106 l 350 1101 l 458 38 m 304 428 l 268 890 l 185 433 l 304 428 m 147 1233 q 189 1263 161 1263 q 216 1255 199 1263 q 252 1238 233 1247 q 288 1220 271 1228 q 317 1213 306 1213 q 374 1278 350 1213 l 374 1178 q 324 1139 356 1139 q 295 1147 313 1139 q 260 1165 278 1156 q 225 1182 242 1174 q 197 1190 208 1190 q 147 1136 165 1190 l 147 1233 z "},"ä":{"ha":456,"x_min":21,"x_max":458,"o":"m 458 38 l 344 42 l 313 301 l 167 306 l 131 81 l 21 85 l 197 1106 l 350 1101 l 458 38 m 304 428 l 268 890 l 185 433 l 304 428 m 438 1126 l 331 1124 l 326 1265 l 432 1268 l 438 1126 m 233 1117 l 126 1114 l 122 1256 l 228 1258 l 233 1117 z "},"å":{"ha":456,"x_min":21,"x_max":458,"o":"m 458 38 l 344 42 l 313 301 l 167 306 l 131 81 l 21 85 l 197 1106 l 350 1101 l 458 38 m 304 428 l 268 890 l 185 433 l 304 428 m 244 1213 q 257 1178 244 1192 q 288 1164 269 1164 q 317 1178 306 1164 q 328 1213 328 1192 q 317 1247 328 1232 q 288 1261 306 1261 q 257 1247 269 1261 q 244 1213 244 1232 m 288 1121 q 226 1147 250 1121 q 203 1210 203 1172 q 226 1281 203 1253 q 288 1308 250 1308 q 349 1279 324 1308 q 374 1210 374 1250 q 349 1147 374 1172 q 288 1121 324 1121 z "},"æ":{"ha":661,"x_min":21,"x_max":658,"o":"m 658 81 l 342 81 l 333 426 l 199 426 l 131 81 l 21 85 l 197 1108 l 635 1108 l 635 978 l 458 978 l 458 565 l 608 565 l 608 433 l 463 433 l 463 217 l 656 217 l 658 81 m 332 556 l 332 976 l 289 975 l 219 556 l 332 556 z "},"ç":{"ha":450,"x_min":40,"x_max":432,"o":"m 432 346 q 243 17 432 17 q 104 85 153 17 q 53 293 56 154 l 40 844 q 89 1024 40 958 q 233 1089 138 1089 q 301 1076 269 1089 q 358 1033 333 1064 q 396 953 382 1003 q 410 829 410 904 q 410 764 410 789 q 407 717 410 739 l 293 714 q 296 759 294 732 q 297 821 297 786 q 226 967 297 967 q 151 853 151 967 l 169 258 q 193 165 172 192 q 246 139 214 139 q 322 301 322 139 q 322 382 322 357 q 318 424 321 407 l 429 426 q 431 397 431 413 q 432 346 432 381 m 308 -106 l 254 -233 l 221 -233 l 240 -112 l 201 -112 l 201 -12 l 307 -11 l 308 -106 z "},"è":{"ha":383,"x_min":68,"x_max":382,"o":"m 382 79 l 68 79 l 68 1108 l 358 1108 l 358 978 l 183 978 l 183 682 l 333 682 l 333 550 l 186 550 l 186 217 l 382 217 l 382 79 m 101 1272 l 211 1272 l 269 1132 l 190 1132 l 101 1272 z "},"é":{"ha":383,"x_min":68,"x_max":382,"o":"m 382 79 l 68 79 l 68 1108 l 358 1108 l 358 978 l 183 978 l 183 682 l 333 682 l 333 550 l 186 550 l 186 217 l 382 217 l 382 79 m 160 1111 l 75 1111 l 135 1253 l 247 1253 l 160 1111 z "},"ê":{"ha":383,"x_min":40,"x_max":394,"o":"m 382 79 l 68 79 l 68 1108 l 358 1108 l 358 978 l 183 978 l 183 682 l 333 682 l 333 550 l 186 550 l 186 217 l 382 217 l 382 79 m 218 1268 l 146 1142 l 40 1138 l 167 1319 l 260 1324 l 394 1154 l 293 1149 l 218 1268 z "},"ë":{"ha":383,"x_min":58,"x_max":382,"o":"m 382 79 l 68 79 l 68 1108 l 358 1108 l 358 978 l 183 978 l 183 682 l 333 682 l 333 550 l 186 550 l 186 217 l 382 217 l 382 79 m 374 1156 l 267 1153 l 263 1294 l 368 1297 l 374 1156 m 169 1146 l 63 1143 l 58 1285 l 164 1288 l 169 1146 z "},"ì":{"ha":293,"x_min":-3,"x_max":193,"o":"m 63 1 l 63 1076 l 193 1076 l 193 1 l 63 1 m -3 1271 l 107 1271 l 165 1131 l 86 1131 l -3 1271 z "},"í":{"ha":293,"x_min":63,"x_max":242,"o":"m 63 1 l 63 1076 l 193 1076 l 193 1 l 63 1 m 154 1132 l 69 1132 l 129 1274 l 242 1274 l 154 1132 z "},"î":{"ha":293,"x_min":-56,"x_max":299,"o":"m 63 1 l 63 1076 l 193 1076 l 193 1 l 63 1 m 122 1258 l 50 1132 l -56 1128 l 71 1310 l 164 1314 l 299 1144 l 197 1139 l 122 1258 z "},"ï":{"ha":293,"x_min":-31,"x_max":285,"o":"m 63 1 l 63 1076 l 193 1076 l 193 1 l 63 1 m 285 1126 l 178 1124 l 174 1265 l 279 1268 l 285 1126 m 81 1117 l -26 1114 l -31 1256 l 75 1258 l 81 1117 z "},"ð":{"ha":475,"x_min":-7,"x_max":450,"o":"m -7 510 l 68 510 l 68 994 l 243 997 q 446 721 444 997 q 449 373 447 492 q 450 243 450 254 q 437 108 450 161 q 394 22 424 54 q 317 -22 365 -10 q 199 -35 269 -35 l 174 -35 q 158 -35 167 -35 q 138 -33 149 -35 l 72 -33 l 72 433 l -7 433 l -7 510 m 331 729 q 323 794 331 768 q 299 836 315 821 q 256 858 283 851 q 189 864 229 864 l 182 864 l 182 510 l 297 510 l 297 433 l 185 433 l 185 101 l 235 101 q 315 126 292 101 q 336 224 338 151 l 331 729 z "},"ñ":{"ha":494,"x_min":69,"x_max":472,"o":"m 472 910 l 472 -89 l 367 -89 l 181 544 l 181 -107 l 69 -107 l 69 938 l 171 938 l 360 251 l 360 910 l 472 910 m 156 1094 q 197 1124 169 1124 q 224 1116 207 1124 q 260 1099 242 1108 q 297 1081 279 1089 q 325 1074 314 1074 q 382 1139 358 1074 l 382 1039 q 332 1000 364 1000 q 303 1008 321 1000 q 268 1026 286 1017 q 233 1043 250 1035 q 206 1051 217 1051 q 156 997 174 1051 l 156 1094 z "},"ò":{"ha":463,"x_min":63,"x_max":446,"o":"m 446 801 l 443 263 q 258 -14 442 -7 q 63 250 64 -14 l 67 807 q 116 990 68 925 q 254 1060 164 1056 q 392 997 342 1060 q 446 813 443 933 l 446 801 m 331 824 q 308 910 331 876 q 254 943 286 943 q 200 906 219 943 q 181 817 181 868 l 176 224 q 199 137 176 171 q 253 103 222 103 q 306 140 289 103 q 329 229 324 176 l 331 824 m 117 1247 l 226 1247 l 285 1107 l 206 1107 l 117 1247 z "},"ó":{"ha":463,"x_min":63,"x_max":446,"o":"m 446 801 l 443 263 q 258 -14 442 -7 q 63 250 64 -14 l 67 807 q 116 990 68 925 q 254 1060 164 1056 q 392 997 342 1060 q 446 813 443 933 l 446 801 m 331 824 q 308 910 331 876 q 254 943 286 943 q 200 906 219 943 q 181 817 181 868 l 176 224 q 199 137 176 171 q 253 103 222 103 q 306 140 289 103 q 329 229 324 176 l 331 824 m 265 1111 l 181 1111 l 240 1253 l 353 1253 l 265 1111 z "},"ô":{"ha":463,"x_min":63,"x_max":446,"o":"m 446 801 l 443 263 q 258 -14 442 -7 q 63 250 64 -14 l 67 807 q 116 990 68 925 q 254 1060 164 1056 q 392 997 342 1060 q 446 813 443 933 l 446 801 m 331 824 q 308 910 331 876 q 254 943 286 943 q 200 906 219 943 q 181 817 181 868 l 176 224 q 199 137 176 171 q 253 103 222 103 q 306 140 289 103 q 329 229 324 176 l 331 824 m 249 1251 l 176 1125 l 71 1121 l 197 1303 l 290 1307 l 425 1138 l 324 1132 l 249 1251 z "},"õ":{"ha":463,"x_min":63,"x_max":446,"o":"m 446 801 l 443 263 q 258 -14 442 -7 q 63 250 64 -14 l 67 807 q 116 990 68 925 q 254 1060 164 1056 q 392 997 342 1060 q 446 813 443 933 l 446 801 m 331 824 q 308 910 331 876 q 254 943 286 943 q 200 906 219 943 q 181 817 181 868 l 176 224 q 199 137 176 171 q 253 103 222 103 q 306 140 289 103 q 329 229 324 176 l 331 824 m 139 1208 q 181 1238 153 1238 q 208 1230 190 1238 q 244 1213 225 1222 q 280 1195 263 1203 q 308 1188 297 1188 q 365 1253 342 1188 l 365 1153 q 315 1114 347 1114 q 287 1122 304 1114 q 251 1140 269 1131 q 217 1157 233 1149 q 189 1165 200 1165 q 139 1111 157 1165 l 139 1208 z "},"ö":{"ha":463,"x_min":63,"x_max":446,"o":"m 446 801 l 443 263 q 258 -14 442 -7 q 63 250 64 -14 l 67 807 q 116 990 68 925 q 254 1060 164 1056 q 392 997 342 1060 q 446 813 443 933 l 446 801 m 331 824 q 308 910 331 876 q 254 943 286 943 q 200 906 219 943 q 181 817 181 868 l 176 224 q 199 137 176 171 q 253 103 222 103 q 306 140 289 103 q 329 229 324 176 l 331 824 m 426 1097 l 319 1094 l 315 1236 l 421 1239 l 426 1097 m 222 1088 l 115 1085 l 111 1226 l 217 1229 l 222 1088 z "},"÷":{"ha":342,"x_min":21,"x_max":342,"o":"m 342 372 l 21 372 l 21 471 l 342 471 l 342 372 m 236 588 l 129 585 l 129 729 l 236 729 l 236 588 m 231 118 l 124 115 l 124 260 l 231 260 l 231 118 z "},"ø":{"ha":463,"x_min":26,"x_max":499,"o":"m 499 1110 l 444 981 q 458 920 453 950 q 463 856 464 890 l 450 306 q 256 35 442 35 q 139 71 183 35 l 100 -28 l 26 8 l 88 149 q 67 275 67 200 q 67 288 67 282 q 68 301 68 294 l 83 858 q 137 1042 86 976 q 278 1107 188 1107 q 393 1063 349 1107 l 422 1147 l 499 1110 m 350 925 q 327 976 347 963 q 275 990 307 990 q 222 957 244 990 q 197 864 200 924 l 185 442 l 350 925 m 189 215 q 212 165 193 181 q 254 150 231 150 q 310 185 288 150 q 332 275 332 219 l 344 678 l 189 215 z "},"ù":{"ha":471,"x_min":68,"x_max":453,"o":"m 453 1081 l 447 307 q 400 101 446 171 q 263 32 354 32 q 117 96 165 32 q 68 294 68 160 l 71 1082 l 186 1082 l 182 275 q 203 199 182 232 q 257 165 224 165 q 333 279 333 165 l 339 1083 l 453 1081 m 143 1268 l 253 1268 l 311 1128 l 232 1128 l 143 1268 z "},"ú":{"ha":471,"x_min":68,"x_max":453,"o":"m 453 1081 l 447 307 q 400 101 446 171 q 263 32 354 32 q 117 96 165 32 q 68 294 68 160 l 71 1082 l 186 1082 l 182 275 q 203 199 182 232 q 257 165 224 165 q 333 279 333 165 l 339 1083 l 453 1081 m 272 1125 l 188 1125 l 247 1267 l 360 1267 l 272 1125 z "},"û":{"ha":471,"x_min":68,"x_max":453,"o":"m 453 1081 l 447 307 q 400 101 446 171 q 263 32 354 32 q 117 96 165 32 q 68 294 68 160 l 71 1082 l 186 1082 l 182 275 q 203 199 182 232 q 257 165 224 165 q 333 279 333 165 l 339 1083 l 453 1081 m 256 1264 l 183 1138 l 78 1133 l 204 1315 l 297 1319 l 432 1150 l 331 1144 l 256 1264 z "},"ü":{"ha":471,"x_min":68,"x_max":453,"o":"m 453 1081 l 447 307 q 400 101 446 171 q 263 32 354 32 q 117 96 165 32 q 68 294 68 160 l 71 1082 l 186 1082 l 182 275 q 203 199 182 232 q 257 165 224 165 q 333 279 333 165 l 339 1083 l 453 1081 m 429 1114 l 322 1111 l 318 1253 l 424 1256 l 429 1114 m 225 1104 l 118 1101 l 114 1243 l 219 1246 l 225 1104 z "},"ý":{"ha":410,"x_min":-14,"x_max":383,"o":"m 383 1101 l 250 496 l 261 72 l 149 68 l 139 475 l -14 1076 l 97 1083 l 194 676 l 269 1097 l 383 1101 m 204 1111 l 119 1111 l 179 1253 l 292 1253 l 204 1111 z "},"þ":{"ha":450,"x_min":38,"x_max":432,"o":"m 432 579 q 306 289 432 319 q 179 279 290 286 l 185 40 l 75 21 l 38 1063 l 147 1067 l 154 882 l 236 882 q 432 579 432 882 m 317 556 q 310 660 315 621 q 291 719 304 699 q 254 745 278 739 q 192 751 231 751 l 176 751 q 163 750 168 751 l 174 408 q 180 408 176 408 q 186 407 183 407 q 241 412 217 407 q 282 432 265 417 q 308 476 299 447 q 317 556 317 506 z "},"ÿ":{"ha":410,"x_min":-14,"x_max":383,"o":"m 383 1101 l 250 496 l 261 72 l 149 68 l 139 475 l -14 1076 l 97 1083 l 194 676 l 269 1097 l 383 1101 m 358 1131 l 251 1128 l 247 1269 l 353 1272 l 358 1131 m 154 1121 l 47 1118 l 43 1260 l 149 1263 l 154 1121 z "},"Ā":{"ha":456,"x_min":19,"x_max":458,"o":"m 458 46 l 342 46 l 310 304 l 163 310 l 129 85 l 19 85 l 182 1106 l 336 1106 l 458 46 m 299 432 l 256 894 l 181 435 l 299 432 m 140 1236 l 385 1236 l 385 1175 l 140 1175 l 140 1236 z "},"ā":{"ha":456,"x_min":19,"x_max":458,"o":"m 458 46 l 342 46 l 310 304 l 163 310 l 129 85 l 19 85 l 182 1106 l 336 1106 l 458 46 m 299 432 l 256 894 l 181 435 l 299 432 m 140 1236 l 385 1236 l 385 1175 l 140 1175 l 140 1236 z "},"Ă":{"ha":456,"x_min":0,"x_max":439,"o":"m 439 -3 l 322 -3 l 290 256 l 143 261 l 110 36 l 0 36 l 163 1057 l 317 1057 l 439 -3 m 279 383 l 236 846 l 161 386 l 279 383 m 243 1108 q 147 1144 188 1108 q 99 1250 106 1179 l 181 1250 q 201 1194 189 1215 q 243 1172 213 1172 q 284 1194 274 1172 q 300 1250 294 1215 l 389 1250 q 338 1144 378 1179 q 243 1108 297 1108 z "},"ă":{"ha":456,"x_min":0,"x_max":439,"o":"m 439 -3 l 322 -3 l 290 256 l 143 261 l 110 36 l 0 36 l 163 1057 l 317 1057 l 439 -3 m 279 383 l 236 846 l 161 386 l 279 383 m 243 1108 q 147 1144 188 1108 q 99 1250 106 1179 l 181 1250 q 201 1194 189 1215 q 243 1172 213 1172 q 284 1194 274 1172 q 300 1250 294 1215 l 389 1250 q 338 1144 378 1179 q 243 1108 297 1108 z "},"Ą":{"ha":456,"x_min":19,"x_max":493,"o":"m 458 46 q 374 -64 374 -21 q 392 -111 374 -96 q 432 -126 410 -126 q 493 -92 464 -126 l 493 -169 q 421 -193 461 -193 q 338 -168 363 -193 q 314 -85 314 -143 q 347 0 314 -36 l 310 304 l 163 310 l 129 85 l 19 85 l 182 1106 l 336 1106 l 458 46 m 299 432 l 256 894 l 181 435 l 299 432 z "},"ą":{"ha":456,"x_min":19,"x_max":493,"o":"m 458 46 q 374 -64 374 -21 q 392 -111 374 -96 q 432 -126 410 -126 q 493 -92 464 -126 l 493 -169 q 421 -193 461 -193 q 338 -168 363 -193 q 314 -85 314 -143 q 347 0 314 -36 l 310 304 l 163 310 l 129 85 l 19 85 l 182 1106 l 336 1106 l 458 46 m 299 432 l 256 894 l 181 435 l 299 432 z "},"Ć":{"ha":450,"x_min":40,"x_max":432,"o":"m 432 319 q 243 -10 432 -10 q 104 59 153 -10 q 53 267 56 128 l 40 818 q 89 997 40 932 q 233 1063 138 1063 q 301 1050 269 1063 q 358 1007 333 1038 q 396 927 382 976 q 410 803 410 878 q 410 738 410 763 q 407 690 410 713 l 293 688 q 296 733 294 706 q 297 794 297 760 q 226 940 297 940 q 151 826 151 940 l 169 232 q 193 139 172 165 q 246 113 214 113 q 322 275 322 113 q 322 356 322 331 q 318 397 321 381 l 429 400 q 431 370 431 386 q 432 319 432 354 m 251 1111 l 167 1111 l 226 1253 l 339 1253 l 251 1111 z "},"ć":{"ha":450,"x_min":40,"x_max":432,"o":"m 432 319 q 243 -10 432 -10 q 104 59 153 -10 q 53 267 56 128 l 40 818 q 89 997 40 932 q 233 1063 138 1063 q 301 1050 269 1063 q 358 1007 333 1038 q 396 927 382 976 q 410 803 410 878 q 410 738 410 763 q 407 690 410 713 l 293 688 q 296 733 294 706 q 297 794 297 760 q 226 940 297 940 q 151 826 151 940 l 169 232 q 193 139 172 165 q 246 113 214 113 q 322 275 322 113 q 322 356 322 331 q 318 397 321 381 l 429 400 q 431 370 431 386 q 432 319 432 354 m 251 1111 l 167 1111 l 226 1253 l 339 1253 l 251 1111 z "},"Ċ":{"ha":450,"x_min":40,"x_max":432,"o":"m 432 310 q 243 -19 432 -19 q 104 49 153 -19 q 53 257 56 118 l 40 808 q 89 988 40 922 q 233 1053 138 1053 q 301 1040 269 1053 q 358 997 333 1028 q 396 917 382 967 q 410 793 410 868 q 410 728 410 753 q 407 681 410 703 l 293 678 q 296 723 294 696 q 297 785 297 750 q 226 931 297 931 q 151 817 151 931 l 169 222 q 193 129 172 156 q 246 103 214 103 q 322 265 322 103 q 322 346 322 321 q 318 388 321 371 l 429 390 q 431 360 431 376 q 432 310 432 344 m 281 1096 l 174 1093 l 169 1235 l 275 1238 l 281 1096 z "},"ċ":{"ha":450,"x_min":40,"x_max":432,"o":"m 432 310 q 243 -19 432 -19 q 104 49 153 -19 q 53 257 56 118 l 40 808 q 89 988 40 922 q 233 1053 138 1053 q 301 1040 269 1053 q 358 997 333 1028 q 396 917 382 967 q 410 793 410 868 q 410 728 410 753 q 407 681 410 703 l 293 678 q 296 723 294 696 q 297 785 297 750 q 226 931 297 931 q 151 817 151 931 l 169 222 q 193 129 172 156 q 246 103 214 103 q 322 265 322 103 q 322 346 322 321 q 318 388 321 371 l 429 390 q 431 360 431 376 q 432 310 432 344 m 281 1096 l 174 1093 l 169 1235 l 275 1238 l 281 1096 z "},"Č":{"ha":450,"x_min":40,"x_max":432,"o":"m 432 321 q 243 -8 432 -8 q 104 60 153 -8 q 53 268 56 129 l 40 819 q 89 999 40 933 q 233 1064 138 1064 q 301 1051 269 1064 q 358 1008 333 1039 q 396 928 382 978 q 410 804 410 879 q 410 739 410 764 q 407 692 410 714 l 293 689 q 296 734 294 707 q 297 796 297 761 q 226 942 297 942 q 151 828 151 942 l 169 233 q 193 140 172 167 q 246 114 214 114 q 322 276 322 114 q 322 357 322 332 q 318 399 321 382 l 429 401 q 431 372 431 388 q 432 321 432 356 m 228 1149 l 279 1247 l 358 1247 l 274 1107 l 181 1107 l 92 1247 l 174 1247 l 228 1149 z "},"č":{"ha":450,"x_min":40,"x_max":432,"o":"m 432 321 q 243 -8 432 -8 q 104 60 153 -8 q 53 268 56 129 l 40 819 q 89 999 40 933 q 233 1064 138 1064 q 301 1051 269 1064 q 358 1008 333 1039 q 396 928 382 978 q 410 804 410 879 q 410 739 410 764 q 407 692 410 714 l 293 689 q 296 734 294 707 q 297 796 297 761 q 226 942 297 942 q 151 828 151 942 l 169 233 q 193 140 172 167 q 246 114 214 114 q 322 276 322 114 q 322 357 322 332 q 318 399 321 382 l 429 401 q 431 372 431 388 q 432 321 432 356 m 228 1149 l 279 1247 l 358 1247 l 274 1107 l 181 1107 l 92 1247 l 174 1247 l 228 1149 z "},"Ď":{"ha":475,"x_min":68,"x_max":450,"o":"m 450 307 q 437 172 450 225 q 394 86 424 118 q 317 42 365 54 q 199 29 269 29 l 174 29 q 158 29 167 29 q 138 31 149 29 l 68 31 l 68 1058 l 243 1061 q 446 785 444 1061 q 449 437 447 556 q 450 307 450 318 m 331 793 q 323 858 331 832 q 299 900 315 885 q 256 922 283 915 q 189 928 229 928 l 185 928 l 185 165 l 235 165 q 315 190 292 165 q 336 288 338 215 l 331 793 m 240 1149 l 292 1247 l 371 1247 l 286 1107 l 193 1107 l 104 1247 l 186 1247 l 240 1149 z "},"ď":{"ha":475,"x_min":68,"x_max":450,"o":"m 450 307 q 437 172 450 225 q 394 86 424 118 q 317 42 365 54 q 199 29 269 29 l 174 29 q 158 29 167 29 q 138 31 149 29 l 68 31 l 68 1058 l 243 1061 q 446 785 444 1061 q 449 437 447 556 q 450 307 450 318 m 331 793 q 323 858 331 832 q 299 900 315 885 q 256 922 283 915 q 189 928 229 928 l 185 928 l 185 165 l 235 165 q 315 190 292 165 q 336 288 338 215 l 331 793 m 240 1149 l 292 1247 l 371 1247 l 286 1107 l 193 1107 l 104 1247 l 186 1247 l 240 1149 z "},"Đ":{"ha":475,"x_min":-7,"x_max":450,"o":"m -7 510 l 68 510 l 68 994 l 243 997 q 446 721 444 997 q 449 373 447 492 q 450 243 450 254 q 437 108 450 161 q 394 22 424 54 q 317 -22 365 -10 q 199 -35 269 -35 l 174 -35 q 158 -35 167 -35 q 138 -33 149 -35 l 72 -33 l 72 433 l -7 433 l -7 510 m 331 729 q 323 794 331 768 q 299 836 315 821 q 256 858 283 851 q 189 864 229 864 l 182 864 l 182 510 l 297 510 l 297 433 l 185 433 l 185 101 l 235 101 q 315 126 292 101 q 336 224 338 151 l 331 729 z "},"đ":{"ha":475,"x_min":-7,"x_max":450,"o":"m -7 510 l 68 510 l 68 994 l 243 997 q 446 721 444 997 q 449 373 447 492 q 450 243 450 254 q 437 108 450 161 q 394 22 424 54 q 317 -22 365 -10 q 199 -35 269 -35 l 174 -35 q 158 -35 167 -35 q 138 -33 149 -35 l 72 -33 l 72 433 l -7 433 l -7 510 m 331 729 q 323 794 331 768 q 299 836 315 821 q 256 858 283 851 q 189 864 229 864 l 182 864 l 182 510 l 297 510 l 297 433 l 185 433 l 185 101 l 235 101 q 315 126 292 101 q 336 224 338 151 l 331 729 z "},"Ē":{"ha":383,"x_min":38,"x_max":379,"o":"m 379 64 l 75 54 l 38 1081 l 329 1093 l 332 961 l 156 956 l 165 660 l 315 664 l 319 533 l 171 529 l 182 193 l 375 200 l 379 64 m 69 1236 l 314 1236 l 314 1175 l 69 1175 l 69 1236 z "},"ē":{"ha":383,"x_min":38,"x_max":379,"o":"m 379 64 l 75 54 l 38 1081 l 329 1093 l 332 961 l 156 956 l 165 660 l 315 664 l 319 533 l 171 529 l 182 193 l 375 200 l 379 64 m 69 1236 l 314 1236 l 314 1175 l 69 1175 l 69 1236 z "},"Ĕ":{"ha":383,"x_min":38,"x_max":379,"o":"m 379 46 l 75 36 l 38 1063 l 329 1075 l 332 943 l 156 938 l 165 642 l 315 646 l 319 515 l 171 511 l 182 175 l 375 182 l 379 46 m 190 1108 q 94 1144 135 1108 q 46 1250 53 1179 l 128 1250 q 148 1194 136 1215 q 190 1172 160 1172 q 231 1194 221 1172 q 247 1250 242 1215 l 336 1250 q 285 1144 325 1179 q 190 1108 244 1108 z "},"ĕ":{"ha":383,"x_min":38,"x_max":379,"o":"m 379 46 l 75 36 l 38 1063 l 329 1075 l 332 943 l 156 938 l 165 642 l 315 646 l 319 515 l 171 511 l 182 175 l 375 182 l 379 46 m 190 1108 q 94 1144 135 1108 q 46 1250 53 1179 l 128 1250 q 148 1194 136 1215 q 190 1172 160 1172 q 231 1194 221 1172 q 247 1250 242 1215 l 336 1250 q 285 1144 325 1179 q 190 1108 244 1108 z "},"Ė":{"ha":383,"x_min":38,"x_max":379,"o":"m 379 24 l 75 14 l 38 1040 l 329 1053 l 332 921 l 156 915 l 165 619 l 315 624 l 319 493 l 171 489 l 182 153 l 375 160 l 379 24 m 247 1096 l 140 1093 l 136 1235 l 242 1238 l 247 1096 z "},"ė":{"ha":383,"x_min":38,"x_max":379,"o":"m 379 24 l 75 14 l 38 1040 l 329 1053 l 332 921 l 156 915 l 165 619 l 315 624 l 319 493 l 171 489 l 182 153 l 375 160 l 379 24 m 247 1096 l 140 1093 l 136 1235 l 242 1238 l 247 1096 z "},"Ę":{"ha":383,"x_min":38,"x_max":414,"o":"m 379 46 q 294 -64 294 -21 q 313 -111 294 -96 q 353 -126 331 -126 q 414 -92 385 -126 l 414 -169 q 342 -193 382 -193 q 259 -168 283 -193 q 235 -85 235 -143 q 262 -8 235 -39 q 339 44 289 24 l 75 36 l 38 1063 l 329 1075 l 332 943 l 156 938 l 165 642 l 315 646 l 319 515 l 171 511 l 182 175 l 375 182 l 379 46 z "},"ę":{"ha":383,"x_min":38,"x_max":414,"o":"m 379 46 q 294 -64 294 -21 q 313 -111 294 -96 q 353 -126 331 -126 q 414 -92 385 -126 l 414 -169 q 342 -193 382 -193 q 259 -168 283 -193 q 235 -85 235 -143 q 262 -8 235 -39 q 339 44 289 24 l 75 36 l 38 1063 l 329 1075 l 332 943 l 156 938 l 165 642 l 315 646 l 319 515 l 171 511 l 182 175 l 375 182 l 379 46 z "},"Ě":{"ha":383,"x_min":38,"x_max":379,"o":"m 379 46 l 75 36 l 38 1063 l 329 1075 l 332 943 l 156 938 l 165 642 l 315 646 l 319 515 l 171 511 l 182 175 l 375 182 l 379 46 m 183 1149 l 235 1247 l 314 1247 l 229 1107 l 136 1107 l 47 1247 l 129 1247 l 183 1149 z "},"ě":{"ha":383,"x_min":38,"x_max":379,"o":"m 379 46 l 75 36 l 38 1063 l 329 1075 l 332 943 l 156 938 l 165 642 l 315 646 l 319 515 l 171 511 l 182 175 l 375 182 l 379 46 m 183 1149 l 235 1247 l 314 1247 l 229 1107 l 136 1107 l 47 1247 l 129 1247 l 183 1149 z "},"Ğ":{"ha":447,"x_min":60,"x_max":433,"o":"m 433 10 l 346 10 l 340 83 q 214 -8 296 -8 q 147 12 176 -8 q 99 69 118 32 q 69 157 79 106 q 60 269 60 208 l 60 808 q 110 992 60 924 q 254 1061 161 1061 q 380 1004 338 1061 q 422 826 422 947 q 421 747 422 778 q 417 688 419 717 l 313 688 q 317 736 315 706 q 319 815 319 767 q 250 938 319 938 q 174 818 174 938 l 174 232 q 250 111 174 111 q 325 232 325 111 l 325 407 l 249 407 l 249 519 l 433 519 l 433 10 m 247 1108 q 151 1144 192 1108 q 103 1250 110 1179 l 185 1250 q 205 1194 193 1215 q 247 1172 217 1172 q 288 1194 278 1172 q 304 1250 299 1215 l 393 1250 q 342 1144 382 1179 q 247 1108 301 1108 z "},"ğ":{"ha":447,"x_min":60,"x_max":433,"o":"m 433 10 l 346 10 l 340 83 q 214 -8 296 -8 q 147 12 176 -8 q 99 69 118 32 q 69 157 79 106 q 60 269 60 208 l 60 808 q 110 992 60 924 q 254 1061 161 1061 q 380 1004 338 1061 q 422 826 422 947 q 421 747 422 778 q 417 688 419 717 l 313 688 q 317 736 315 706 q 319 815 319 767 q 250 938 319 938 q 174 818 174 938 l 174 232 q 250 111 174 111 q 325 232 325 111 l 325 407 l 249 407 l 249 519 l 433 519 l 433 10 m 247 1108 q 151 1144 192 1108 q 103 1250 110 1179 l 185 1250 q 205 1194 193 1215 q 247 1172 217 1172 q 288 1194 278 1172 q 304 1250 299 1215 l 393 1250 q 342 1144 382 1179 q 247 1108 301 1108 z "},"Ġ":{"ha":447,"x_min":44,"x_max":418,"o":"m 418 -3 l 331 -3 l 325 71 q 199 -21 281 -21 q 132 -1 161 -21 q 83 56 103 19 q 54 144 64 93 q 44 257 44 196 l 44 796 q 95 980 44 911 q 239 1049 146 1049 q 365 992 322 1049 q 407 814 407 935 q 406 735 407 765 q 401 675 404 704 l 297 675 q 302 724 300 693 q 304 803 304 754 q 235 925 304 925 q 158 806 158 925 l 158 219 q 235 99 158 99 q 310 219 310 99 l 310 394 l 233 394 l 233 507 l 418 507 l 418 -3 m 279 1096 l 172 1093 l 168 1235 l 274 1238 l 279 1096 z "},"ġ":{"ha":447,"x_min":44,"x_max":418,"o":"m 418 -3 l 331 -3 l 325 71 q 199 -21 281 -21 q 132 -1 161 -21 q 83 56 103 19 q 54 144 64 93 q 44 257 44 196 l 44 796 q 95 980 44 911 q 239 1049 146 1049 q 365 992 322 1049 q 407 814 407 935 q 406 735 407 765 q 401 675 404 704 l 297 675 q 302 724 300 693 q 304 803 304 754 q 235 925 304 925 q 158 806 158 925 l 158 219 q 235 99 158 99 q 310 219 310 99 l 310 394 l 233 394 l 233 507 l 418 507 l 418 -3 m 279 1096 l 172 1093 l 168 1235 l 274 1238 l 279 1096 z "},"Ģ":{"ha":447,"x_min":43,"x_max":417,"o":"m 417 50 l 329 50 l 324 124 q 197 32 279 32 q 131 52 160 32 q 82 109 101 72 q 53 197 63 146 q 43 310 43 249 l 43 849 q 94 1033 43 964 q 238 1101 144 1101 q 363 1044 321 1101 q 406 867 406 988 q 404 788 406 818 q 400 728 403 757 l 296 728 q 301 776 299 746 q 303 856 303 807 q 233 978 303 978 q 157 858 157 978 l 157 272 q 233 151 157 151 q 308 272 308 151 l 308 447 l 232 447 l 232 560 l 417 560 l 417 50 m 276 -106 l 222 -233 l 189 -233 l 208 -112 l 169 -112 l 169 -12 l 275 -11 l 276 -106 z "},"ģ":{"ha":447,"x_min":43,"x_max":417,"o":"m 417 50 l 329 50 l 324 124 q 197 32 279 32 q 131 52 160 32 q 82 109 101 72 q 53 197 63 146 q 43 310 43 249 l 43 849 q 94 1033 43 964 q 238 1101 144 1101 q 363 1044 321 1101 q 406 867 406 988 q 404 788 406 818 q 400 728 403 757 l 296 728 q 301 776 299 746 q 303 856 303 807 q 233 978 303 978 q 157 858 157 978 l 157 272 q 233 151 157 151 q 308 272 308 151 l 308 447 l 232 447 l 232 560 l 417 560 l 417 50 m 276 -106 l 222 -233 l 189 -233 l 208 -112 l 169 -112 l 169 -12 l 275 -11 l 276 -106 z "},"Ħ":{"ha":469,"x_min":19,"x_max":513,"o":"m 22 786 l 81 785 l 86 993 l 197 993 l 190 782 l 339 778 l 343 958 l 454 956 l 449 775 l 513 774 l 513 713 l 447 714 l 429 -42 l 317 -42 l 329 431 l 182 435 l 169 -6 l 60 -1 l 79 724 l 19 725 l 22 786 m 333 560 l 338 717 l 189 721 l 185 564 l 333 560 z "},"ħ":{"ha":469,"x_min":19,"x_max":513,"o":"m 22 786 l 81 785 l 86 993 l 197 993 l 190 782 l 339 778 l 343 958 l 454 956 l 449 775 l 513 774 l 513 713 l 447 714 l 429 -42 l 317 -42 l 329 431 l 182 435 l 169 -6 l 60 -1 l 79 724 l 19 725 l 22 786 m 333 560 l 338 717 l 189 721 l 185 564 l 333 560 z "},"Ī":{"ha":293,"x_min":26,"x_max":271,"o":"m 26 1236 l 271 1236 l 271 1175 l 26 1175 l 26 1236 m 72 1 l 72 1076 l 203 1076 l 203 1 l 72 1 z "},"ī":{"ha":293,"x_min":26,"x_max":271,"o":"m 26 1236 l 271 1236 l 271 1175 l 26 1175 l 26 1236 m 72 1 l 72 1076 l 203 1076 l 203 1 l 72 1 z "},"Ĭ":{"ha":293,"x_min":-6,"x_max":303,"o":"m 139 1106 q 42 1141 83 1106 q -6 1247 1 1176 l 76 1247 q 97 1191 85 1213 q 139 1169 108 1169 q 180 1191 169 1169 q 196 1247 190 1213 l 285 1247 q 233 1141 274 1176 q 139 1106 193 1106 m 1 111 l 94 111 l 94 154 l 208 157 l 208 115 l 303 115 l 156 -37 l 1 111 m 93 215 l 89 332 l 203 336 l 207 217 l 93 215 m 89 393 l 86 511 l 200 514 l 203 394 l 89 393 m 85 572 l 82 689 l 199 693 l 199 574 l 85 572 m 79 750 l 79 868 l 194 871 l 194 751 l 79 750 m 76 939 l 76 1026 l 192 1029 l 192 939 l 76 939 z "},"ĭ":{"ha":293,"x_min":-6,"x_max":303,"o":"m 139 1106 q 42 1141 83 1106 q -6 1247 1 1176 l 76 1247 q 97 1191 85 1213 q 139 1169 108 1169 q 180 1191 169 1169 q 196 1247 190 1213 l 285 1247 q 233 1141 274 1176 q 139 1106 193 1106 m 1 111 l 94 111 l 94 154 l 208 157 l 208 115 l 303 115 l 156 -37 l 1 111 m 93 215 l 89 332 l 203 336 l 207 217 l 93 215 m 89 393 l 86 511 l 200 514 l 203 394 l 89 393 m 85 572 l 82 689 l 199 693 l 199 574 l 85 572 m 79 750 l 79 868 l 194 871 l 194 751 l 79 750 m 76 939 l 76 1026 l 192 1029 l 192 939 l 76 939 z "},"Į":{"ha":293,"x_min":17,"x_max":317,"o":"m 317 999 l 225 999 l 225 957 l 111 957 l 111 1001 l 17 1001 l 168 1149 l 317 999 m 224 896 l 221 778 l 107 778 l 110 897 l 224 896 m 219 717 l 219 600 l 107 600 l 107 719 l 219 717 m 217 539 l 217 421 l 104 421 l 104 540 l 217 539 m 215 360 l 215 243 l 103 243 l 103 363 l 215 360 m 214 172 l 211 85 l 99 85 l 99 172 l 214 172 m 200 21 q 115 -89 115 -46 q 133 -136 115 -121 q 174 -151 151 -151 q 235 -117 206 -151 l 235 -194 q 163 -218 203 -218 q 80 -193 104 -218 q 56 -110 56 -168 q 83 -32 56 -64 q 163 21 111 0 l 200 21 z "},"į":{"ha":293,"x_min":17,"x_max":317,"o":"m 317 999 l 225 999 l 225 957 l 111 957 l 111 1001 l 17 1001 l 168 1149 l 317 999 m 224 896 l 221 778 l 107 778 l 110 897 l 224 896 m 219 717 l 219 600 l 107 600 l 107 719 l 219 717 m 217 539 l 217 421 l 104 421 l 104 540 l 217 539 m 215 360 l 215 243 l 103 243 l 103 363 l 215 360 m 214 172 l 211 85 l 99 85 l 99 172 l 214 172 m 200 21 q 115 -89 115 -46 q 133 -136 115 -121 q 174 -151 151 -151 q 235 -117 206 -151 l 235 -194 q 163 -218 203 -218 q 80 -193 104 -218 q 56 -110 56 -168 q 83 -32 56 -64 q 163 21 111 0 l 200 21 z "},"İ":{"ha":293,"x_min":79,"x_max":210,"o":"m 201 1096 l 94 1093 l 90 1235 l 196 1238 l 201 1096 m 79 -39 l 79 1036 l 210 1036 l 210 -39 l 79 -39 z "},"ı":{"ha":293,"x_min":63,"x_max":193,"o":"m 63 1 l 63 1076 l 193 1076 l 193 1 l 63 1 z "},"Ĳ":{"ha":774,"x_min":17,"x_max":731,"o":"m 317 999 l 225 999 l 225 957 l 111 957 l 111 1001 l 17 1001 l 168 1149 l 317 999 m 224 896 l 221 778 l 107 778 l 110 897 l 224 896 m 219 717 l 219 600 l 107 600 l 107 719 l 219 717 m 217 539 l 217 421 l 104 421 l 104 540 l 217 539 m 215 360 l 215 243 l 103 243 l 103 363 l 215 360 m 214 172 l 211 85 l 99 85 l 99 172 l 214 172 m 731 258 q 685 63 731 128 q 542 -3 640 -3 q 453 14 489 -3 q 396 70 418 31 q 363 175 374 110 q 347 336 351 240 l 461 340 l 461 276 q 546 119 461 119 q 617 221 617 119 l 590 1064 l 703 1054 q 715 733 710 924 q 729 285 721 543 l 731 258 m 551 438 l 458 435 l 460 392 l 346 386 l 344 432 l 251 428 l 396 583 l 551 438 z "},"ĳ":{"ha":765,"x_min":-17,"x_max":756,"o":"m -17 111 l 76 111 l 76 154 l 190 157 l 190 115 l 285 115 l 138 -37 l -17 111 m 75 215 l 71 332 l 185 336 l 189 217 l 75 215 m 71 393 l 68 511 l 182 514 l 185 394 l 71 393 m 67 572 l 64 689 l 181 693 l 181 574 l 67 572 m 61 750 l 61 868 l 176 871 l 176 751 l 61 750 m 58 939 l 58 1026 l 174 1029 l 174 939 l 58 939 m 756 161 q 565 -85 756 -85 q 481 -68 515 -85 q 423 -12 446 -51 q 388 92 400 28 q 372 254 376 157 l 488 258 l 488 226 q 486 216 486 221 q 486 207 486 211 l 486 194 q 572 38 486 38 q 643 139 643 38 l 643 163 q 632 503 639 301 q 617 983 625 706 l 728 972 q 741 652 735 842 q 756 203 747 463 l 756 161 m 578 357 l 485 354 l 486 311 l 372 306 l 371 349 l 276 346 l 422 501 l 578 357 z "},"Ķ":{"ha":476,"x_min":40,"x_max":476,"o":"m 360 1 q 303 122 321 51 q 275 268 285 193 q 257 416 265 343 q 228 546 249 489 l 174 394 l 186 25 l 75 21 l 40 1047 l 150 1053 l 167 613 l 313 1028 l 421 1032 l 294 681 q 340 526 325 615 q 368 344 354 438 q 405 160 382 250 q 476 6 428 71 l 360 1 m 324 -106 l 269 -233 l 236 -233 l 256 -112 l 217 -112 l 217 -12 l 322 -11 l 324 -106 z "},"ķ":{"ha":476,"x_min":40,"x_max":476,"o":"m 360 1 q 303 122 321 51 q 275 268 285 193 q 257 416 265 343 q 228 546 249 489 l 174 394 l 186 25 l 75 21 l 40 1047 l 150 1053 l 167 613 l 313 1028 l 421 1032 l 294 681 q 340 526 325 615 q 368 344 354 438 q 405 160 382 250 q 476 6 428 71 l 360 1 m 324 -106 l 269 -233 l 236 -233 l 256 -112 l 217 -112 l 217 -12 l 322 -11 l 324 -106 z "},"Ĺ":{"ha":386,"x_min":54,"x_max":363,"o":"m 363 157 l 363 29 l 54 29 l 54 1057 l 161 1063 l 160 157 l 363 157 m 164 1111 l 79 1111 l 139 1253 l 251 1253 l 164 1111 z "},"ĺ":{"ha":386,"x_min":54,"x_max":363,"o":"m 363 157 l 363 29 l 54 29 l 54 1057 l 161 1063 l 160 157 l 363 157 m 164 1111 l 79 1111 l 139 1253 l 251 1253 l 164 1111 z "},"Ļ":{"ha":386,"x_min":81,"x_max":389,"o":"m 389 190 l 389 63 l 81 63 l 81 1090 l 188 1096 l 186 190 l 389 190 m 268 -106 l 214 -233 l 181 -233 l 200 -112 l 161 -112 l 161 -12 l 267 -11 l 268 -106 z "},"ļ":{"ha":386,"x_min":81,"x_max":389,"o":"m 389 190 l 389 63 l 81 63 l 81 1090 l 188 1096 l 186 190 l 389 190 m 268 -106 l 214 -233 l 181 -233 l 200 -112 l 161 -112 l 161 -12 l 267 -11 l 268 -106 z "},"Ľ":{"ha":386,"x_min":81,"x_max":389,"o":"m 389 190 l 389 63 l 81 63 l 81 1090 l 188 1096 l 186 190 l 389 190 m 368 1021 l 314 893 l 281 893 l 300 1014 l 261 1014 l 261 1114 l 367 1115 l 368 1021 z "},"ľ":{"ha":386,"x_min":81,"x_max":389,"o":"m 389 190 l 389 63 l 81 63 l 81 1090 l 188 1096 l 186 190 l 389 190 m 368 1021 l 314 893 l 281 893 l 300 1014 l 261 1014 l 261 1114 l 367 1115 l 368 1021 z "},"Ŀ":{"ha":386,"x_min":81,"x_max":389,"o":"m 389 190 l 389 63 l 81 63 l 81 1090 l 188 1096 l 186 190 l 389 190 m 358 522 l 251 519 l 247 661 l 353 664 l 358 522 z "},"ŀ":{"ha":386,"x_min":81,"x_max":389,"o":"m 389 190 l 389 63 l 81 63 l 81 1090 l 188 1096 l 186 190 l 389 190 m 358 522 l 251 519 l 247 661 l 353 664 l 358 522 z "},"Ł":{"ha":386,"x_min":81,"x_max":389,"o":"m 365 682 l 186 529 l 186 190 l 389 190 l 389 63 l 81 63 l 81 1090 l 189 1106 l 189 632 l 322 744 l 365 682 z "},"ł":{"ha":386,"x_min":72,"x_max":381,"o":"m 357 710 l 178 557 l 178 218 l 381 218 l 381 90 l 72 90 l 72 1118 l 181 1133 l 181 660 l 314 772 l 357 710 z "},"Ń":{"ha":494,"x_min":75,"x_max":496,"o":"m 496 951 l 469 -46 l 364 -43 l 197 603 l 193 601 l 176 -53 l 75 -50 l 103 990 l 203 990 l 372 299 l 392 956 l 496 951 m 313 1050 l 228 1050 l 288 1192 l 400 1192 l 313 1050 z "},"ń":{"ha":494,"x_min":75,"x_max":496,"o":"m 496 951 l 469 -46 l 364 -43 l 197 603 l 193 601 l 176 -53 l 75 -50 l 103 990 l 203 990 l 372 299 l 392 956 l 496 951 m 313 1050 l 228 1050 l 288 1192 l 400 1192 l 313 1050 z "},"Ņ":{"ha":494,"x_min":50,"x_max":471,"o":"m 471 1032 l 444 35 l 339 38 l 172 683 l 168 682 l 151 28 l 50 31 l 78 1071 l 178 1071 l 347 379 l 367 1036 l 471 1032 m 304 -87 l 250 -215 l 217 -215 l 236 -94 l 197 -94 l 197 6 l 303 7 l 304 -87 z "},"ņ":{"ha":494,"x_min":50,"x_max":471,"o":"m 471 1032 l 444 35 l 339 38 l 172 683 l 168 682 l 151 28 l 50 31 l 78 1071 l 178 1071 l 347 379 l 367 1036 l 471 1032 m 304 -87 l 250 -215 l 217 -215 l 236 -94 l 197 -94 l 197 6 l 303 7 l 304 -87 z "},"Ň":{"ha":494,"x_min":75,"x_max":496,"o":"m 496 951 l 469 -46 l 364 -43 l 197 603 l 193 601 l 176 -53 l 75 -50 l 103 990 l 203 990 l 372 299 l 392 956 l 496 951 m 307 1097 l 358 1196 l 438 1196 l 353 1056 l 260 1056 l 171 1196 l 253 1196 l 307 1097 z "},"ň":{"ha":494,"x_min":75,"x_max":496,"o":"m 496 951 l 469 -46 l 364 -43 l 197 603 l 193 601 l 176 -53 l 75 -50 l 103 990 l 203 990 l 372 299 l 392 956 l 496 951 m 307 1097 l 358 1196 l 438 1196 l 353 1056 l 260 1056 l 171 1196 l 253 1196 l 307 1097 z "},"Ŋ":{"ha":494,"x_min":33,"x_max":454,"o":"m 431 -56 q 382 -247 426 -192 q 250 -301 338 -301 q 181 -290 214 -301 q 126 -262 149 -278 l 194 -157 q 221 -172 204 -165 q 254 -179 238 -179 q 308 -151 290 -179 q 325 -43 325 -124 l 156 603 l 151 601 l 135 -53 l 33 -50 l 61 990 l 161 990 l 338 296 l 350 956 l 454 951 l 431 -56 z "},"ŋ":{"ha":494,"x_min":33,"x_max":454,"o":"m 431 -56 q 382 -247 426 -192 q 250 -301 338 -301 q 181 -290 214 -301 q 126 -262 149 -278 l 194 -157 q 221 -172 204 -165 q 254 -179 238 -179 q 308 -151 290 -179 q 325 -43 325 -124 l 156 603 l 151 601 l 135 -53 l 33 -50 l 61 990 l 161 990 l 338 296 l 350 956 l 454 951 l 431 -56 z "},"Ō":{"ha":463,"x_min":40,"x_max":435,"o":"m 422 267 q 369 63 419 131 q 228 -4 319 -4 q 85 62 129 -4 q 40 263 40 128 l 56 819 q 109 1003 58 938 q 250 1068 160 1068 q 327 1051 293 1068 q 385 1002 361 1033 q 422 928 410 971 q 435 835 435 886 l 435 804 l 422 267 m 321 829 q 300 916 321 881 q 247 951 279 951 q 193 918 215 951 q 169 825 171 885 l 154 224 q 174 146 154 181 q 226 111 194 111 q 282 146 260 111 q 304 236 304 181 l 321 829 m 143 1219 l 388 1219 l 388 1158 l 143 1158 l 143 1219 z "},"ō":{"ha":463,"x_min":40,"x_max":435,"o":"m 422 267 q 369 63 419 131 q 228 -4 319 -4 q 85 62 129 -4 q 40 263 40 128 l 56 819 q 109 1003 58 938 q 250 1068 160 1068 q 327 1051 293 1068 q 385 1002 361 1033 q 422 928 410 971 q 435 835 435 886 l 435 804 l 422 267 m 321 829 q 300 916 321 881 q 247 951 279 951 q 193 918 215 951 q 169 825 171 885 l 154 224 q 174 146 154 181 q 226 111 194 111 q 282 146 260 111 q 304 236 304 181 l 321 829 m 143 1219 l 388 1219 l 388 1158 l 143 1158 l 143 1219 z "},"Ŏ":{"ha":463,"x_min":39,"x_max":433,"o":"m 421 244 q 368 41 418 108 q 226 -26 318 -26 q 83 40 128 -26 q 39 240 39 106 l 54 797 q 108 981 57 915 q 249 1046 158 1046 q 326 1028 292 1046 q 384 980 360 1011 q 421 906 408 949 q 433 813 433 864 l 433 782 l 421 244 m 319 807 q 299 894 319 858 q 246 929 278 929 q 192 896 214 929 q 168 803 169 863 l 153 201 q 173 124 153 158 q 225 89 193 89 q 281 124 258 89 q 303 214 303 158 l 319 807 m 257 1093 q 160 1128 201 1093 q 113 1235 119 1164 l 194 1235 q 215 1178 203 1200 q 257 1157 226 1157 q 298 1178 288 1157 q 314 1235 308 1200 l 403 1235 q 351 1128 392 1164 q 257 1093 311 1093 z "},"ŏ":{"ha":463,"x_min":39,"x_max":433,"o":"m 421 244 q 368 41 418 108 q 226 -26 318 -26 q 83 40 128 -26 q 39 240 39 106 l 54 797 q 108 981 57 915 q 249 1046 158 1046 q 326 1028 292 1046 q 384 980 360 1011 q 421 906 408 949 q 433 813 433 864 l 433 782 l 421 244 m 319 807 q 299 894 319 858 q 246 929 278 929 q 192 896 214 929 q 168 803 169 863 l 153 201 q 173 124 153 158 q 225 89 193 89 q 281 124 258 89 q 303 214 303 158 l 319 807 m 257 1093 q 160 1128 201 1093 q 113 1235 119 1164 l 194 1235 q 215 1178 203 1200 q 257 1157 226 1157 q 298 1178 288 1157 q 314 1235 308 1200 l 403 1235 q 351 1128 392 1164 q 257 1093 311 1093 z "},"Ő":{"ha":463,"x_min":39,"x_max":451,"o":"m 421 271 q 368 67 418 135 q 226 0 318 0 q 83 66 128 0 q 39 267 39 132 l 54 824 q 108 1007 57 942 q 249 1072 158 1072 q 326 1055 292 1072 q 384 1006 360 1038 q 421 933 408 975 q 433 839 433 890 l 433 808 l 421 271 m 319 833 q 299 920 319 885 q 246 956 278 956 q 192 922 214 956 q 168 829 169 889 l 153 228 q 173 150 153 185 q 225 115 193 115 q 281 150 258 115 q 303 240 303 185 l 319 833 m 364 1111 l 279 1111 l 339 1253 l 451 1253 l 364 1111 m 211 1111 l 126 1111 l 186 1253 l 299 1253 l 211 1111 z "},"ő":{"ha":463,"x_min":39,"x_max":451,"o":"m 421 271 q 368 67 418 135 q 226 0 318 0 q 83 66 128 0 q 39 267 39 132 l 54 824 q 108 1007 57 942 q 249 1072 158 1072 q 326 1055 292 1072 q 384 1006 360 1038 q 421 933 408 975 q 433 839 433 890 l 433 808 l 421 271 m 319 833 q 299 920 319 885 q 246 956 278 956 q 192 922 214 956 q 168 829 169 889 l 153 228 q 173 150 153 185 q 225 115 193 115 q 281 150 258 115 q 303 240 303 185 l 319 833 m 364 1111 l 279 1111 l 339 1253 l 451 1253 l 364 1111 m 211 1111 l 126 1111 l 186 1253 l 299 1253 l 211 1111 z "},"Œ":{"ha":646,"x_min":63,"x_max":646,"o":"m 646 49 l 342 46 q 254 25 304 25 q 63 288 64 25 l 67 844 q 117 1032 68 967 q 263 1097 167 1097 q 349 1075 313 1097 l 621 1076 l 621 947 l 444 947 l 444 647 l 597 647 l 597 519 l 447 519 l 447 182 l 644 182 l 646 49 m 331 861 q 310 946 331 910 q 254 982 289 982 q 201 944 221 982 q 181 854 181 907 l 176 261 q 199 174 176 208 q 253 140 221 140 q 306 178 288 140 q 329 268 325 215 l 331 861 z "},"œ":{"ha":646,"x_min":63,"x_max":646,"o":"m 646 49 l 342 46 q 254 25 304 25 q 63 288 64 25 l 67 844 q 117 1032 68 967 q 263 1097 167 1097 q 349 1075 313 1097 l 621 1076 l 621 947 l 444 947 l 444 647 l 597 647 l 597 519 l 447 519 l 447 182 l 644 182 l 646 49 m 331 861 q 310 946 331 910 q 254 982 289 982 q 201 944 221 982 q 181 854 181 907 l 176 261 q 199 174 176 208 q 253 140 221 140 q 306 178 288 140 q 329 268 325 215 l 331 861 z "},"Ŕ":{"ha":481,"x_min":46,"x_max":488,"o":"m 372 -1 q 333 43 344 18 q 315 108 322 68 q 312 144 313 121 q 310 195 311 167 q 308 256 310 224 q 301 318 306 288 q 285 394 296 358 q 254 449 274 429 l 176 447 l 193 18 l 81 11 l 46 1029 q 171 1034 129 1032 q 211 1036 213 1036 q 310 1021 268 1036 q 378 968 351 1006 q 417 869 404 931 q 429 715 429 807 q 409 581 429 639 q 346 496 389 522 q 386 424 372 468 q 406 329 400 381 q 413 238 410 285 q 422 147 415 190 q 443 65 428 103 q 488 1 458 26 l 372 -1 m 315 721 q 310 818 315 782 q 290 874 304 854 q 253 899 276 893 q 194 904 229 904 l 163 904 l 174 576 q 231 579 204 576 q 276 596 257 582 q 305 639 294 610 q 315 721 315 668 m 239 1111 l 154 1111 l 214 1253 l 326 1253 l 239 1111 z "},"ŕ":{"ha":481,"x_min":46,"x_max":488,"o":"m 372 -1 q 333 43 344 18 q 315 108 322 68 q 312 144 313 121 q 310 195 311 167 q 308 256 310 224 q 301 318 306 288 q 285 394 296 358 q 254 449 274 429 l 176 447 l 193 18 l 81 11 l 46 1029 q 171 1034 129 1032 q 211 1036 213 1036 q 310 1021 268 1036 q 378 968 351 1006 q 417 869 404 931 q 429 715 429 807 q 409 581 429 639 q 346 496 389 522 q 386 424 372 468 q 406 329 400 381 q 413 238 410 285 q 422 147 415 190 q 443 65 428 103 q 488 1 458 26 l 372 -1 m 315 721 q 310 818 315 782 q 290 874 304 854 q 253 899 276 893 q 194 904 229 904 l 163 904 l 174 576 q 231 579 204 576 q 276 596 257 582 q 305 639 294 610 q 315 721 315 668 m 239 1111 l 154 1111 l 214 1253 l 326 1253 l 239 1111 z "},"Ŗ":{"ha":481,"x_min":38,"x_max":479,"o":"m 364 40 q 325 85 336 60 q 307 150 314 110 q 303 185 304 163 q 302 237 303 208 q 299 297 301 265 q 293 360 297 329 q 276 435 288 400 q 246 490 265 471 l 168 489 l 185 60 l 72 53 l 38 1071 q 163 1076 121 1074 q 203 1078 204 1078 q 301 1063 260 1078 q 369 1010 343 1047 q 408 910 396 972 q 421 757 421 849 q 401 622 421 681 q 338 538 381 564 q 378 466 364 510 q 397 371 392 422 q 404 279 401 326 q 413 188 407 232 q 435 106 419 144 q 479 43 450 68 l 364 40 m 307 763 q 301 860 307 824 q 282 915 296 896 q 244 940 268 935 q 186 946 221 946 l 154 946 l 165 618 q 222 621 196 618 q 267 638 249 624 q 297 681 286 651 q 307 763 307 710 m 293 -106 l 239 -233 l 206 -233 l 225 -112 l 186 -112 l 186 -12 l 292 -11 l 293 -106 z "},"ŗ":{"ha":481,"x_min":38,"x_max":479,"o":"m 364 40 q 325 85 336 60 q 307 150 314 110 q 303 185 304 163 q 302 237 303 208 q 299 297 301 265 q 293 360 297 329 q 276 435 288 400 q 246 490 265 471 l 168 489 l 185 60 l 72 53 l 38 1071 q 163 1076 121 1074 q 203 1078 204 1078 q 301 1063 260 1078 q 369 1010 343 1047 q 408 910 396 972 q 421 757 421 849 q 401 622 421 681 q 338 538 381 564 q 378 466 364 510 q 397 371 392 422 q 404 279 401 326 q 413 188 407 232 q 435 106 419 144 q 479 43 450 68 l 364 40 m 307 763 q 301 860 307 824 q 282 915 296 896 q 244 940 268 935 q 186 946 221 946 l 154 946 l 165 618 q 222 621 196 618 q 267 638 249 624 q 297 681 286 651 q 307 763 307 710 m 293 -106 l 239 -233 l 206 -233 l 225 -112 l 186 -112 l 186 -12 l 292 -11 l 293 -106 z "},"Ř":{"ha":481,"x_min":42,"x_max":483,"o":"m 368 3 q 329 47 340 22 q 311 113 318 72 q 308 148 308 125 q 306 199 307 171 q 303 260 306 228 q 297 322 301 292 q 281 398 292 363 q 250 453 269 433 l 172 451 l 189 22 l 76 15 l 42 1033 q 167 1038 125 1036 q 207 1040 208 1040 q 306 1025 264 1040 q 374 972 347 1010 q 413 873 400 935 q 425 719 425 811 q 405 585 425 643 q 342 500 385 526 q 382 428 368 472 q 401 333 396 385 q 408 242 406 289 q 417 151 411 194 q 439 69 424 107 q 483 6 454 31 l 368 3 m 311 725 q 306 822 311 786 q 286 878 300 858 q 249 903 272 897 q 190 908 225 908 l 158 908 l 169 581 q 226 583 200 581 q 272 600 253 586 q 301 643 290 614 q 311 725 311 672 m 221 1132 l 272 1231 l 351 1231 l 267 1090 l 174 1090 l 85 1231 l 167 1231 l 221 1132 z "},"ř":{"ha":481,"x_min":42,"x_max":483,"o":"m 368 3 q 329 47 340 22 q 311 113 318 72 q 308 148 308 125 q 306 199 307 171 q 303 260 306 228 q 297 322 301 292 q 281 398 292 363 q 250 453 269 433 l 172 451 l 189 22 l 76 15 l 42 1033 q 167 1038 125 1036 q 207 1040 208 1040 q 306 1025 264 1040 q 374 972 347 1010 q 413 873 400 935 q 425 719 425 811 q 405 585 425 643 q 342 500 385 526 q 382 428 368 472 q 401 333 396 385 q 408 242 406 289 q 417 151 411 194 q 439 69 424 107 q 483 6 454 31 l 368 3 m 311 725 q 306 822 311 786 q 286 878 300 858 q 249 903 272 897 q 190 908 225 908 l 158 908 l 169 581 q 226 583 200 581 q 272 600 253 586 q 301 643 290 614 q 311 725 311 672 m 221 1132 l 272 1231 l 351 1231 l 267 1090 l 174 1090 l 85 1231 l 167 1231 l 221 1132 z "},"Ś":{"ha":435,"x_min":35,"x_max":433,"o":"m 433 238 q 419 138 433 185 q 378 58 404 92 q 317 4 353 24 q 240 -15 282 -15 q 156 8 194 -15 q 91 70 118 31 q 49 163 64 110 q 35 276 35 215 l 142 278 q 170 158 144 196 q 236 121 196 121 q 278 131 261 121 q 306 157 296 140 q 321 194 317 174 q 325 235 325 214 q 324 265 325 251 q 317 295 322 279 q 301 331 311 311 q 274 381 290 351 q 199 483 242 432 q 121 585 156 535 q 67 694 85 638 q 49 806 49 751 q 97 988 49 924 q 224 1053 144 1053 q 288 1042 257 1053 q 344 1008 319 1032 q 383 944 368 983 q 399 847 399 906 q 398 819 399 833 q 396 790 397 806 l 283 799 q 286 828 286 814 q 286 853 286 842 q 236 928 286 928 q 158 819 158 928 q 172 740 158 779 q 229 640 185 700 q 296 553 261 596 q 363 467 331 511 q 417 355 400 413 q 433 238 433 297 m 229 1111 l 144 1111 l 204 1253 l 317 1253 l 229 1111 z "},"ś":{"ha":435,"x_min":35,"x_max":433,"o":"m 433 238 q 419 138 433 185 q 378 58 404 92 q 317 4 353 24 q 240 -15 282 -15 q 156 8 194 -15 q 91 70 118 31 q 49 163 64 110 q 35 276 35 215 l 142 278 q 170 158 144 196 q 236 121 196 121 q 278 131 261 121 q 306 157 296 140 q 321 194 317 174 q 325 235 325 214 q 324 265 325 251 q 317 295 322 279 q 301 331 311 311 q 274 381 290 351 q 199 483 242 432 q 121 585 156 535 q 67 694 85 638 q 49 806 49 751 q 97 988 49 924 q 224 1053 144 1053 q 288 1042 257 1053 q 344 1008 319 1032 q 383 944 368 983 q 399 847 399 906 q 398 819 399 833 q 396 790 397 806 l 283 799 q 286 828 286 814 q 286 853 286 842 q 236 928 286 928 q 158 819 158 928 q 172 740 158 779 q 229 640 185 700 q 296 553 261 596 q 363 467 331 511 q 417 355 400 413 q 433 238 433 297 m 229 1111 l 144 1111 l 204 1253 l 317 1253 l 229 1111 z "},"Ş":{"ha":435,"x_min":29,"x_max":428,"o":"m 428 290 q 413 191 428 238 q 373 110 399 144 q 312 57 347 76 q 235 38 276 38 q 151 60 189 38 q 85 123 113 83 q 44 215 58 163 q 29 329 29 268 l 136 331 q 165 211 139 249 q 231 174 190 174 q 273 183 256 174 q 301 210 290 193 q 315 247 311 226 q 319 288 319 267 q 318 318 319 304 q 311 348 317 332 q 295 384 306 364 q 268 433 285 404 q 193 536 236 485 q 115 638 150 588 q 61 747 79 690 q 43 858 43 804 q 91 1041 43 976 q 218 1106 139 1106 q 283 1095 251 1106 q 338 1060 314 1085 q 378 997 363 1036 q 393 900 393 958 q 392 872 393 886 q 390 843 392 858 l 278 851 q 281 881 281 867 q 281 906 281 894 q 231 981 281 981 q 153 872 153 981 q 166 792 153 832 q 224 693 179 753 q 290 606 256 649 q 357 519 325 564 q 411 408 394 465 q 428 290 428 350 m 271 -106 l 217 -233 l 183 -233 l 203 -112 l 164 -112 l 164 -12 l 269 -11 l 271 -106 z "},"ş":{"ha":435,"x_min":29,"x_max":428,"o":"m 428 290 q 413 191 428 238 q 373 110 399 144 q 312 57 347 76 q 235 38 276 38 q 151 60 189 38 q 85 123 113 83 q 44 215 58 163 q 29 329 29 268 l 136 331 q 165 211 139 249 q 231 174 190 174 q 273 183 256 174 q 301 210 290 193 q 315 247 311 226 q 319 288 319 267 q 318 318 319 304 q 311 348 317 332 q 295 384 306 364 q 268 433 285 404 q 193 536 236 485 q 115 638 150 588 q 61 747 79 690 q 43 858 43 804 q 91 1041 43 976 q 218 1106 139 1106 q 283 1095 251 1106 q 338 1060 314 1085 q 378 997 363 1036 q 393 900 393 958 q 392 872 393 886 q 390 843 392 858 l 278 851 q 281 881 281 867 q 281 906 281 894 q 231 981 281 981 q 153 872 153 981 q 166 792 153 832 q 224 693 179 753 q 290 606 256 649 q 357 519 325 564 q 411 408 394 465 q 428 290 428 350 m 271 -106 l 217 -233 l 183 -233 l 203 -112 l 164 -112 l 164 -12 l 269 -11 l 271 -106 z "},"Š":{"ha":435,"x_min":35,"x_max":433,"o":"m 433 238 q 419 138 433 185 q 378 58 404 92 q 317 4 353 24 q 240 -15 282 -15 q 156 8 194 -15 q 91 70 118 31 q 49 163 64 110 q 35 276 35 215 l 142 278 q 170 158 144 196 q 236 121 196 121 q 278 131 261 121 q 306 157 296 140 q 321 194 317 174 q 325 235 325 214 q 324 265 325 251 q 317 295 322 279 q 301 331 311 311 q 274 381 290 351 q 199 483 242 432 q 121 585 156 535 q 67 694 85 638 q 49 806 49 751 q 97 988 49 924 q 224 1053 144 1053 q 288 1042 257 1053 q 344 1008 319 1032 q 383 944 368 983 q 399 847 399 906 q 398 819 399 833 q 396 790 397 806 l 283 799 q 286 828 286 814 q 286 853 286 842 q 236 928 286 928 q 158 819 158 928 q 172 740 158 779 q 229 640 185 700 q 296 553 261 596 q 363 467 331 511 q 417 355 400 413 q 433 238 433 297 m 231 1147 l 282 1246 l 361 1246 l 276 1106 l 183 1106 l 94 1246 l 176 1246 l 231 1147 z "},"š":{"ha":435,"x_min":4,"x_max":421,"o":"m 421 308 q 372 114 421 182 q 232 46 324 46 q 150 67 188 46 q 85 126 113 89 q 40 215 57 164 q 21 325 24 267 l 128 333 q 160 218 135 254 q 224 182 186 182 q 294 215 275 182 q 313 289 313 247 q 310 322 313 307 q 302 354 308 338 q 284 392 296 371 q 253 443 272 414 q 172 540 219 492 q 89 638 125 589 q 24 758 44 696 q 4 881 4 819 q 51 1052 4 993 q 181 1111 99 1111 q 242 1101 211 1111 q 297 1067 272 1090 q 338 1007 322 1044 q 353 915 353 969 q 353 888 353 901 q 351 858 353 875 l 240 861 q 231 956 240 925 q 189 988 222 988 q 114 890 114 988 q 117 846 114 867 q 128 803 119 825 q 152 756 136 781 q 194 700 168 731 q 267 617 229 657 q 338 533 304 576 q 421 308 421 426 m 224 1175 l 275 1274 l 354 1274 l 269 1133 l 176 1133 l 88 1274 l 169 1274 l 224 1175 z "},"Ţ":{"ha":428,"x_min":32,"x_max":422,"o":"m 422 983 l 278 983 l 274 50 l 161 50 l 165 983 l 32 983 l 32 1114 l 419 1114 l 422 983 m 267 -106 l 213 -233 l 179 -233 l 199 -112 l 160 -112 l 160 -12 l 265 -11 l 267 -106 z "},"ţ":{"ha":428,"x_min":32,"x_max":422,"o":"m 422 983 l 278 983 l 274 50 l 161 50 l 165 983 l 32 983 l 32 1114 l 419 1114 l 422 983 m 267 -106 l 213 -233 l 179 -233 l 199 -112 l 160 -112 l 160 -12 l 265 -11 l 267 -106 z "},"Ť":{"ha":428,"x_min":32,"x_max":422,"o":"m 422 935 l 278 935 l 278 253 l 165 253 l 165 935 l 32 935 l 32 1065 l 419 1065 l 422 935 m 372 149 l 221 0 l 71 149 l 164 149 l 164 193 l 278 193 l 278 149 l 372 149 m 217 1149 l 268 1247 l 347 1247 l 263 1107 l 169 1107 l 81 1247 l 163 1247 l 217 1149 z "},"ť":{"ha":428,"x_min":32,"x_max":422,"o":"m 422 935 l 278 935 l 278 253 l 165 253 l 165 935 l 32 935 l 32 1065 l 419 1065 l 422 935 m 372 149 l 221 0 l 71 149 l 164 149 l 164 193 l 278 193 l 278 149 l 372 149 m 217 1149 l 268 1247 l 347 1247 l 263 1107 l 169 1107 l 81 1247 l 163 1247 l 217 1149 z "},"Ŧ":{"ha":428,"x_min":32,"x_max":422,"o":"m 392 494 l 278 494 l 278 204 l 165 204 l 165 494 l 49 496 l 49 585 l 165 583 l 165 886 l 32 886 l 32 1017 l 419 1017 l 422 886 l 278 886 l 278 583 l 392 583 l 392 494 m 372 100 l 221 -49 l 71 100 l 164 100 l 164 144 l 278 144 l 278 100 l 372 100 z "},"ŧ":{"ha":428,"x_min":32,"x_max":422,"o":"m 392 494 l 278 494 l 278 204 l 165 204 l 165 494 l 49 496 l 49 585 l 165 583 l 165 886 l 32 886 l 32 1017 l 419 1017 l 422 886 l 278 886 l 278 583 l 392 583 l 392 494 m 372 100 l 221 -49 l 71 100 l 164 100 l 164 144 l 278 144 l 278 100 l 372 100 z "},"Ũ":{"ha":471,"x_min":71,"x_max":472,"o":"m 472 982 l 453 208 q 261 -62 446 -62 q 117 4 163 -62 q 71 206 71 71 l 93 990 l 206 985 l 185 182 q 202 102 183 133 q 261 71 221 71 q 338 183 333 71 l 365 988 l 472 982 m 179 1163 q 221 1192 193 1192 q 248 1184 231 1192 q 284 1167 265 1176 q 320 1149 303 1157 q 349 1142 338 1142 q 406 1207 382 1142 l 406 1107 q 356 1068 388 1068 q 327 1076 344 1068 q 292 1094 310 1085 q 257 1111 274 1103 q 229 1119 240 1119 q 179 1065 197 1119 l 179 1163 z "},"ũ":{"ha":471,"x_min":71,"x_max":472,"o":"m 472 982 l 453 208 q 261 -62 446 -62 q 117 4 163 -62 q 71 206 71 71 l 93 990 l 206 985 l 185 182 q 202 102 183 133 q 261 71 221 71 q 338 183 333 71 l 365 988 l 472 982 m 179 1163 q 221 1192 193 1192 q 248 1184 231 1192 q 284 1167 265 1176 q 320 1149 303 1157 q 349 1142 338 1142 q 406 1207 382 1142 l 406 1107 q 356 1068 388 1068 q 327 1076 344 1068 q 292 1094 310 1085 q 257 1111 274 1103 q 229 1119 240 1119 q 179 1065 197 1119 l 179 1163 z "},"Ū":{"ha":471,"x_min":71,"x_max":472,"o":"m 472 982 l 453 208 q 261 -62 446 -62 q 117 4 163 -62 q 71 206 71 71 l 93 990 l 206 985 l 185 182 q 202 102 183 133 q 261 71 221 71 q 338 183 333 71 l 365 988 l 472 982 m 163 1144 l 407 1144 l 407 1083 l 163 1083 l 163 1144 z "},"ū":{"ha":471,"x_min":71,"x_max":472,"o":"m 472 982 l 453 208 q 261 -62 446 -62 q 117 4 163 -62 q 71 206 71 71 l 93 990 l 206 985 l 185 182 q 202 102 183 133 q 261 71 221 71 q 338 183 333 71 l 365 988 l 472 982 m 163 1144 l 407 1144 l 407 1083 l 163 1083 l 163 1144 z "},"Ŭ":{"ha":471,"x_min":71,"x_max":472,"o":"m 472 982 l 453 208 q 261 -62 446 -62 q 117 4 163 -62 q 71 206 71 71 l 93 990 l 206 985 l 185 182 q 202 102 183 133 q 261 71 221 71 q 338 183 333 71 l 365 988 l 472 982 m 275 1044 q 178 1080 219 1044 q 131 1186 138 1115 l 213 1186 q 233 1130 221 1151 q 275 1108 244 1108 q 316 1130 306 1108 q 332 1186 326 1151 l 421 1186 q 369 1080 410 1115 q 275 1044 329 1044 z "},"ŭ":{"ha":471,"x_min":71,"x_max":472,"o":"m 472 982 l 453 208 q 261 -62 446 -62 q 117 4 163 -62 q 71 206 71 71 l 93 990 l 206 985 l 185 182 q 202 102 183 133 q 261 71 221 71 q 338 183 333 71 l 365 988 l 472 982 m 275 1044 q 178 1080 219 1044 q 131 1186 138 1115 l 213 1186 q 233 1130 221 1151 q 275 1108 244 1108 q 316 1130 306 1108 q 332 1186 326 1151 l 421 1186 q 369 1080 410 1115 q 275 1044 329 1044 z "},"Ů":{"ha":471,"x_min":71,"x_max":472,"o":"m 472 982 l 453 208 q 261 -62 446 -62 q 117 4 163 -62 q 71 206 71 71 l 93 990 l 206 985 l 185 182 q 202 102 183 133 q 261 71 221 71 q 338 183 333 71 l 365 988 l 472 982 m 253 1132 q 265 1097 253 1111 q 296 1083 278 1083 q 325 1097 314 1083 q 336 1132 336 1111 q 325 1166 336 1151 q 296 1181 314 1181 q 265 1166 278 1181 q 253 1132 253 1151 m 296 1040 q 235 1066 258 1040 q 211 1129 211 1092 q 235 1200 211 1172 q 296 1228 258 1228 q 357 1199 332 1228 q 382 1129 382 1169 q 357 1066 382 1092 q 296 1040 332 1040 z "},"ů":{"ha":471,"x_min":71,"x_max":472,"o":"m 472 982 l 453 208 q 261 -62 446 -62 q 117 4 163 -62 q 71 206 71 71 l 93 990 l 206 985 l 185 182 q 202 102 183 133 q 261 71 221 71 q 338 183 333 71 l 365 988 l 472 982 m 253 1132 q 265 1097 253 1111 q 296 1083 278 1083 q 325 1097 314 1083 q 336 1132 336 1111 q 325 1166 336 1151 q 296 1181 314 1181 q 265 1166 278 1181 q 253 1132 253 1151 m 296 1040 q 235 1066 258 1040 q 211 1129 211 1092 q 235 1200 211 1172 q 296 1228 258 1228 q 357 1199 332 1228 q 382 1129 382 1169 q 357 1066 382 1092 q 296 1040 332 1040 z "},"Ű":{"ha":471,"x_min":71,"x_max":474,"o":"m 472 982 l 453 208 q 261 -62 446 -62 q 117 4 163 -62 q 71 206 71 71 l 93 990 l 206 985 l 185 182 q 202 102 183 133 q 261 71 221 71 q 338 183 333 71 l 365 988 l 472 982 m 386 1043 l 301 1043 l 361 1185 l 474 1185 l 386 1043 m 233 1043 l 149 1043 l 208 1185 l 321 1185 l 233 1043 z "},"ű":{"ha":471,"x_min":71,"x_max":474,"o":"m 472 982 l 453 208 q 261 -62 446 -62 q 117 4 163 -62 q 71 206 71 71 l 93 990 l 206 985 l 185 182 q 202 102 183 133 q 261 71 221 71 q 338 183 333 71 l 365 988 l 472 982 m 386 1043 l 301 1043 l 361 1185 l 474 1185 l 386 1043 m 233 1043 l 149 1043 l 208 1185 l 321 1185 l 233 1043 z "},"Ų":{"ha":471,"x_min":58,"x_max":460,"o":"m 460 1038 l 440 264 q 391 63 438 131 q 257 -7 344 -4 q 206 -89 206 -54 q 224 -136 206 -121 q 264 -151 242 -151 q 325 -117 296 -151 l 325 -194 q 253 -218 293 -218 q 170 -193 194 -218 q 146 -110 146 -168 q 206 -3 146 -43 q 94 76 129 10 q 58 261 58 142 l 81 1046 l 193 1040 l 172 238 q 190 158 172 189 q 249 126 207 126 q 325 239 321 126 l 353 1043 l 460 1038 z "},"ų":{"ha":471,"x_min":58,"x_max":460,"o":"m 460 1038 l 440 264 q 391 63 438 131 q 257 -7 344 -4 q 206 -89 206 -54 q 224 -136 206 -121 q 264 -151 242 -151 q 325 -117 296 -151 l 325 -194 q 253 -218 293 -218 q 170 -193 194 -218 q 146 -110 146 -168 q 206 -3 146 -43 q 94 76 129 10 q 58 261 58 142 l 81 1046 l 193 1040 l 172 238 q 190 158 172 189 q 249 126 207 126 q 325 239 321 126 l 353 1043 l 460 1038 z "},"Ŵ":{"ha":638,"x_min":8,"x_max":626,"o":"m 626 1064 l 507 33 l 414 33 l 324 750 l 240 33 l 143 31 l 8 1074 l 118 1081 l 197 326 l 269 1031 l 365 1031 l 460 329 l 522 1064 l 626 1064 m 321 1268 l 249 1142 l 143 1138 l 269 1319 l 363 1324 l 497 1154 l 396 1149 l 321 1268 z "},"ŵ":{"ha":638,"x_min":8,"x_max":626,"o":"m 626 1064 l 507 33 l 414 33 l 324 750 l 240 33 l 143 31 l 8 1074 l 118 1081 l 197 326 l 269 1031 l 365 1031 l 460 329 l 522 1064 l 626 1064 m 321 1268 l 249 1142 l 143 1138 l 269 1319 l 363 1324 l 497 1154 l 396 1149 l 321 1268 z "},"Ŷ":{"ha":410,"x_min":0,"x_max":397,"o":"m 397 1050 l 264 444 l 275 18 l 163 15 l 153 421 l 0 1026 l 108 1033 l 208 625 l 283 1046 l 397 1050 m 207 1268 l 135 1142 l 29 1138 l 156 1319 l 249 1324 l 383 1154 l 282 1149 l 207 1268 z "},"ŷ":{"ha":410,"x_min":0,"x_max":397,"o":"m 397 1050 l 264 444 l 275 18 l 163 15 l 153 421 l 0 1026 l 108 1033 l 208 625 l 283 1046 l 397 1050 m 207 1268 l 135 1142 l 29 1138 l 156 1319 l 249 1324 l 383 1154 l 282 1149 l 207 1268 z "},"Ÿ":{"ha":410,"x_min":-14,"x_max":383,"o":"m 383 1050 l 250 444 l 261 18 l 149 15 l 139 421 l -14 1026 l 94 1033 l 194 625 l 269 1046 l 383 1050 m 351 1100 l 244 1097 l 240 1239 l 346 1242 l 351 1100 m 147 1090 l 40 1088 l 36 1229 l 142 1232 l 147 1090 z "},"Ź":{"ha":410,"x_min":24,"x_max":389,"o":"m 389 1033 l 389 894 l 139 146 l 376 146 l 376 10 l 24 10 l 24 158 l 269 897 l 82 897 l 69 1033 l 389 1033 m 257 1111 l 172 1111 l 232 1253 l 344 1253 l 257 1111 z "},"ź":{"ha":410,"x_min":24,"x_max":389,"o":"m 389 1033 l 389 894 l 139 146 l 376 146 l 376 10 l 24 10 l 24 158 l 269 897 l 82 897 l 69 1033 l 389 1033 m 257 1111 l 172 1111 l 232 1253 l 344 1253 l 257 1111 z "},"Ż":{"ha":410,"x_min":22,"x_max":388,"o":"m 388 993 l 388 854 l 138 106 l 375 106 l 375 -31 l 22 -31 l 22 118 l 268 857 l 81 857 l 68 993 l 388 993 m 274 1096 l 167 1093 l 163 1235 l 268 1238 l 274 1096 z "},"ż":{"ha":410,"x_min":22,"x_max":388,"o":"m 388 993 l 388 854 l 138 106 l 375 106 l 375 -31 l 22 -31 l 22 118 l 268 857 l 81 857 l 68 993 l 388 993 m 274 1096 l 167 1093 l 163 1235 l 268 1238 l 274 1096 z "},"Ž":{"ha":410,"x_min":49,"x_max":414,"o":"m 414 1033 l 414 894 l 164 146 l 401 146 l 401 10 l 49 10 l 49 158 l 294 897 l 107 897 l 94 1033 l 414 1033 m 258 1139 l 310 1238 l 389 1238 l 304 1097 l 211 1097 l 122 1238 l 204 1238 l 258 1139 z "},"ž":{"ha":410,"x_min":43,"x_max":401,"o":"m 382 1010 l 382 871 l 158 117 l 401 122 l 401 -25 l 43 -25 l 43 124 l 264 868 l 76 864 l 58 1003 l 382 1010 m 236 1114 l 288 1213 l 367 1213 l 282 1072 l 189 1072 l 100 1213 l 182 1213 l 236 1114 z "},"Ș":{"ha":435,"x_min":29,"x_max":428,"o":"m 428 290 q 413 191 428 238 q 373 110 399 144 q 312 57 347 76 q 235 38 276 38 q 151 60 189 38 q 85 123 113 83 q 44 215 58 163 q 29 329 29 268 l 136 331 q 165 211 139 249 q 231 174 190 174 q 273 183 256 174 q 301 210 290 193 q 315 247 311 226 q 319 288 319 267 q 318 318 319 304 q 311 348 317 332 q 295 384 306 364 q 268 433 285 404 q 193 536 236 485 q 115 638 150 588 q 61 747 79 690 q 43 858 43 804 q 91 1041 43 976 q 218 1106 139 1106 q 283 1095 251 1106 q 338 1060 314 1085 q 378 997 363 1036 q 393 900 393 958 q 392 872 393 886 q 390 843 392 858 l 278 851 q 281 881 281 867 q 281 906 281 894 q 231 981 281 981 q 153 872 153 981 q 166 792 153 832 q 224 693 179 753 q 290 606 256 649 q 357 519 325 564 q 411 408 394 465 q 428 290 428 350 m 271 -106 l 217 -233 l 183 -233 l 203 -112 l 164 -112 l 164 -12 l 269 -11 l 271 -106 z "},"ș":{"ha":435,"x_min":29,"x_max":428,"o":"m 428 290 q 413 191 428 238 q 373 110 399 144 q 312 57 347 76 q 235 38 276 38 q 151 60 189 38 q 85 123 113 83 q 44 215 58 163 q 29 329 29 268 l 136 331 q 165 211 139 249 q 231 174 190 174 q 273 183 256 174 q 301 210 290 193 q 315 247 311 226 q 319 288 319 267 q 318 318 319 304 q 311 348 317 332 q 295 384 306 364 q 268 433 285 404 q 193 536 236 485 q 115 638 150 588 q 61 747 79 690 q 43 858 43 804 q 91 1041 43 976 q 218 1106 139 1106 q 283 1095 251 1106 q 338 1060 314 1085 q 378 997 363 1036 q 393 900 393 958 q 392 872 393 886 q 390 843 392 858 l 278 851 q 281 881 281 867 q 281 906 281 894 q 231 981 281 981 q 153 872 153 981 q 166 792 153 832 q 224 693 179 753 q 290 606 256 649 q 357 519 325 564 q 411 408 394 465 q 428 290 428 350 m 271 -106 l 217 -233 l 183 -233 l 203 -112 l 164 -112 l 164 -12 l 269 -11 l 271 -106 z "},"Ț":{"ha":428,"x_min":32,"x_max":422,"o":"m 422 983 l 278 983 l 274 50 l 161 50 l 165 983 l 32 983 l 32 1114 l 419 1114 l 422 983 m 267 -106 l 213 -233 l 179 -233 l 199 -112 l 160 -112 l 160 -12 l 265 -11 l 267 -106 z "},"ț":{"ha":428,"x_min":32,"x_max":422,"o":"m 422 983 l 278 983 l 274 50 l 161 50 l 165 983 l 32 983 l 32 1114 l 419 1114 l 422 983 m 267 -106 l 213 -233 l 179 -233 l 199 -112 l 160 -112 l 160 -12 l 265 -11 l 267 -106 z "},"ˆ":{"ha":476,"x_min":206,"x_max":560,"o":"m 383 1268 l 311 1142 l 206 1138 l 332 1319 l 425 1324 l 560 1154 l 458 1149 l 383 1268 z "},"ˇ":{"ha":325,"x_min":28,"x_max":294,"o":"m 164 1149 l 215 1247 l 294 1247 l 210 1107 l 117 1107 l 28 1247 l 110 1247 l 164 1149 z "},"˘":{"ha":303,"x_min":7,"x_max":297,"o":"m 151 1108 q 55 1144 96 1108 q 7 1250 14 1179 l 89 1250 q 109 1194 97 1215 q 151 1172 121 1172 q 192 1194 182 1172 q 208 1250 203 1215 l 297 1250 q 246 1144 286 1179 q 151 1108 206 1108 z "},"˙":{"ha":214,"x_min":51,"x_max":163,"o":"m 163 1096 l 56 1093 l 51 1235 l 157 1238 l 163 1096 z "},"˚":{"ha":256,"x_min":43,"x_max":214,"o":"m 85 1197 q 97 1163 85 1176 q 128 1149 110 1149 q 157 1163 146 1149 q 168 1197 168 1176 q 157 1231 168 1217 q 128 1246 146 1246 q 97 1231 110 1246 q 85 1197 85 1217 m 128 1106 q 67 1131 90 1106 q 43 1194 43 1157 q 67 1265 43 1238 q 128 1293 90 1293 q 189 1264 164 1293 q 214 1194 214 1235 q 189 1131 214 1157 q 128 1106 164 1106 z "},"˛":{"ha":235,"x_min":29,"x_max":208,"o":"m 174 21 q 89 -89 89 -46 q 107 -136 89 -121 q 147 -151 125 -151 q 208 -117 179 -151 l 208 -194 q 136 -218 176 -218 q 53 -193 78 -218 q 29 -110 29 -168 q 57 -32 29 -64 q 136 21 85 0 l 174 21 z "},"˜":{"ha":299,"x_min":33,"x_max":260,"o":"m 33 1218 q 75 1247 47 1247 q 102 1240 85 1247 q 138 1222 119 1232 q 174 1205 157 1213 q 203 1197 192 1197 q 260 1263 236 1197 l 260 1163 q 210 1124 242 1124 q 181 1132 199 1124 q 146 1149 164 1140 q 111 1167 128 1158 q 83 1175 94 1175 q 33 1121 51 1175 l 33 1218 z "},"˝":{"ha":340,"x_min":29,"x_max":354,"o":"m 267 1111 l 182 1111 l 242 1253 l 354 1253 l 267 1111 m 114 1111 l 29 1111 l 89 1253 l 201 1253 l 114 1111 z "},"Ẁ":{"ha":638,"x_min":8,"x_max":626,"o":"m 626 1060 l 507 29 l 414 29 l 324 746 l 240 29 l 143 26 l 8 1069 l 118 1076 l 197 322 l 269 1026 l 365 1026 l 460 325 l 522 1060 l 626 1060 m 186 1247 l 296 1247 l 354 1107 l 275 1107 l 186 1247 z "},"ẁ":{"ha":638,"x_min":8,"x_max":626,"o":"m 626 1060 l 507 29 l 414 29 l 324 746 l 240 29 l 143 26 l 8 1069 l 118 1076 l 197 322 l 269 1026 l 365 1026 l 460 325 l 522 1060 l 626 1060 m 186 1247 l 296 1247 l 354 1107 l 275 1107 l 186 1247 z "},"Ẃ":{"ha":638,"x_min":8,"x_max":626,"o":"m 626 1067 l 507 36 l 414 36 l 324 753 l 240 36 l 143 33 l 8 1076 l 118 1083 l 197 329 l 269 1033 l 365 1033 l 460 332 l 522 1067 l 626 1067 m 361 1111 l 276 1111 l 336 1253 l 449 1253 l 361 1111 z "},"ẃ":{"ha":638,"x_min":8,"x_max":626,"o":"m 626 1067 l 507 36 l 414 36 l 324 753 l 240 36 l 143 33 l 8 1076 l 118 1083 l 197 329 l 269 1033 l 365 1033 l 460 332 l 522 1067 l 626 1067 m 361 1111 l 276 1111 l 336 1253 l 449 1253 l 361 1111 z "},"Ẅ":{"ha":638,"x_min":8,"x_max":626,"o":"m 626 1028 l 507 -3 l 414 -3 l 324 714 l 240 -3 l 143 -6 l 8 1038 l 118 1044 l 197 290 l 269 994 l 365 994 l 460 293 l 522 1028 l 626 1028 m 476 1106 l 369 1103 l 365 1244 l 471 1247 l 476 1106 m 272 1096 l 165 1093 l 161 1235 l 267 1238 l 272 1096 z "},"ẅ":{"ha":638,"x_min":8,"x_max":626,"o":"m 626 1028 l 507 -3 l 414 -3 l 324 714 l 240 -3 l 143 -6 l 8 1038 l 118 1044 l 197 290 l 269 994 l 365 994 l 460 293 l 522 1028 l 626 1028 m 476 1106 l 369 1103 l 365 1244 l 471 1247 l 476 1106 m 272 1096 l 165 1093 l 161 1235 l 267 1238 l 272 1096 z "},"Ỳ":{"ha":410,"x_min":-14,"x_max":383,"o":"m 383 1050 l 250 444 l 261 18 l 149 15 l 139 421 l -14 1026 l 94 1033 l 194 625 l 269 1046 l 383 1050 m 76 1247 l 186 1247 l 244 1107 l 165 1107 l 76 1247 z "},"ỳ":{"ha":410,"x_min":-14,"x_max":383,"o":"m 383 1050 l 250 444 l 261 18 l 149 15 l 139 421 l -14 1026 l 94 1033 l 194 625 l 269 1046 l 383 1050 m 76 1247 l 186 1247 l 244 1107 l 165 1107 l 76 1247 z "},"–":{"ha":546,"x_min":54,"x_max":493,"o":"m 54 567 l 493 567 l 493 436 l 54 436 l 54 567 z "},"—":{"ha":836,"x_min":54,"x_max":790,"o":"m 54 567 l 790 567 l 790 436 l 54 436 l 54 567 z "},"‘":{"ha":164,"x_min":19,"x_max":144,"o":"m 19 929 l 19 1081 l 81 1258 l 121 1258 l 96 1089 l 144 1089 l 144 929 l 19 929 z "},"’":{"ha":164,"x_min":24,"x_max":147,"o":"m 147 1107 q 117 1022 132 1067 q 85 931 101 978 l 44 931 l 69 1099 l 24 1099 l 24 1260 l 146 1260 l 147 1107 z "},"‚":{"ha":190,"x_min":58,"x_max":182,"o":"m 182 3 q 151 -81 167 -37 q 119 -174 136 -125 l 81 -174 l 104 -6 l 58 -6 l 58 154 l 181 156 q 181 88 181 117 q 182 42 182 60 l 182 3 z "},"“":{"ha":332,"x_min":19,"x_max":310,"o":"m 19 929 l 19 1081 l 81 1258 l 121 1258 l 96 1089 l 144 1089 l 144 931 l 19 929 m 185 929 l 185 1081 l 246 1258 l 286 1258 l 261 1089 l 310 1089 l 310 929 l 185 929 z "},"”":{"ha":339,"x_min":24,"x_max":301,"o":"m 147 1107 q 117 1022 132 1067 q 85 931 101 978 l 44 931 l 69 1099 l 24 1099 l 24 1260 l 146 1260 l 147 1107 m 301 1107 q 270 1022 286 1067 q 238 931 254 978 l 199 931 l 224 1099 l 176 1099 l 176 1260 l 299 1260 l 301 1107 z "},"„":{"ha":432,"x_min":58,"x_max":357,"o":"m 357 3 q 326 -81 342 -37 q 294 -174 311 -125 l 256 -174 l 279 -6 l 233 -6 l 233 154 l 356 156 q 356 88 356 117 q 357 42 357 60 l 357 3 m 182 3 q 151 -81 167 -37 q 119 -174 136 -125 l 81 -174 l 104 -6 l 58 -6 l 58 154 l 181 156 q 181 88 181 117 q 182 42 182 60 l 182 3 z "},"†":{"ha":469,"x_min":44,"x_max":425,"o":"m 296 694 l 263 35 l 214 35 l 181 694 l 44 694 l 44 775 l 181 775 l 181 936 l 296 936 l 296 775 l 425 775 l 425 694 l 296 694 z "},"‡":{"ha":469,"x_min":44,"x_max":433,"o":"m 208 485 l 181 694 l 44 694 l 44 775 l 181 775 l 181 936 l 296 936 l 296 775 l 425 775 l 425 694 l 296 694 l 268 485 l 297 242 l 433 242 l 433 160 l 297 160 l 297 0 l 182 0 l 182 160 l 53 160 l 53 242 l 182 242 l 208 485 z "},"•":{"ha":625,"x_min":42,"x_max":568,"o":"m 42 458 q 63 560 42 513 q 119 644 83 608 q 202 701 154 681 q 304 722 250 722 q 407 701 358 722 q 491 644 456 681 q 547 560 526 608 q 568 458 568 513 q 547 355 568 403 q 491 272 526 307 q 407 215 456 236 q 304 194 358 194 q 202 215 250 194 q 119 272 154 236 q 63 355 83 307 q 42 458 42 403 z "},"…":{"ha":788,"x_min":75,"x_max":700,"o":"m 182 14 l 75 11 l 75 156 l 182 156 l 182 14 m 439 14 l 332 11 l 332 156 l 439 156 l 439 14 m 700 1 l 593 -1 l 593 143 l 700 143 l 700 1 z "},"‰":{"ha":869,"x_min":68,"x_max":869,"o":"m 286 883 q 284 806 283 878 q 282 592 285 733 q 251 476 279 517 q 172 436 222 436 q 93 476 118 436 q 68 596 68 517 q 69 687 68 615 q 72 885 69 758 q 101 992 74 954 q 182 1029 129 1029 q 259 989 232 1029 q 286 883 286 949 m 211 900 q 202 931 211 918 q 179 943 193 943 q 154 932 163 943 q 146 901 146 921 l 140 571 q 149 535 140 551 q 175 519 157 519 q 199 534 190 519 q 207 571 207 549 l 211 900 m 571 1017 l 200 -11 l 118 -11 l 488 1017 l 571 1017 m 607 369 q 605 292 604 364 q 603 78 606 219 q 572 -37 600 3 q 493 -78 543 -78 q 414 -37 439 -78 q 389 82 389 3 q 390 173 389 101 q 393 371 390 244 q 422 478 394 440 q 503 515 450 515 q 580 475 553 515 q 607 369 607 435 m 532 386 q 523 417 532 404 q 500 429 514 429 q 475 418 483 429 q 467 388 467 407 l 461 57 q 469 22 461 38 q 496 6 478 6 q 519 20 511 6 q 528 57 528 35 l 532 386 m 869 369 q 867 292 867 364 q 865 78 868 219 q 834 -37 863 3 q 756 -78 806 -78 q 676 -37 701 -78 q 651 82 651 3 q 652 173 651 101 q 656 371 653 244 q 685 478 657 440 q 765 515 713 515 q 842 475 815 515 q 869 369 869 435 m 794 386 q 785 417 794 404 q 763 429 776 429 q 738 418 746 429 q 729 388 729 407 l 724 57 q 732 22 724 38 q 758 6 740 6 q 782 20 774 6 q 790 57 790 35 l 794 386 z "},"‹":{"ha":315,"x_min":21,"x_max":267,"o":"m 140 503 l 267 421 l 267 285 l 21 451 l 21 551 l 267 725 l 267 583 l 140 503 z "},"›":{"ha":321,"x_min":54,"x_max":299,"o":"m 182 506 l 54 586 l 54 725 l 299 557 l 299 456 l 54 285 l 54 425 l 182 506 z "},"⁄":{"ha":204,"x_min":-129,"x_max":324,"o":"m 324 1017 l -47 -11 l -129 -11 l 240 1017 l 324 1017 z "},"⁰":{"ha":289,"x_min":47,"x_max":265,"o":"m 265 883 q 263 806 263 878 q 261 592 264 733 q 230 476 258 517 q 151 436 201 436 q 72 476 97 436 q 47 596 47 517 q 48 687 47 615 q 51 885 49 758 q 81 992 53 954 q 161 1029 108 1029 q 238 989 211 1029 q 265 883 265 949 m 190 900 q 181 931 190 918 q 158 943 172 943 q 133 932 142 943 q 125 901 125 921 l 119 571 q 128 535 119 551 q 154 519 136 519 q 178 534 169 519 q 186 571 186 549 l 190 900 z "},"⁴":{"ha":290,"x_min":25,"x_max":267,"o":"m 267 692 l 217 690 l 221 556 l 150 550 l 144 689 l 28 683 l 25 761 l 129 1118 l 203 1121 l 214 768 l 264 769 l 267 692 m 142 767 l 136 921 l 94 764 l 142 767 z "},"⁵":{"ha":269,"x_min":47,"x_max":249,"o":"m 249 715 q 248 669 249 696 q 246 606 247 642 q 216 505 243 542 q 143 468 189 468 q 69 515 90 468 q 47 675 47 561 l 115 675 l 115 635 q 146 547 115 547 q 164 562 157 547 q 174 597 171 576 q 178 642 178 618 q 179 686 179 667 q 179 746 179 731 q 176 771 179 761 q 154 792 172 792 q 117 747 132 792 l 58 750 l 58 1063 l 244 1063 l 244 981 l 121 981 l 118 839 q 178 871 150 871 q 249 753 249 871 l 249 715 z "},"⁶":{"ha":288,"x_min":46,"x_max":264,"o":"m 264 721 q 260 622 264 664 q 244 551 256 579 q 211 509 233 524 q 154 494 189 494 q 47 653 46 494 l 49 926 q 76 1031 49 992 q 158 1071 104 1071 q 263 888 260 1071 l 188 888 l 188 913 q 156 986 188 986 q 131 973 140 986 q 122 943 122 960 l 122 828 q 151 850 136 842 q 182 858 167 858 q 264 721 264 858 m 188 738 q 161 779 188 779 q 122 747 140 779 l 122 629 q 131 593 122 608 q 154 578 140 578 q 178 592 169 578 q 188 629 188 607 l 188 738 z "},"⁷":{"ha":238,"x_min":42,"x_max":240,"o":"m 240 1039 l 236 975 l 132 460 l 58 460 l 163 954 l 42 960 l 44 1046 l 240 1039 z "},"⁸":{"ha":271,"x_min":36,"x_max":243,"o":"m 243 686 q 140 524 243 524 q 36 700 36 524 q 78 836 36 794 q 50 889 58 857 q 42 968 42 921 q 138 1114 42 1114 q 233 961 233 1114 q 225 888 233 917 q 197 838 217 858 q 231 778 218 818 q 243 686 243 739 m 165 960 q 158 1022 164 1000 q 138 1043 153 1043 q 110 967 110 1043 q 139 881 110 881 q 165 960 165 881 m 171 697 q 140 789 171 789 q 108 706 108 789 q 143 607 108 607 q 171 697 171 607 z "},"⁹":{"ha":286,"x_min":19,"x_max":251,"o":"m 250 638 q 251 622 250 631 q 251 607 251 613 q 224 507 251 543 q 144 471 196 471 q 65 513 93 471 q 36 649 36 556 l 110 651 q 118 575 111 593 q 144 557 125 557 q 167 569 160 557 q 176 597 175 582 l 169 747 q 115 718 146 718 q 19 915 19 718 q 129 1081 19 1081 q 236 925 228 1081 l 250 638 m 163 946 q 126 994 161 994 q 97 943 97 994 q 105 829 97 863 q 132 796 113 796 q 152 806 144 796 q 167 832 160 817 l 163 946 z "},"₀":{"ha":289,"x_min":47,"x_max":265,"o":"m 265 369 q 263 292 263 364 q 261 78 264 219 q 230 -37 258 3 q 151 -78 201 -78 q 72 -37 97 -78 q 47 82 47 3 q 48 173 47 101 q 51 371 49 244 q 81 478 53 440 q 161 515 108 515 q 238 475 211 515 q 265 369 265 435 m 190 386 q 181 417 190 404 q 158 429 172 429 q 133 418 142 429 q 125 388 125 407 l 119 57 q 128 22 119 38 q 154 6 136 6 q 178 20 169 6 q 186 57 186 35 l 190 386 z "},"₁":{"ha":175,"x_min":3,"x_max":144,"o":"m 144 8 l 69 6 l 60 443 l 4 440 l 3 501 q 79 574 54 525 l 132 575 l 144 8 z "},"₂":{"ha":275,"x_min":36,"x_max":244,"o":"m 244 25 l 38 19 l 36 104 q 81 195 57 144 q 126 297 106 246 q 159 397 146 349 q 172 478 172 444 q 140 522 172 522 q 114 500 121 522 q 107 426 107 478 l 107 406 l 36 406 l 36 419 q 61 556 36 511 q 143 601 86 601 q 216 567 190 601 q 242 465 242 532 q 197 275 242 388 q 169 210 188 251 q 118 108 150 169 l 244 111 l 244 25 z "},"₃":{"ha":275,"x_min":26,"x_max":239,"o":"m 239 88 q 140 -71 239 -71 q 33 121 43 -71 l 106 124 q 139 14 107 14 q 168 78 168 14 q 165 142 168 118 q 153 178 161 165 q 133 194 146 190 q 101 197 121 197 l 97 267 q 140 286 125 269 q 154 356 154 303 q 124 440 154 440 q 97 385 97 440 q 97 362 97 371 q 100 342 97 353 l 29 338 q 27 356 28 344 q 26 383 26 367 q 53 487 26 446 q 125 528 79 528 q 222 350 222 528 q 188 239 222 276 q 226 185 214 219 q 239 88 239 151 z "},"₄":{"ha":290,"x_min":25,"x_max":267,"o":"m 267 178 l 217 176 l 221 42 l 150 36 l 144 175 l 28 169 l 25 247 l 129 604 l 203 607 l 214 254 l 264 256 l 267 178 m 142 253 l 136 407 l 94 250 l 142 253 z "},"₅":{"ha":269,"x_min":47,"x_max":249,"o":"m 249 201 q 248 155 249 182 q 246 92 247 128 q 216 -9 243 28 q 143 -46 189 -46 q 69 1 90 -46 q 47 161 47 47 l 115 161 l 115 121 q 146 33 115 33 q 164 48 157 33 q 174 83 171 63 q 178 128 178 104 q 179 172 179 153 q 179 232 179 217 q 176 257 179 247 q 154 278 172 278 q 117 233 132 278 l 58 236 l 58 549 l 244 549 l 244 467 l 121 467 l 118 325 q 178 357 150 357 q 249 239 249 357 l 249 201 z "},"₆":{"ha":288,"x_min":46,"x_max":264,"o":"m 264 207 q 260 108 264 150 q 244 38 256 65 q 211 -5 233 10 q 154 -19 189 -19 q 47 139 46 -19 l 49 413 q 76 517 49 478 q 158 557 104 557 q 263 374 260 557 l 188 374 l 188 399 q 156 472 188 472 q 131 459 140 472 q 122 429 122 446 l 122 314 q 151 336 136 328 q 182 344 167 344 q 264 207 264 344 m 188 224 q 161 265 188 265 q 122 233 140 265 l 122 115 q 131 79 122 94 q 154 64 140 64 q 178 78 169 64 q 188 115 188 93 l 188 224 z "},"₇":{"ha":238,"x_min":42,"x_max":240,"o":"m 240 525 l 236 461 l 132 -54 l 58 -54 l 163 440 l 42 446 l 44 532 l 240 525 z "},"₈":{"ha":271,"x_min":36,"x_max":243,"o":"m 243 172 q 140 10 243 10 q 36 186 36 10 q 78 322 36 281 q 50 375 58 343 q 42 454 42 407 q 138 600 42 600 q 233 447 233 600 q 225 374 233 403 q 197 324 217 344 q 231 265 218 304 q 243 172 243 225 m 165 446 q 158 508 164 486 q 138 529 153 529 q 110 453 110 529 q 139 367 110 367 q 165 446 165 367 m 171 183 q 140 275 171 275 q 108 192 108 275 q 143 93 108 93 q 171 183 171 93 z "},"₉":{"ha":286,"x_min":19,"x_max":251,"o":"m 250 124 q 251 108 250 117 q 251 93 251 99 q 224 -7 251 29 q 144 -43 196 -43 q 65 -1 93 -43 q 36 135 36 42 l 110 138 q 118 61 111 79 q 144 43 125 43 q 167 56 160 43 q 176 83 175 68 l 169 233 q 115 204 146 204 q 19 401 19 204 q 129 567 19 567 q 236 411 228 567 l 250 124 m 163 432 q 126 481 161 481 q 97 429 97 481 q 105 315 97 349 q 132 282 113 282 q 152 292 144 282 q 167 318 160 303 l 163 432 z "},"€":{"ha":467,"x_min":11,"x_max":446,"o":"m 336 679 l 317 593 l 175 593 l 181 424 l 281 426 l 264 342 l 183 339 l 186 229 q 263 139 197 139 q 339 297 339 139 l 446 299 q 260 17 433 17 q 69 293 78 17 l 68 336 l 11 333 l 14 417 l 67 418 l 61 590 l 18 589 l 18 672 l 60 675 l 56 844 q 105 1023 56 957 q 250 1089 154 1089 q 344 1075 304 1089 q 414 1038 385 1061 l 385 917 q 271 967 351 967 q 194 940 219 967 q 168 853 168 914 l 174 679 l 336 679 z "},"™":{"ha":742,"x_min":19,"x_max":688,"o":"m 197 826 l 217 446 l 129 438 l 110 818 l 25 810 l 19 893 l 275 917 l 279 835 l 197 826 m 606 663 l 606 764 l 558 481 l 521 476 l 438 747 l 450 643 l 458 471 l 385 464 l 360 928 l 450 936 l 510 749 l 529 663 l 538 749 l 575 947 l 663 956 l 688 493 l 617 486 l 606 663 z "},"⅓":{"ha":615,"x_min":68,"x_max":615,"o":"m 210 522 l 135 519 l 125 957 l 69 954 l 68 1015 q 144 1088 119 1039 l 197 1089 l 210 522 m 550 1017 l 179 -11 l 97 -11 l 467 1017 l 550 1017 m 615 88 q 517 -71 615 -71 q 410 121 419 -71 l 482 124 q 515 14 483 14 q 544 78 544 14 q 541 142 544 118 q 530 178 538 165 q 510 194 522 190 q 478 197 497 197 l 474 267 q 516 286 501 269 q 531 356 531 303 q 500 440 531 440 q 474 385 474 440 q 474 362 474 371 q 476 342 474 353 l 406 338 q 403 356 404 344 q 403 383 403 367 q 429 487 403 446 q 501 528 456 528 q 599 350 599 528 q 564 239 599 276 q 603 185 590 219 q 615 88 615 151 z "},"⅔":{"ha":704,"x_min":68,"x_max":704,"o":"m 276 539 l 69 533 l 68 618 q 113 709 89 658 q 158 811 138 760 q 191 910 178 863 q 204 992 204 958 q 172 1036 204 1036 q 146 1014 153 1036 q 139 940 139 992 l 139 919 l 68 919 l 68 933 q 93 1070 68 1025 q 175 1115 118 1115 q 248 1081 222 1115 q 274 979 274 1046 q 229 789 274 901 q 201 724 219 765 q 150 622 182 683 l 276 625 l 276 539 m 600 1017 l 229 -11 l 147 -11 l 517 1017 l 600 1017 m 704 88 q 606 -71 704 -71 q 499 121 508 -71 l 571 124 q 604 14 572 14 q 633 78 633 14 q 630 142 633 118 q 619 178 626 165 q 599 194 611 190 q 567 197 586 197 l 563 267 q 605 286 590 269 q 619 356 619 303 q 589 440 619 440 q 563 385 563 440 q 563 362 563 371 q 565 342 563 353 l 494 338 q 492 356 493 344 q 492 383 492 367 q 518 487 492 446 q 590 528 544 528 q 688 350 688 528 q 653 239 688 276 q 692 185 679 219 q 704 88 704 151 z "},"⅛":{"ha":640,"x_min":68,"x_max":640,"o":"m 210 522 l 135 519 l 125 957 l 69 954 l 68 1015 q 144 1088 119 1039 l 197 1089 l 210 522 m 540 1017 l 169 -11 l 88 -11 l 457 1017 l 540 1017 m 640 172 q 538 10 640 10 q 433 186 433 10 q 475 322 433 281 q 447 375 456 343 q 439 454 439 407 q 535 600 439 600 q 631 447 631 600 q 622 374 631 403 q 594 324 614 344 q 628 265 615 304 q 640 172 640 225 m 563 446 q 556 508 561 486 q 535 529 550 529 q 507 453 507 529 q 536 367 507 367 q 563 446 563 367 m 568 183 q 538 275 568 275 q 506 192 506 275 q 540 93 506 93 q 568 183 568 93 z "},"⅜":{"ha":682,"x_min":68,"x_max":682,"o":"m 281 601 q 182 443 281 443 q 75 635 85 443 l 147 638 q 181 528 149 528 q 210 592 210 528 q 206 656 210 632 q 195 692 203 679 q 175 708 188 704 q 143 711 163 711 l 139 781 q 181 800 167 783 q 196 869 196 817 q 165 954 196 954 q 139 899 139 954 q 139 876 139 885 q 142 856 139 867 l 71 851 q 69 869 69 858 q 68 897 68 881 q 94 1001 68 960 q 167 1042 121 1042 q 264 864 264 1042 q 229 753 264 790 q 268 699 256 733 q 281 601 281 665 m 608 1017 l 238 -11 l 156 -11 l 525 1017 l 608 1017 m 682 172 q 579 10 682 10 q 475 186 475 10 q 517 322 475 281 q 489 375 497 343 q 481 454 481 407 q 576 600 481 600 q 672 447 672 600 q 664 374 672 403 q 636 324 656 344 q 669 265 657 304 q 682 172 682 225 m 604 446 q 597 508 603 486 q 576 529 592 529 q 549 453 549 529 q 578 367 549 367 q 604 446 604 367 m 610 183 q 579 275 610 275 q 547 192 547 275 q 582 93 547 93 q 610 183 610 93 z "},"⅝":{"ha":664,"x_min":68,"x_max":664,"o":"m 269 715 q 269 669 269 696 q 267 606 268 642 q 237 505 264 542 q 164 468 210 468 q 90 515 111 468 q 68 675 68 561 l 136 675 l 136 635 q 167 547 136 547 q 185 562 178 547 q 195 597 192 576 q 199 642 199 618 q 200 686 200 667 q 200 746 200 731 q 197 771 200 761 q 175 792 193 792 q 138 747 153 792 l 79 750 l 79 1063 l 265 1063 l 265 981 l 142 981 l 139 839 q 199 871 171 871 q 269 753 269 871 l 269 715 m 571 1017 l 200 -11 l 118 -11 l 488 1017 l 571 1017 m 664 172 q 561 10 664 10 q 457 186 457 10 q 499 322 457 281 q 471 375 479 343 q 463 454 463 407 q 558 600 463 600 q 654 447 654 600 q 646 374 654 403 q 618 324 638 344 q 651 265 639 304 q 664 172 664 225 m 586 446 q 579 508 585 486 q 558 529 574 529 q 531 453 531 529 q 560 367 531 367 q 586 446 586 367 m 592 183 q 561 275 592 275 q 529 192 529 275 q 564 93 529 93 q 592 183 592 93 z "},"⅞":{"ha":607,"x_min":68,"x_max":607,"o":"m 267 1039 l 263 975 l 158 460 l 85 460 l 189 954 l 68 960 l 71 1046 l 267 1039 m 532 1017 l 161 -11 l 79 -11 l 449 1017 l 532 1017 m 607 172 q 504 10 607 10 q 400 186 400 10 q 442 322 400 281 q 414 375 422 343 q 406 454 406 407 q 501 600 406 600 q 597 447 597 600 q 589 374 597 403 q 561 324 581 344 q 594 265 582 304 q 607 172 607 225 m 529 446 q 522 508 528 486 q 501 529 517 529 q 474 453 474 529 q 503 367 474 367 q 529 446 529 367 m 535 183 q 504 275 535 275 q 472 192 472 275 q 507 93 472 93 q 535 183 535 93 z "},"−":{"ha":342,"x_min":21,"x_max":342,"o":"m 342 372 l 21 372 l 21 471 l 342 471 l 342 372 z "},"≈":{"ha":524,"x_min":33,"x_max":486,"o":"m 33 621 q 115 657 65 657 q 171 647 136 657 q 242 626 206 638 q 314 606 279 615 q 369 596 349 596 q 482 676 435 596 l 482 553 q 383 504 442 504 q 326 514 360 504 q 256 536 292 524 q 188 558 221 549 q 132 568 154 568 q 33 501 72 568 l 33 621 m 38 410 q 119 446 69 446 q 175 436 140 446 q 247 415 210 426 q 318 394 283 404 q 374 385 353 385 q 486 465 439 385 l 486 342 q 388 293 446 293 q 330 303 364 293 q 260 325 296 313 q 192 347 225 338 q 136 357 158 357 q 38 290 76 357 l 38 410 z "},"≠":{"ha":299,"x_min":42,"x_max":306,"o":"m 101 294 l 150 499 l 46 499 l 46 599 l 174 596 l 215 767 l 299 767 l 257 594 l 306 594 l 306 499 l 233 499 l 183 294 l 303 294 l 303 200 l 160 200 l 124 49 l 42 49 l 78 200 l 42 200 l 42 294 l 101 294 z "},"≤":{"ha":667,"x_min":-14,"x_max":664,"o":"m 664 89 l -10 415 l -14 515 l 644 876 l 647 765 l 97 468 l 661 199 l 664 89 m 636 -46 l 18 -46 l 18 50 l 636 50 l 636 -46 z "},"≥":{"ha":667,"x_min":-32,"x_max":651,"o":"m 636 -46 l 18 -46 l 18 50 l 636 50 l 636 -46 m 651 468 l -3 103 l -7 211 l 540 514 l -26 778 l -32 889 l 647 568 l 651 468 z "},"":{"ha":399,"x_min":-6,"x_max":394,"o":"m 394 954 l 244 949 l 272 40 l 160 35 l 133 943 l -1 940 l -6 1069 l 375 1082 l 394 954 z "},"":{"ha":282,"x_min":40,"x_max":182,"o":"m 181 254 l 67 251 l 40 1033 l 154 1038 l 181 254 m 182 14 l 75 11 l 75 156 l 182 156 l 182 14 z "},"":{"ha":350,"x_min":-6,"x_max":322,"o":"m 322 869 q 290 721 322 808 q 225 354 225 536 q 226 302 225 329 q 228 243 226 275 l 131 238 q 129 254 129 246 q 129 272 129 263 l 129 313 q 157 629 129 503 q 167 658 157 628 q 190 727 178 688 q 213 807 203 767 q 224 868 224 847 q 208 924 224 897 q 164 950 192 950 q 83 836 114 950 l -6 876 q 163 1069 32 1069 q 278 1016 235 1069 q 322 869 322 963 m 249 18 l 142 10 l 136 151 l 242 160 l 249 18 z "},"":{"ha":456,"x_min":19,"x_max":460,"o":"m 460 -44 l 343 -47 l 303 210 l 156 210 l 129 -15 l 19 -19 l 150 1006 l 304 1011 l 460 -44 m 288 336 l 231 797 l 169 336 l 288 336 z "},"":{"ha":471,"x_min":56,"x_max":442,"o":"m 425 704 q 403 556 425 621 q 331 443 382 492 q 442 178 442 365 q 394 -13 442 49 q 253 -78 347 -75 l 64 -82 l 56 944 q 92 945 75 944 q 126 946 110 946 q 243 940 197 946 q 313 925 289 935 q 395 848 365 903 q 425 704 425 793 m 313 679 q 303 758 313 731 q 276 799 294 786 q 229 813 257 811 q 165 817 201 815 l 169 508 l 219 508 q 292 553 271 508 q 313 679 313 597 m 325 232 q 317 306 325 278 q 292 351 310 335 q 244 374 274 368 q 169 381 214 381 l 174 47 q 255 53 225 47 q 301 78 285 58 q 321 134 317 97 q 325 232 325 171 z "},"":{"ha":450,"x_min":36,"x_max":428,"o":"m 428 233 q 381 -14 426 68 q 236 -94 336 -96 q 99 -24 146 -93 q 49 183 51 44 l 39 735 q 88 914 36 849 q 235 978 139 979 q 303 965 271 978 q 358 922 335 951 q 395 842 382 892 q 408 717 408 792 q 408 695 408 706 q 408 672 408 685 q 406 644 407 660 q 404 604 406 628 l 292 603 q 294 627 293 613 q 295 657 294 642 q 296 686 296 672 q 296 710 296 700 q 226 856 297 856 q 151 742 150 856 l 165 118 q 188 51 167 74 q 240 28 208 28 q 299 69 279 28 q 318 190 318 111 q 317 225 318 207 q 315 260 317 243 q 313 290 314 276 q 311 311 311 304 l 425 314 q 427 284 426 300 q 428 233 428 268 z "},"":{"ha":475,"x_min":44,"x_max":444,"o":"m 428 238 q 411 119 425 167 q 369 44 397 72 q 300 3 342 15 q 201 -8 258 -8 q 140 -7 165 -8 q 98 -4 115 -6 q 68 -1 81 -3 q 44 0 56 0 l 76 1026 l 251 1021 q 346 994 308 1017 q 406 935 383 972 q 436 847 428 897 q 443 738 444 797 l 428 238 m 331 749 q 324 816 331 789 q 303 860 318 843 q 261 884 288 876 q 193 892 235 892 l 183 892 l 158 128 l 222 126 q 291 150 272 126 q 313 232 310 174 l 331 749 z "},"":{"ha":383,"x_min":40,"x_max":364,"o":"m 344 -49 l 40 -37 l 72 990 l 364 982 l 358 850 l 182 857 l 171 561 l 321 556 l 317 425 l 168 431 l 156 94 l 349 88 l 344 -49 z "},"":{"ha":365,"x_min":29,"x_max":358,"o":"m 350 806 l 172 815 l 163 519 l 311 511 l 308 379 l 158 388 l 142 -83 l 29 -79 l 65 946 l 358 936 l 350 806 z "},"":{"ha":447,"x_min":32,"x_max":449,"o":"m 449 -54 l 361 -58 l 351 14 q 222 -85 311 -85 q 108 -16 147 -85 q 64 163 69 53 l 35 722 q 39 819 32 772 q 67 903 46 867 q 126 963 88 940 q 222 986 164 986 q 379 832 347 986 q 394 724 392 771 q 396 622 396 678 l 290 615 q 292 648 292 632 q 292 678 292 664 q 277 817 292 772 q 219 863 263 863 q 178 852 193 863 q 155 824 163 842 q 146 783 147 806 q 146 739 144 761 l 178 153 q 254 38 185 38 q 313 68 297 38 q 329 161 329 99 l 319 336 l 243 332 l 236 444 l 421 454 l 449 -54 z "},"":{"ha":469,"x_min":42,"x_max":431,"o":"m 174 1003 l 165 604 l 314 603 l 319 1006 l 431 1004 l 411 10 l 301 11 l 310 474 l 163 475 l 154 3 l 42 8 l 63 1006 l 174 1003 z "},"":{"ha":293,"x_min":93,"x_max":260,"o":"m 260 964 l 254 857 l 140 861 l 146 971 l 260 964 m 250 796 l 243 678 l 129 682 l 136 801 l 250 796 m 239 617 l 235 500 l 122 506 l 126 624 l 239 617 m 229 439 l 225 322 l 113 326 l 117 446 l 229 439 m 221 261 l 217 144 l 104 149 l 108 268 l 221 261 m 213 74 l 206 -33 l 93 -29 l 97 78 l 213 74 z "},"":{"ha":472,"x_min":-36,"x_max":467,"o":"m 467 1007 l 421 190 q 365 17 414 75 q 217 -33 315 -42 q 140 -14 172 -29 q 88 31 108 1 q 57 107 67 61 q 47 218 47 153 q 51 321 47 264 l 165 315 l 161 251 q 159 230 160 240 q 158 210 158 219 q 232 89 158 96 q 311 183 306 82 l 356 1017 l 467 1007 m 264 406 l 171 410 l 169 367 l 56 371 l 57 417 l -36 421 l 121 564 l 264 406 z "},"":{"ha":476,"x_min":38,"x_max":458,"o":"m 319 -46 q 272 78 285 7 q 256 226 260 150 q 249 375 251 301 q 229 507 246 449 l 164 360 l 149 -10 l 38 -6 l 81 1021 l 190 1014 l 174 578 l 350 981 l 458 976 l 306 636 q 340 478 332 568 q 354 294 347 389 q 377 108 361 199 q 436 -51 393 18 l 319 -46 z "},"":{"ha":386,"x_min":39,"x_max":350,"o":"m 350 75 l 347 -53 l 39 -44 l 67 983 l 174 979 l 147 81 l 350 75 z "},"":{"ha":618,"x_min":38,"x_max":583,"o":"m 553 972 l 583 -44 l 481 -47 l 458 657 l 347 -62 l 297 -64 l 149 650 l 169 -39 l 68 -42 l 38 956 l 193 961 l 313 310 l 396 967 l 553 972 z "},"":{"ha":494,"x_min":28,"x_max":460,"o":"m 419 958 l 460 -86 l 354 -90 l 147 544 l 143 543 l 164 -64 l 63 -68 l 28 925 l 128 931 l 342 251 l 315 956 l 419 958 z "},"":{"ha":463,"x_min":43,"x_max":433,"o":"m 433 217 q 385 7 433 76 q 238 -62 338 -62 q 51 196 56 -62 l 43 753 q 90 938 43 871 q 228 1010 136 1006 q 367 949 315 1010 q 422 785 419 889 l 433 217 m 308 774 q 288 858 307 824 q 231 893 269 893 q 174 859 190 893 q 157 764 157 825 l 167 163 q 185 86 168 119 q 242 53 203 53 q 302 88 286 53 q 317 181 318 124 l 308 774 z "},"":{"ha":450,"x_min":38,"x_max":443,"o":"m 440 611 q 418 478 433 532 q 376 392 403 425 q 310 346 349 360 q 218 332 271 332 q 193 332 206 332 q 165 333 181 332 l 146 -93 l 38 -89 l 78 938 l 258 931 q 443 674 443 924 q 442 643 443 658 q 440 611 442 628 m 325 596 q 328 636 328 618 q 328 671 328 654 q 320 738 328 713 q 297 778 313 764 q 258 799 281 793 q 206 804 235 804 q 194 804 200 804 q 185 803 189 804 l 171 451 l 196 451 q 252 456 229 451 q 290 476 275 461 q 313 520 304 492 q 325 596 321 549 z "},"":{"ha":463,"x_min":19,"x_max":443,"o":"m 372 -200 q 257 -82 294 -171 q 121 -20 169 -82 q 63 172 72 42 l 21 732 q 19 749 19 740 q 19 764 19 757 q 73 932 19 876 q 215 988 126 988 q 311 961 275 988 q 367 897 347 935 q 392 819 386 860 q 401 753 399 779 l 442 194 q 443 174 443 183 q 443 153 443 164 q 419 22 443 74 q 353 -56 396 -29 q 438 -135 381 -100 l 372 -200 m 285 758 q 261 844 281 818 q 210 871 242 871 q 156 848 178 871 q 133 767 133 825 q 133 756 133 761 q 135 744 133 751 l 178 154 q 201 70 181 107 q 258 33 221 33 q 315 62 299 33 q 331 138 331 90 q 330 151 331 144 q 329 165 329 158 l 285 758 z "},"":{"ha":432,"x_min":26,"x_max":432,"o":"m 317 -26 q 277 49 292 7 q 263 140 263 92 q 263 184 263 160 q 264 236 264 208 q 257 349 264 293 q 225 435 250 404 l 147 438 l 135 0 l 26 3 l 51 1022 l 217 1019 q 306 1003 268 1018 q 369 958 344 989 q 405 875 393 926 q 417 750 417 824 q 397 578 417 647 q 329 469 376 510 q 365 382 358 435 q 371 268 371 329 q 372 181 371 214 q 374 126 372 147 q 378 88 375 104 q 386 53 381 72 q 432 -31 399 3 l 317 -26 m 182 553 q 247 568 222 553 q 283 610 271 583 q 300 672 296 636 q 304 747 304 707 q 294 831 304 801 q 265 873 283 860 q 219 888 246 886 q 160 890 192 890 l 153 554 q 167 553 160 553 q 182 553 175 553 z "},"":{"ha":435,"x_min":19,"x_max":418,"o":"m 418 190 q 401 92 417 138 q 360 14 386 47 q 299 -39 335 -19 q 224 -58 264 -58 q 138 -35 176 -58 q 74 28 100 -12 q 33 122 47 68 q 19 238 19 175 l 126 236 q 153 117 129 156 q 218 78 178 78 q 289 113 268 78 q 310 190 310 147 q 308 221 310 207 q 302 251 307 235 q 288 287 297 267 q 261 336 278 307 q 188 441 231 389 q 113 544 146 493 q 61 652 78 597 q 44 760 44 707 q 94 944 44 879 q 219 1010 143 1010 q 285 999 253 1010 q 341 965 317 989 q 381 903 365 942 q 396 807 396 864 q 394 777 396 792 q 392 744 393 763 l 279 754 q 283 808 283 783 q 235 885 283 885 q 156 778 156 885 q 158 738 156 757 q 167 697 160 718 q 187 652 174 676 q 222 597 200 628 q 288 510 254 553 q 351 421 321 467 q 403 307 388 364 q 418 190 418 250 z "},"":{"ha":399,"x_min":19,"x_max":414,"o":"m 410 863 l 265 869 l 232 188 l 119 193 l 153 875 l 19 882 l 26 1011 l 414 993 l 410 863 m 321 79 l 163 -61 l 21 94 l 113 90 l 115 135 l 229 128 l 226 85 l 321 79 z "},"":{"ha":471,"x_min":19,"x_max":457,"o":"m 397 969 l 447 197 q 415 -9 457 63 q 281 -89 372 -81 q 67 161 83 -108 l 19 944 l 132 949 l 182 147 q 207 69 186 99 q 268 44 228 40 q 335 163 340 50 l 290 967 l 397 969 z "},"":{"ha":436,"x_min":8,"x_max":422,"o":"m 422 971 l 349 -58 l 231 -67 l 8 946 l 117 958 l 275 175 l 311 971 l 422 971 z "},"":{"ha":638,"x_min":7,"x_max":624,"o":"m 624 993 l 535 -43 l 442 -46 l 328 658 l 267 -72 l 169 -78 l 7 953 l 117 963 l 215 219 l 267 938 l 363 940 l 479 251 l 519 990 l 624 993 z "},"":{"ha":436,"x_min":-4,"x_max":436,"o":"m 436 -74 l 321 -74 l 225 276 l 126 -60 l 13 -60 l 156 457 l -4 981 l 113 981 l 214 654 l 307 976 l 421 976 l 275 472 l 436 -74 z "},"":{"ha":410,"x_min":0,"x_max":397,"o":"m 397 975 l 247 374 l 247 -53 l 135 -53 l 136 353 l 0 963 l 108 967 l 197 556 l 283 974 l 397 975 z "},"":{"ha":410,"x_min":22,"x_max":382,"o":"m 350 957 l 356 818 l 139 60 l 376 71 l 382 -65 l 29 -81 l 22 68 l 236 817 l 36 808 l 31 943 l 350 957 z "},"":{"ha":282,"x_min":-4,"x_max":299,"o":"m 210 183 l 96 192 l 142 972 l 256 967 l 210 183 m 299 76 l 139 -65 l -4 93 l 89 88 l 93 132 l 207 125 l 204 82 l 299 76 z "},"":{"ha":450,"x_min":28,"x_max":413,"o":"m 413 247 q 370 35 413 106 q 225 -36 328 -36 q 43 240 51 -36 l 28 778 q 68 971 28 904 q 207 1038 108 1038 q 341 972 290 1038 q 396 790 392 906 l 413 247 m 288 817 q 264 881 286 853 q 208 910 242 910 q 152 881 169 910 q 135 814 135 851 l 151 197 q 175 122 153 154 q 233 89 197 89 q 287 123 269 89 q 304 201 304 157 l 288 817 z "},"":{"ha":242,"x_min":1,"x_max":224,"o":"m 181 -54 l 69 -50 l 106 764 l 1 767 l 7 856 q 150 974 99 893 l 224 972 l 181 -54 z "},"":{"ha":425,"x_min":17,"x_max":426,"o":"m 426 -19 l 69 -46 l 58 92 q 135 276 97 175 q 201 474 172 376 q 248 656 231 572 q 265 790 265 740 q 193 899 265 899 q 135 868 153 899 q 117 763 117 838 q 121 676 117 710 l 21 669 q 17 702 18 688 q 17 751 17 717 q 59 950 17 883 q 193 1017 101 1017 q 322 949 276 1017 q 368 757 368 881 q 307 435 368 626 q 256 296 289 381 q 172 96 222 211 l 414 115 l 426 -19 z "},"":{"ha":424,"x_min":28,"x_max":390,"o":"m 379 225 q 201 -43 357 -43 q 72 33 115 -43 q 28 257 28 108 q 28 277 28 267 q 29 299 28 288 l 133 294 q 132 268 132 281 q 132 244 132 256 q 200 83 132 83 q 263 136 244 83 q 281 289 281 189 q 274 365 281 335 q 254 413 268 394 q 219 441 240 432 q 168 453 197 450 l 174 578 q 265 631 236 579 q 294 786 294 682 q 232 911 294 911 q 179 871 200 911 q 158 751 158 831 q 160 731 158 738 l 56 736 q 71 857 57 801 q 108 953 85 913 q 163 1016 131 993 q 236 1039 196 1039 q 390 796 390 1039 q 367 615 390 686 q 294 508 344 543 q 362 432 340 478 q 383 303 383 386 q 379 225 383 267 z "},"":{"ha":451,"x_min":18,"x_max":435,"o":"m 432 219 l 338 224 l 328 -33 l 225 -29 l 233 226 l 18 233 l 21 360 l 257 999 l 364 994 l 342 339 l 435 335 l 432 219 m 238 343 l 253 758 l 113 346 l 238 343 z "},"":{"ha":415,"x_min":19,"x_max":401,"o":"m 369 538 q 385 464 379 501 q 395 381 392 426 q 400 278 399 335 q 401 146 401 221 q 356 -25 401 35 q 228 -85 311 -85 q 98 0 144 -85 q 51 258 51 85 l 150 264 q 153 190 150 231 q 166 116 157 150 q 192 58 175 82 q 235 35 208 35 q 289 69 275 35 q 303 156 303 103 q 302 301 303 235 q 294 417 301 368 q 270 493 286 465 q 224 521 254 521 q 143 428 163 521 l 61 428 l 19 981 l 333 1004 l 343 879 l 113 863 l 133 546 q 197 619 161 599 q 261 639 232 639 q 369 538 340 639 z "},"":{"ha":447,"x_min":29,"x_max":421,"o":"m 418 353 q 420 294 419 322 q 421 240 421 267 q 413 106 421 163 q 384 13 404 50 q 329 -42 364 -24 q 242 -62 294 -61 q 101 3 150 -62 q 49 211 53 68 l 32 719 q 40 824 29 776 q 73 905 50 871 q 131 959 96 939 q 213 981 165 979 q 353 910 301 981 q 404 678 404 840 l 294 674 q 290 761 294 726 q 274 816 285 796 q 249 844 264 836 q 217 853 235 853 q 158 824 176 853 q 142 756 140 794 l 150 500 q 211 563 181 540 q 274 586 242 586 q 377 531 342 586 q 418 353 413 475 m 304 379 q 240 469 300 469 q 154 390 185 469 l 160 171 q 183 90 161 119 q 236 61 204 61 q 296 92 281 61 q 311 176 311 124 l 304 379 z "},"":{"ha":357,"x_min":10,"x_max":346,"o":"m 346 1022 l 344 921 l 186 -33 l 81 -35 l 238 896 l 10 893 l 11 1022 l 346 1022 z "},"":{"ha":417,"x_min":22,"x_max":393,"o":"m 381 282 q 375 184 381 233 q 354 86 369 135 q 200 -46 310 -46 q 67 18 111 -46 q 22 217 22 82 q 48 410 22 333 q 129 526 74 486 q 63 735 63 590 q 107 951 63 879 q 232 1022 151 1022 q 393 790 393 1022 q 303 515 393 593 q 381 282 381 458 m 281 656 q 292 716 289 683 q 294 789 294 749 q 280 885 294 851 q 238 919 265 919 q 181 873 201 919 q 160 726 160 826 q 175 626 160 661 q 222 590 190 590 q 281 656 263 590 m 261 150 q 274 223 271 186 q 278 300 278 260 q 262 409 278 371 q 214 447 246 447 q 150 395 172 447 q 128 232 128 343 q 144 117 128 157 q 196 78 161 78 q 261 150 243 78 z "},"":{"ha":444,"x_min":42,"x_max":419,"o":"m 232 1015 q 418 732 419 1015 l 414 135 q 360 -28 411 31 q 226 -87 310 -87 q 93 -26 143 -87 q 43 179 43 36 q 43 201 43 190 q 44 224 43 213 l 153 221 q 151 195 151 207 q 151 172 151 183 q 169 67 151 94 q 222 40 186 40 q 281 61 258 40 q 304 128 304 82 l 306 449 q 193 375 249 375 q 79 447 117 375 q 42 663 42 519 q 53 827 42 760 q 89 936 65 894 q 148 997 113 978 q 232 1015 183 1015 m 311 778 q 291 857 311 828 q 236 886 271 886 q 194 865 210 886 q 168 808 178 843 q 159 741 161 781 q 157 622 157 701 q 229 486 157 486 q 278 505 261 486 q 308 560 296 524 l 311 778 z "},"":{"ha":350,"x_min":-3,"x_max":351,"o":"m 351 815 q 340 731 351 774 q 306 638 329 688 q 225 406 250 519 q 196 167 200 292 l 100 171 q 108 282 100 226 q 124 396 115 338 q 153 517 135 460 q 199 633 172 574 q 238 727 224 689 q 251 801 251 765 q 238 852 251 829 q 200 878 225 875 q 152 853 174 878 q 110 772 131 829 l 26 821 q 192 997 76 997 q 308 949 265 997 q 351 815 351 900 m 296 57 l 142 -89 l -3 67 l 89 64 l 90 107 l 204 101 l 203 60 l 296 57 z "}}}
